G04 #@! TF.GenerationSoftware,KiCad,Pcbnew,(5.1.10)-1*
G04 #@! TF.CreationDate,2021-09-14T11:59:29-04:00*
G04 #@! TF.ProjectId,LED Wheel,4c454420-5768-4656-956c-2e6b69636164,rev?*
G04 #@! TF.SameCoordinates,Original*
G04 #@! TF.FileFunction,Paste,Top*
G04 #@! TF.FilePolarity,Positive*
%FSLAX46Y46*%
G04 Gerber Fmt 4.6, Leading zero omitted, Abs format (unit mm)*
G04 Created by KiCad (PCBNEW (5.1.10)-1) date 2021-09-14 11:59:29*
%MOMM*%
%LPD*%
G01*
G04 APERTURE LIST*
%ADD10C,0.100000*%
%ADD11R,2.300000X0.900000*%
G04 APERTURE END LIST*
D10*
G36*
X58300000Y-123866500D02*
G01*
X54175000Y-123866500D01*
X54175000Y-123450000D01*
X51700000Y-123450000D01*
X51700000Y-122550000D01*
X54175000Y-122550000D01*
X54175000Y-122133500D01*
X58300000Y-122133500D01*
X58300000Y-123866500D01*
G37*
D11*
X52850000Y-124500000D03*
X52850000Y-121500000D03*
D10*
G36*
X58300000Y-163866500D02*
G01*
X54175000Y-163866500D01*
X54175000Y-163450000D01*
X51700000Y-163450000D01*
X51700000Y-162550000D01*
X54175000Y-162550000D01*
X54175000Y-162133500D01*
X58300000Y-162133500D01*
X58300000Y-163866500D01*
G37*
D11*
X52850000Y-164500000D03*
X52850000Y-161500000D03*
D10*
G36*
X58300000Y-143866500D02*
G01*
X54175000Y-143866500D01*
X54175000Y-143450000D01*
X51700000Y-143450000D01*
X51700000Y-142550000D01*
X54175000Y-142550000D01*
X54175000Y-142133500D01*
X58300000Y-142133500D01*
X58300000Y-143866500D01*
G37*
D11*
X52850000Y-144500000D03*
X52850000Y-141500000D03*
G36*
G01*
X93350000Y-110125000D02*
X93350000Y-108875000D01*
G75*
G02*
X93600000Y-108625000I250000J0D01*
G01*
X94400000Y-108625000D01*
G75*
G02*
X94650000Y-108875000I0J-250000D01*
G01*
X94650000Y-110125000D01*
G75*
G02*
X94400000Y-110375000I-250000J0D01*
G01*
X93600000Y-110375000D01*
G75*
G02*
X93350000Y-110125000I0J250000D01*
G01*
G37*
G36*
G01*
X90250000Y-110125000D02*
X90250000Y-108875000D01*
G75*
G02*
X90500000Y-108625000I250000J0D01*
G01*
X91300000Y-108625000D01*
G75*
G02*
X91550000Y-108875000I0J-250000D01*
G01*
X91550000Y-110125000D01*
G75*
G02*
X91300000Y-110375000I-250000J0D01*
G01*
X90500000Y-110375000D01*
G75*
G02*
X90250000Y-110125000I0J250000D01*
G01*
G37*
G36*
G01*
X173350000Y-110125000D02*
X173350000Y-108875000D01*
G75*
G02*
X173600000Y-108625000I250000J0D01*
G01*
X174400000Y-108625000D01*
G75*
G02*
X174650000Y-108875000I0J-250000D01*
G01*
X174650000Y-110125000D01*
G75*
G02*
X174400000Y-110375000I-250000J0D01*
G01*
X173600000Y-110375000D01*
G75*
G02*
X173350000Y-110125000I0J250000D01*
G01*
G37*
G36*
G01*
X170250000Y-110125000D02*
X170250000Y-108875000D01*
G75*
G02*
X170500000Y-108625000I250000J0D01*
G01*
X171300000Y-108625000D01*
G75*
G02*
X171550000Y-108875000I0J-250000D01*
G01*
X171550000Y-110125000D01*
G75*
G02*
X171300000Y-110375000I-250000J0D01*
G01*
X170500000Y-110375000D01*
G75*
G02*
X170250000Y-110125000I0J250000D01*
G01*
G37*
G36*
G01*
X253350000Y-110125000D02*
X253350000Y-108875000D01*
G75*
G02*
X253600000Y-108625000I250000J0D01*
G01*
X254400000Y-108625000D01*
G75*
G02*
X254650000Y-108875000I0J-250000D01*
G01*
X254650000Y-110125000D01*
G75*
G02*
X254400000Y-110375000I-250000J0D01*
G01*
X253600000Y-110375000D01*
G75*
G02*
X253350000Y-110125000I0J250000D01*
G01*
G37*
G36*
G01*
X250250000Y-110125000D02*
X250250000Y-108875000D01*
G75*
G02*
X250500000Y-108625000I250000J0D01*
G01*
X251300000Y-108625000D01*
G75*
G02*
X251550000Y-108875000I0J-250000D01*
G01*
X251550000Y-110125000D01*
G75*
G02*
X251300000Y-110375000I-250000J0D01*
G01*
X250500000Y-110375000D01*
G75*
G02*
X250250000Y-110125000I0J250000D01*
G01*
G37*
G36*
G01*
X333350000Y-110125000D02*
X333350000Y-108875000D01*
G75*
G02*
X333600000Y-108625000I250000J0D01*
G01*
X334400000Y-108625000D01*
G75*
G02*
X334650000Y-108875000I0J-250000D01*
G01*
X334650000Y-110125000D01*
G75*
G02*
X334400000Y-110375000I-250000J0D01*
G01*
X333600000Y-110375000D01*
G75*
G02*
X333350000Y-110125000I0J250000D01*
G01*
G37*
G36*
G01*
X330250000Y-110125000D02*
X330250000Y-108875000D01*
G75*
G02*
X330500000Y-108625000I250000J0D01*
G01*
X331300000Y-108625000D01*
G75*
G02*
X331550000Y-108875000I0J-250000D01*
G01*
X331550000Y-110125000D01*
G75*
G02*
X331300000Y-110375000I-250000J0D01*
G01*
X330500000Y-110375000D01*
G75*
G02*
X330250000Y-110125000I0J250000D01*
G01*
G37*
G36*
G01*
X93850000Y-150125000D02*
X93850000Y-148875000D01*
G75*
G02*
X94100000Y-148625000I250000J0D01*
G01*
X94900000Y-148625000D01*
G75*
G02*
X95150000Y-148875000I0J-250000D01*
G01*
X95150000Y-150125000D01*
G75*
G02*
X94900000Y-150375000I-250000J0D01*
G01*
X94100000Y-150375000D01*
G75*
G02*
X93850000Y-150125000I0J250000D01*
G01*
G37*
G36*
G01*
X90750000Y-150125000D02*
X90750000Y-148875000D01*
G75*
G02*
X91000000Y-148625000I250000J0D01*
G01*
X91800000Y-148625000D01*
G75*
G02*
X92050000Y-148875000I0J-250000D01*
G01*
X92050000Y-150125000D01*
G75*
G02*
X91800000Y-150375000I-250000J0D01*
G01*
X91000000Y-150375000D01*
G75*
G02*
X90750000Y-150125000I0J250000D01*
G01*
G37*
G36*
G01*
X173350000Y-150125000D02*
X173350000Y-148875000D01*
G75*
G02*
X173600000Y-148625000I250000J0D01*
G01*
X174400000Y-148625000D01*
G75*
G02*
X174650000Y-148875000I0J-250000D01*
G01*
X174650000Y-150125000D01*
G75*
G02*
X174400000Y-150375000I-250000J0D01*
G01*
X173600000Y-150375000D01*
G75*
G02*
X173350000Y-150125000I0J250000D01*
G01*
G37*
G36*
G01*
X170250000Y-150125000D02*
X170250000Y-148875000D01*
G75*
G02*
X170500000Y-148625000I250000J0D01*
G01*
X171300000Y-148625000D01*
G75*
G02*
X171550000Y-148875000I0J-250000D01*
G01*
X171550000Y-150125000D01*
G75*
G02*
X171300000Y-150375000I-250000J0D01*
G01*
X170500000Y-150375000D01*
G75*
G02*
X170250000Y-150125000I0J250000D01*
G01*
G37*
G36*
G01*
X253350000Y-150125000D02*
X253350000Y-148875000D01*
G75*
G02*
X253600000Y-148625000I250000J0D01*
G01*
X254400000Y-148625000D01*
G75*
G02*
X254650000Y-148875000I0J-250000D01*
G01*
X254650000Y-150125000D01*
G75*
G02*
X254400000Y-150375000I-250000J0D01*
G01*
X253600000Y-150375000D01*
G75*
G02*
X253350000Y-150125000I0J250000D01*
G01*
G37*
G36*
G01*
X250250000Y-150125000D02*
X250250000Y-148875000D01*
G75*
G02*
X250500000Y-148625000I250000J0D01*
G01*
X251300000Y-148625000D01*
G75*
G02*
X251550000Y-148875000I0J-250000D01*
G01*
X251550000Y-150125000D01*
G75*
G02*
X251300000Y-150375000I-250000J0D01*
G01*
X250500000Y-150375000D01*
G75*
G02*
X250250000Y-150125000I0J250000D01*
G01*
G37*
G36*
G01*
X333350000Y-150125000D02*
X333350000Y-148875000D01*
G75*
G02*
X333600000Y-148625000I250000J0D01*
G01*
X334400000Y-148625000D01*
G75*
G02*
X334650000Y-148875000I0J-250000D01*
G01*
X334650000Y-150125000D01*
G75*
G02*
X334400000Y-150375000I-250000J0D01*
G01*
X333600000Y-150375000D01*
G75*
G02*
X333350000Y-150125000I0J250000D01*
G01*
G37*
G36*
G01*
X330250000Y-150125000D02*
X330250000Y-148875000D01*
G75*
G02*
X330500000Y-148625000I250000J0D01*
G01*
X331300000Y-148625000D01*
G75*
G02*
X331550000Y-148875000I0J-250000D01*
G01*
X331550000Y-150125000D01*
G75*
G02*
X331300000Y-150375000I-250000J0D01*
G01*
X330500000Y-150375000D01*
G75*
G02*
X330250000Y-150125000I0J250000D01*
G01*
G37*
G36*
G01*
X93850000Y-130125000D02*
X93850000Y-128875000D01*
G75*
G02*
X94100000Y-128625000I250000J0D01*
G01*
X94900000Y-128625000D01*
G75*
G02*
X95150000Y-128875000I0J-250000D01*
G01*
X95150000Y-130125000D01*
G75*
G02*
X94900000Y-130375000I-250000J0D01*
G01*
X94100000Y-130375000D01*
G75*
G02*
X93850000Y-130125000I0J250000D01*
G01*
G37*
G36*
G01*
X90750000Y-130125000D02*
X90750000Y-128875000D01*
G75*
G02*
X91000000Y-128625000I250000J0D01*
G01*
X91800000Y-128625000D01*
G75*
G02*
X92050000Y-128875000I0J-250000D01*
G01*
X92050000Y-130125000D01*
G75*
G02*
X91800000Y-130375000I-250000J0D01*
G01*
X91000000Y-130375000D01*
G75*
G02*
X90750000Y-130125000I0J250000D01*
G01*
G37*
G36*
G01*
X173350000Y-130125000D02*
X173350000Y-128875000D01*
G75*
G02*
X173600000Y-128625000I250000J0D01*
G01*
X174400000Y-128625000D01*
G75*
G02*
X174650000Y-128875000I0J-250000D01*
G01*
X174650000Y-130125000D01*
G75*
G02*
X174400000Y-130375000I-250000J0D01*
G01*
X173600000Y-130375000D01*
G75*
G02*
X173350000Y-130125000I0J250000D01*
G01*
G37*
G36*
G01*
X170250000Y-130125000D02*
X170250000Y-128875000D01*
G75*
G02*
X170500000Y-128625000I250000J0D01*
G01*
X171300000Y-128625000D01*
G75*
G02*
X171550000Y-128875000I0J-250000D01*
G01*
X171550000Y-130125000D01*
G75*
G02*
X171300000Y-130375000I-250000J0D01*
G01*
X170500000Y-130375000D01*
G75*
G02*
X170250000Y-130125000I0J250000D01*
G01*
G37*
G36*
G01*
X253350000Y-130125000D02*
X253350000Y-128875000D01*
G75*
G02*
X253600000Y-128625000I250000J0D01*
G01*
X254400000Y-128625000D01*
G75*
G02*
X254650000Y-128875000I0J-250000D01*
G01*
X254650000Y-130125000D01*
G75*
G02*
X254400000Y-130375000I-250000J0D01*
G01*
X253600000Y-130375000D01*
G75*
G02*
X253350000Y-130125000I0J250000D01*
G01*
G37*
G36*
G01*
X250250000Y-130125000D02*
X250250000Y-128875000D01*
G75*
G02*
X250500000Y-128625000I250000J0D01*
G01*
X251300000Y-128625000D01*
G75*
G02*
X251550000Y-128875000I0J-250000D01*
G01*
X251550000Y-130125000D01*
G75*
G02*
X251300000Y-130375000I-250000J0D01*
G01*
X250500000Y-130375000D01*
G75*
G02*
X250250000Y-130125000I0J250000D01*
G01*
G37*
G36*
G01*
X333350000Y-130125000D02*
X333350000Y-128875000D01*
G75*
G02*
X333600000Y-128625000I250000J0D01*
G01*
X334400000Y-128625000D01*
G75*
G02*
X334650000Y-128875000I0J-250000D01*
G01*
X334650000Y-130125000D01*
G75*
G02*
X334400000Y-130375000I-250000J0D01*
G01*
X333600000Y-130375000D01*
G75*
G02*
X333350000Y-130125000I0J250000D01*
G01*
G37*
G36*
G01*
X330250000Y-130125000D02*
X330250000Y-128875000D01*
G75*
G02*
X330500000Y-128625000I250000J0D01*
G01*
X331300000Y-128625000D01*
G75*
G02*
X331550000Y-128875000I0J-250000D01*
G01*
X331550000Y-130125000D01*
G75*
G02*
X331300000Y-130375000I-250000J0D01*
G01*
X330500000Y-130375000D01*
G75*
G02*
X330250000Y-130125000I0J250000D01*
G01*
G37*
G36*
G01*
X62549999Y-116450000D02*
X63450001Y-116450000D01*
G75*
G02*
X63700000Y-116699999I0J-249999D01*
G01*
X63700000Y-117350001D01*
G75*
G02*
X63450001Y-117600000I-249999J0D01*
G01*
X62549999Y-117600000D01*
G75*
G02*
X62300000Y-117350001I0J249999D01*
G01*
X62300000Y-116699999D01*
G75*
G02*
X62549999Y-116450000I249999J0D01*
G01*
G37*
G36*
G01*
X62549999Y-114400000D02*
X63450001Y-114400000D01*
G75*
G02*
X63700000Y-114649999I0J-249999D01*
G01*
X63700000Y-115300001D01*
G75*
G02*
X63450001Y-115550000I-249999J0D01*
G01*
X62549999Y-115550000D01*
G75*
G02*
X62300000Y-115300001I0J249999D01*
G01*
X62300000Y-114649999D01*
G75*
G02*
X62549999Y-114400000I249999J0D01*
G01*
G37*
G36*
G01*
X82549999Y-116450000D02*
X83450001Y-116450000D01*
G75*
G02*
X83700000Y-116699999I0J-249999D01*
G01*
X83700000Y-117350001D01*
G75*
G02*
X83450001Y-117600000I-249999J0D01*
G01*
X82549999Y-117600000D01*
G75*
G02*
X82300000Y-117350001I0J249999D01*
G01*
X82300000Y-116699999D01*
G75*
G02*
X82549999Y-116450000I249999J0D01*
G01*
G37*
G36*
G01*
X82549999Y-114400000D02*
X83450001Y-114400000D01*
G75*
G02*
X83700000Y-114649999I0J-249999D01*
G01*
X83700000Y-115300001D01*
G75*
G02*
X83450001Y-115550000I-249999J0D01*
G01*
X82549999Y-115550000D01*
G75*
G02*
X82300000Y-115300001I0J249999D01*
G01*
X82300000Y-114649999D01*
G75*
G02*
X82549999Y-114400000I249999J0D01*
G01*
G37*
G36*
G01*
X102549999Y-116450000D02*
X103450001Y-116450000D01*
G75*
G02*
X103700000Y-116699999I0J-249999D01*
G01*
X103700000Y-117350001D01*
G75*
G02*
X103450001Y-117600000I-249999J0D01*
G01*
X102549999Y-117600000D01*
G75*
G02*
X102300000Y-117350001I0J249999D01*
G01*
X102300000Y-116699999D01*
G75*
G02*
X102549999Y-116450000I249999J0D01*
G01*
G37*
G36*
G01*
X102549999Y-114400000D02*
X103450001Y-114400000D01*
G75*
G02*
X103700000Y-114649999I0J-249999D01*
G01*
X103700000Y-115300001D01*
G75*
G02*
X103450001Y-115550000I-249999J0D01*
G01*
X102549999Y-115550000D01*
G75*
G02*
X102300000Y-115300001I0J249999D01*
G01*
X102300000Y-114649999D01*
G75*
G02*
X102549999Y-114400000I249999J0D01*
G01*
G37*
G36*
G01*
X122549999Y-116450000D02*
X123450001Y-116450000D01*
G75*
G02*
X123700000Y-116699999I0J-249999D01*
G01*
X123700000Y-117350001D01*
G75*
G02*
X123450001Y-117600000I-249999J0D01*
G01*
X122549999Y-117600000D01*
G75*
G02*
X122300000Y-117350001I0J249999D01*
G01*
X122300000Y-116699999D01*
G75*
G02*
X122549999Y-116450000I249999J0D01*
G01*
G37*
G36*
G01*
X122549999Y-114400000D02*
X123450001Y-114400000D01*
G75*
G02*
X123700000Y-114649999I0J-249999D01*
G01*
X123700000Y-115300001D01*
G75*
G02*
X123450001Y-115550000I-249999J0D01*
G01*
X122549999Y-115550000D01*
G75*
G02*
X122300000Y-115300001I0J249999D01*
G01*
X122300000Y-114649999D01*
G75*
G02*
X122549999Y-114400000I249999J0D01*
G01*
G37*
G36*
G01*
X142549999Y-116450000D02*
X143450001Y-116450000D01*
G75*
G02*
X143700000Y-116699999I0J-249999D01*
G01*
X143700000Y-117350001D01*
G75*
G02*
X143450001Y-117600000I-249999J0D01*
G01*
X142549999Y-117600000D01*
G75*
G02*
X142300000Y-117350001I0J249999D01*
G01*
X142300000Y-116699999D01*
G75*
G02*
X142549999Y-116450000I249999J0D01*
G01*
G37*
G36*
G01*
X142549999Y-114400000D02*
X143450001Y-114400000D01*
G75*
G02*
X143700000Y-114649999I0J-249999D01*
G01*
X143700000Y-115300001D01*
G75*
G02*
X143450001Y-115550000I-249999J0D01*
G01*
X142549999Y-115550000D01*
G75*
G02*
X142300000Y-115300001I0J249999D01*
G01*
X142300000Y-114649999D01*
G75*
G02*
X142549999Y-114400000I249999J0D01*
G01*
G37*
G36*
G01*
X162549999Y-116450000D02*
X163450001Y-116450000D01*
G75*
G02*
X163700000Y-116699999I0J-249999D01*
G01*
X163700000Y-117350001D01*
G75*
G02*
X163450001Y-117600000I-249999J0D01*
G01*
X162549999Y-117600000D01*
G75*
G02*
X162300000Y-117350001I0J249999D01*
G01*
X162300000Y-116699999D01*
G75*
G02*
X162549999Y-116450000I249999J0D01*
G01*
G37*
G36*
G01*
X162549999Y-114400000D02*
X163450001Y-114400000D01*
G75*
G02*
X163700000Y-114649999I0J-249999D01*
G01*
X163700000Y-115300001D01*
G75*
G02*
X163450001Y-115550000I-249999J0D01*
G01*
X162549999Y-115550000D01*
G75*
G02*
X162300000Y-115300001I0J249999D01*
G01*
X162300000Y-114649999D01*
G75*
G02*
X162549999Y-114400000I249999J0D01*
G01*
G37*
G36*
G01*
X182549999Y-116450000D02*
X183450001Y-116450000D01*
G75*
G02*
X183700000Y-116699999I0J-249999D01*
G01*
X183700000Y-117350001D01*
G75*
G02*
X183450001Y-117600000I-249999J0D01*
G01*
X182549999Y-117600000D01*
G75*
G02*
X182300000Y-117350001I0J249999D01*
G01*
X182300000Y-116699999D01*
G75*
G02*
X182549999Y-116450000I249999J0D01*
G01*
G37*
G36*
G01*
X182549999Y-114400000D02*
X183450001Y-114400000D01*
G75*
G02*
X183700000Y-114649999I0J-249999D01*
G01*
X183700000Y-115300001D01*
G75*
G02*
X183450001Y-115550000I-249999J0D01*
G01*
X182549999Y-115550000D01*
G75*
G02*
X182300000Y-115300001I0J249999D01*
G01*
X182300000Y-114649999D01*
G75*
G02*
X182549999Y-114400000I249999J0D01*
G01*
G37*
G36*
G01*
X202549999Y-116450000D02*
X203450001Y-116450000D01*
G75*
G02*
X203700000Y-116699999I0J-249999D01*
G01*
X203700000Y-117350001D01*
G75*
G02*
X203450001Y-117600000I-249999J0D01*
G01*
X202549999Y-117600000D01*
G75*
G02*
X202300000Y-117350001I0J249999D01*
G01*
X202300000Y-116699999D01*
G75*
G02*
X202549999Y-116450000I249999J0D01*
G01*
G37*
G36*
G01*
X202549999Y-114400000D02*
X203450001Y-114400000D01*
G75*
G02*
X203700000Y-114649999I0J-249999D01*
G01*
X203700000Y-115300001D01*
G75*
G02*
X203450001Y-115550000I-249999J0D01*
G01*
X202549999Y-115550000D01*
G75*
G02*
X202300000Y-115300001I0J249999D01*
G01*
X202300000Y-114649999D01*
G75*
G02*
X202549999Y-114400000I249999J0D01*
G01*
G37*
G36*
G01*
X57549999Y-116450000D02*
X58450001Y-116450000D01*
G75*
G02*
X58700000Y-116699999I0J-249999D01*
G01*
X58700000Y-117350001D01*
G75*
G02*
X58450001Y-117600000I-249999J0D01*
G01*
X57549999Y-117600000D01*
G75*
G02*
X57300000Y-117350001I0J249999D01*
G01*
X57300000Y-116699999D01*
G75*
G02*
X57549999Y-116450000I249999J0D01*
G01*
G37*
G36*
G01*
X57549999Y-114400000D02*
X58450001Y-114400000D01*
G75*
G02*
X58700000Y-114649999I0J-249999D01*
G01*
X58700000Y-115300001D01*
G75*
G02*
X58450001Y-115550000I-249999J0D01*
G01*
X57549999Y-115550000D01*
G75*
G02*
X57300000Y-115300001I0J249999D01*
G01*
X57300000Y-114649999D01*
G75*
G02*
X57549999Y-114400000I249999J0D01*
G01*
G37*
G36*
G01*
X77549999Y-116450000D02*
X78450001Y-116450000D01*
G75*
G02*
X78700000Y-116699999I0J-249999D01*
G01*
X78700000Y-117350001D01*
G75*
G02*
X78450001Y-117600000I-249999J0D01*
G01*
X77549999Y-117600000D01*
G75*
G02*
X77300000Y-117350001I0J249999D01*
G01*
X77300000Y-116699999D01*
G75*
G02*
X77549999Y-116450000I249999J0D01*
G01*
G37*
G36*
G01*
X77549999Y-114400000D02*
X78450001Y-114400000D01*
G75*
G02*
X78700000Y-114649999I0J-249999D01*
G01*
X78700000Y-115300001D01*
G75*
G02*
X78450001Y-115550000I-249999J0D01*
G01*
X77549999Y-115550000D01*
G75*
G02*
X77300000Y-115300001I0J249999D01*
G01*
X77300000Y-114649999D01*
G75*
G02*
X77549999Y-114400000I249999J0D01*
G01*
G37*
G36*
G01*
X97549999Y-116450000D02*
X98450001Y-116450000D01*
G75*
G02*
X98700000Y-116699999I0J-249999D01*
G01*
X98700000Y-117350001D01*
G75*
G02*
X98450001Y-117600000I-249999J0D01*
G01*
X97549999Y-117600000D01*
G75*
G02*
X97300000Y-117350001I0J249999D01*
G01*
X97300000Y-116699999D01*
G75*
G02*
X97549999Y-116450000I249999J0D01*
G01*
G37*
G36*
G01*
X97549999Y-114400000D02*
X98450001Y-114400000D01*
G75*
G02*
X98700000Y-114649999I0J-249999D01*
G01*
X98700000Y-115300001D01*
G75*
G02*
X98450001Y-115550000I-249999J0D01*
G01*
X97549999Y-115550000D01*
G75*
G02*
X97300000Y-115300001I0J249999D01*
G01*
X97300000Y-114649999D01*
G75*
G02*
X97549999Y-114400000I249999J0D01*
G01*
G37*
G36*
G01*
X117549999Y-116450000D02*
X118450001Y-116450000D01*
G75*
G02*
X118700000Y-116699999I0J-249999D01*
G01*
X118700000Y-117350001D01*
G75*
G02*
X118450001Y-117600000I-249999J0D01*
G01*
X117549999Y-117600000D01*
G75*
G02*
X117300000Y-117350001I0J249999D01*
G01*
X117300000Y-116699999D01*
G75*
G02*
X117549999Y-116450000I249999J0D01*
G01*
G37*
G36*
G01*
X117549999Y-114400000D02*
X118450001Y-114400000D01*
G75*
G02*
X118700000Y-114649999I0J-249999D01*
G01*
X118700000Y-115300001D01*
G75*
G02*
X118450001Y-115550000I-249999J0D01*
G01*
X117549999Y-115550000D01*
G75*
G02*
X117300000Y-115300001I0J249999D01*
G01*
X117300000Y-114649999D01*
G75*
G02*
X117549999Y-114400000I249999J0D01*
G01*
G37*
G36*
G01*
X137549999Y-116450000D02*
X138450001Y-116450000D01*
G75*
G02*
X138700000Y-116699999I0J-249999D01*
G01*
X138700000Y-117350001D01*
G75*
G02*
X138450001Y-117600000I-249999J0D01*
G01*
X137549999Y-117600000D01*
G75*
G02*
X137300000Y-117350001I0J249999D01*
G01*
X137300000Y-116699999D01*
G75*
G02*
X137549999Y-116450000I249999J0D01*
G01*
G37*
G36*
G01*
X137549999Y-114400000D02*
X138450001Y-114400000D01*
G75*
G02*
X138700000Y-114649999I0J-249999D01*
G01*
X138700000Y-115300001D01*
G75*
G02*
X138450001Y-115550000I-249999J0D01*
G01*
X137549999Y-115550000D01*
G75*
G02*
X137300000Y-115300001I0J249999D01*
G01*
X137300000Y-114649999D01*
G75*
G02*
X137549999Y-114400000I249999J0D01*
G01*
G37*
G36*
G01*
X157549999Y-116450000D02*
X158450001Y-116450000D01*
G75*
G02*
X158700000Y-116699999I0J-249999D01*
G01*
X158700000Y-117350001D01*
G75*
G02*
X158450001Y-117600000I-249999J0D01*
G01*
X157549999Y-117600000D01*
G75*
G02*
X157300000Y-117350001I0J249999D01*
G01*
X157300000Y-116699999D01*
G75*
G02*
X157549999Y-116450000I249999J0D01*
G01*
G37*
G36*
G01*
X157549999Y-114400000D02*
X158450001Y-114400000D01*
G75*
G02*
X158700000Y-114649999I0J-249999D01*
G01*
X158700000Y-115300001D01*
G75*
G02*
X158450001Y-115550000I-249999J0D01*
G01*
X157549999Y-115550000D01*
G75*
G02*
X157300000Y-115300001I0J249999D01*
G01*
X157300000Y-114649999D01*
G75*
G02*
X157549999Y-114400000I249999J0D01*
G01*
G37*
G36*
G01*
X177549999Y-116450000D02*
X178450001Y-116450000D01*
G75*
G02*
X178700000Y-116699999I0J-249999D01*
G01*
X178700000Y-117350001D01*
G75*
G02*
X178450001Y-117600000I-249999J0D01*
G01*
X177549999Y-117600000D01*
G75*
G02*
X177300000Y-117350001I0J249999D01*
G01*
X177300000Y-116699999D01*
G75*
G02*
X177549999Y-116450000I249999J0D01*
G01*
G37*
G36*
G01*
X177549999Y-114400000D02*
X178450001Y-114400000D01*
G75*
G02*
X178700000Y-114649999I0J-249999D01*
G01*
X178700000Y-115300001D01*
G75*
G02*
X178450001Y-115550000I-249999J0D01*
G01*
X177549999Y-115550000D01*
G75*
G02*
X177300000Y-115300001I0J249999D01*
G01*
X177300000Y-114649999D01*
G75*
G02*
X177549999Y-114400000I249999J0D01*
G01*
G37*
G36*
G01*
X197549999Y-116450000D02*
X198450001Y-116450000D01*
G75*
G02*
X198700000Y-116699999I0J-249999D01*
G01*
X198700000Y-117350001D01*
G75*
G02*
X198450001Y-117600000I-249999J0D01*
G01*
X197549999Y-117600000D01*
G75*
G02*
X197300000Y-117350001I0J249999D01*
G01*
X197300000Y-116699999D01*
G75*
G02*
X197549999Y-116450000I249999J0D01*
G01*
G37*
G36*
G01*
X197549999Y-114400000D02*
X198450001Y-114400000D01*
G75*
G02*
X198700000Y-114649999I0J-249999D01*
G01*
X198700000Y-115300001D01*
G75*
G02*
X198450001Y-115550000I-249999J0D01*
G01*
X197549999Y-115550000D01*
G75*
G02*
X197300000Y-115300001I0J249999D01*
G01*
X197300000Y-114649999D01*
G75*
G02*
X197549999Y-114400000I249999J0D01*
G01*
G37*
G36*
G01*
X52549999Y-116450000D02*
X53450001Y-116450000D01*
G75*
G02*
X53700000Y-116699999I0J-249999D01*
G01*
X53700000Y-117350001D01*
G75*
G02*
X53450001Y-117600000I-249999J0D01*
G01*
X52549999Y-117600000D01*
G75*
G02*
X52300000Y-117350001I0J249999D01*
G01*
X52300000Y-116699999D01*
G75*
G02*
X52549999Y-116450000I249999J0D01*
G01*
G37*
G36*
G01*
X52549999Y-114400000D02*
X53450001Y-114400000D01*
G75*
G02*
X53700000Y-114649999I0J-249999D01*
G01*
X53700000Y-115300001D01*
G75*
G02*
X53450001Y-115550000I-249999J0D01*
G01*
X52549999Y-115550000D01*
G75*
G02*
X52300000Y-115300001I0J249999D01*
G01*
X52300000Y-114649999D01*
G75*
G02*
X52549999Y-114400000I249999J0D01*
G01*
G37*
G36*
G01*
X72549999Y-116450000D02*
X73450001Y-116450000D01*
G75*
G02*
X73700000Y-116699999I0J-249999D01*
G01*
X73700000Y-117350001D01*
G75*
G02*
X73450001Y-117600000I-249999J0D01*
G01*
X72549999Y-117600000D01*
G75*
G02*
X72300000Y-117350001I0J249999D01*
G01*
X72300000Y-116699999D01*
G75*
G02*
X72549999Y-116450000I249999J0D01*
G01*
G37*
G36*
G01*
X72549999Y-114400000D02*
X73450001Y-114400000D01*
G75*
G02*
X73700000Y-114649999I0J-249999D01*
G01*
X73700000Y-115300001D01*
G75*
G02*
X73450001Y-115550000I-249999J0D01*
G01*
X72549999Y-115550000D01*
G75*
G02*
X72300000Y-115300001I0J249999D01*
G01*
X72300000Y-114649999D01*
G75*
G02*
X72549999Y-114400000I249999J0D01*
G01*
G37*
G36*
G01*
X92549999Y-116450000D02*
X93450001Y-116450000D01*
G75*
G02*
X93700000Y-116699999I0J-249999D01*
G01*
X93700000Y-117350001D01*
G75*
G02*
X93450001Y-117600000I-249999J0D01*
G01*
X92549999Y-117600000D01*
G75*
G02*
X92300000Y-117350001I0J249999D01*
G01*
X92300000Y-116699999D01*
G75*
G02*
X92549999Y-116450000I249999J0D01*
G01*
G37*
G36*
G01*
X92549999Y-114400000D02*
X93450001Y-114400000D01*
G75*
G02*
X93700000Y-114649999I0J-249999D01*
G01*
X93700000Y-115300001D01*
G75*
G02*
X93450001Y-115550000I-249999J0D01*
G01*
X92549999Y-115550000D01*
G75*
G02*
X92300000Y-115300001I0J249999D01*
G01*
X92300000Y-114649999D01*
G75*
G02*
X92549999Y-114400000I249999J0D01*
G01*
G37*
G36*
G01*
X112549999Y-116450000D02*
X113450001Y-116450000D01*
G75*
G02*
X113700000Y-116699999I0J-249999D01*
G01*
X113700000Y-117350001D01*
G75*
G02*
X113450001Y-117600000I-249999J0D01*
G01*
X112549999Y-117600000D01*
G75*
G02*
X112300000Y-117350001I0J249999D01*
G01*
X112300000Y-116699999D01*
G75*
G02*
X112549999Y-116450000I249999J0D01*
G01*
G37*
G36*
G01*
X112549999Y-114400000D02*
X113450001Y-114400000D01*
G75*
G02*
X113700000Y-114649999I0J-249999D01*
G01*
X113700000Y-115300001D01*
G75*
G02*
X113450001Y-115550000I-249999J0D01*
G01*
X112549999Y-115550000D01*
G75*
G02*
X112300000Y-115300001I0J249999D01*
G01*
X112300000Y-114649999D01*
G75*
G02*
X112549999Y-114400000I249999J0D01*
G01*
G37*
G36*
G01*
X132549999Y-116450000D02*
X133450001Y-116450000D01*
G75*
G02*
X133700000Y-116699999I0J-249999D01*
G01*
X133700000Y-117350001D01*
G75*
G02*
X133450001Y-117600000I-249999J0D01*
G01*
X132549999Y-117600000D01*
G75*
G02*
X132300000Y-117350001I0J249999D01*
G01*
X132300000Y-116699999D01*
G75*
G02*
X132549999Y-116450000I249999J0D01*
G01*
G37*
G36*
G01*
X132549999Y-114400000D02*
X133450001Y-114400000D01*
G75*
G02*
X133700000Y-114649999I0J-249999D01*
G01*
X133700000Y-115300001D01*
G75*
G02*
X133450001Y-115550000I-249999J0D01*
G01*
X132549999Y-115550000D01*
G75*
G02*
X132300000Y-115300001I0J249999D01*
G01*
X132300000Y-114649999D01*
G75*
G02*
X132549999Y-114400000I249999J0D01*
G01*
G37*
G36*
G01*
X152549999Y-116450000D02*
X153450001Y-116450000D01*
G75*
G02*
X153700000Y-116699999I0J-249999D01*
G01*
X153700000Y-117350001D01*
G75*
G02*
X153450001Y-117600000I-249999J0D01*
G01*
X152549999Y-117600000D01*
G75*
G02*
X152300000Y-117350001I0J249999D01*
G01*
X152300000Y-116699999D01*
G75*
G02*
X152549999Y-116450000I249999J0D01*
G01*
G37*
G36*
G01*
X152549999Y-114400000D02*
X153450001Y-114400000D01*
G75*
G02*
X153700000Y-114649999I0J-249999D01*
G01*
X153700000Y-115300001D01*
G75*
G02*
X153450001Y-115550000I-249999J0D01*
G01*
X152549999Y-115550000D01*
G75*
G02*
X152300000Y-115300001I0J249999D01*
G01*
X152300000Y-114649999D01*
G75*
G02*
X152549999Y-114400000I249999J0D01*
G01*
G37*
G36*
G01*
X172549999Y-116450000D02*
X173450001Y-116450000D01*
G75*
G02*
X173700000Y-116699999I0J-249999D01*
G01*
X173700000Y-117350001D01*
G75*
G02*
X173450001Y-117600000I-249999J0D01*
G01*
X172549999Y-117600000D01*
G75*
G02*
X172300000Y-117350001I0J249999D01*
G01*
X172300000Y-116699999D01*
G75*
G02*
X172549999Y-116450000I249999J0D01*
G01*
G37*
G36*
G01*
X172549999Y-114400000D02*
X173450001Y-114400000D01*
G75*
G02*
X173700000Y-114649999I0J-249999D01*
G01*
X173700000Y-115300001D01*
G75*
G02*
X173450001Y-115550000I-249999J0D01*
G01*
X172549999Y-115550000D01*
G75*
G02*
X172300000Y-115300001I0J249999D01*
G01*
X172300000Y-114649999D01*
G75*
G02*
X172549999Y-114400000I249999J0D01*
G01*
G37*
G36*
G01*
X192549999Y-116450000D02*
X193450001Y-116450000D01*
G75*
G02*
X193700000Y-116699999I0J-249999D01*
G01*
X193700000Y-117350001D01*
G75*
G02*
X193450001Y-117600000I-249999J0D01*
G01*
X192549999Y-117600000D01*
G75*
G02*
X192300000Y-117350001I0J249999D01*
G01*
X192300000Y-116699999D01*
G75*
G02*
X192549999Y-116450000I249999J0D01*
G01*
G37*
G36*
G01*
X192549999Y-114400000D02*
X193450001Y-114400000D01*
G75*
G02*
X193700000Y-114649999I0J-249999D01*
G01*
X193700000Y-115300001D01*
G75*
G02*
X193450001Y-115550000I-249999J0D01*
G01*
X192549999Y-115550000D01*
G75*
G02*
X192300000Y-115300001I0J249999D01*
G01*
X192300000Y-114649999D01*
G75*
G02*
X192549999Y-114400000I249999J0D01*
G01*
G37*
G36*
G01*
X47549999Y-116450000D02*
X48450001Y-116450000D01*
G75*
G02*
X48700000Y-116699999I0J-249999D01*
G01*
X48700000Y-117350001D01*
G75*
G02*
X48450001Y-117600000I-249999J0D01*
G01*
X47549999Y-117600000D01*
G75*
G02*
X47300000Y-117350001I0J249999D01*
G01*
X47300000Y-116699999D01*
G75*
G02*
X47549999Y-116450000I249999J0D01*
G01*
G37*
G36*
G01*
X47549999Y-114400000D02*
X48450001Y-114400000D01*
G75*
G02*
X48700000Y-114649999I0J-249999D01*
G01*
X48700000Y-115300001D01*
G75*
G02*
X48450001Y-115550000I-249999J0D01*
G01*
X47549999Y-115550000D01*
G75*
G02*
X47300000Y-115300001I0J249999D01*
G01*
X47300000Y-114649999D01*
G75*
G02*
X47549999Y-114400000I249999J0D01*
G01*
G37*
G36*
G01*
X67549999Y-116450000D02*
X68450001Y-116450000D01*
G75*
G02*
X68700000Y-116699999I0J-249999D01*
G01*
X68700000Y-117350001D01*
G75*
G02*
X68450001Y-117600000I-249999J0D01*
G01*
X67549999Y-117600000D01*
G75*
G02*
X67300000Y-117350001I0J249999D01*
G01*
X67300000Y-116699999D01*
G75*
G02*
X67549999Y-116450000I249999J0D01*
G01*
G37*
G36*
G01*
X67549999Y-114400000D02*
X68450001Y-114400000D01*
G75*
G02*
X68700000Y-114649999I0J-249999D01*
G01*
X68700000Y-115300001D01*
G75*
G02*
X68450001Y-115550000I-249999J0D01*
G01*
X67549999Y-115550000D01*
G75*
G02*
X67300000Y-115300001I0J249999D01*
G01*
X67300000Y-114649999D01*
G75*
G02*
X67549999Y-114400000I249999J0D01*
G01*
G37*
G36*
G01*
X87549999Y-116450000D02*
X88450001Y-116450000D01*
G75*
G02*
X88700000Y-116699999I0J-249999D01*
G01*
X88700000Y-117350001D01*
G75*
G02*
X88450001Y-117600000I-249999J0D01*
G01*
X87549999Y-117600000D01*
G75*
G02*
X87300000Y-117350001I0J249999D01*
G01*
X87300000Y-116699999D01*
G75*
G02*
X87549999Y-116450000I249999J0D01*
G01*
G37*
G36*
G01*
X87549999Y-114400000D02*
X88450001Y-114400000D01*
G75*
G02*
X88700000Y-114649999I0J-249999D01*
G01*
X88700000Y-115300001D01*
G75*
G02*
X88450001Y-115550000I-249999J0D01*
G01*
X87549999Y-115550000D01*
G75*
G02*
X87300000Y-115300001I0J249999D01*
G01*
X87300000Y-114649999D01*
G75*
G02*
X87549999Y-114400000I249999J0D01*
G01*
G37*
G36*
G01*
X107549999Y-116450000D02*
X108450001Y-116450000D01*
G75*
G02*
X108700000Y-116699999I0J-249999D01*
G01*
X108700000Y-117350001D01*
G75*
G02*
X108450001Y-117600000I-249999J0D01*
G01*
X107549999Y-117600000D01*
G75*
G02*
X107300000Y-117350001I0J249999D01*
G01*
X107300000Y-116699999D01*
G75*
G02*
X107549999Y-116450000I249999J0D01*
G01*
G37*
G36*
G01*
X107549999Y-114400000D02*
X108450001Y-114400000D01*
G75*
G02*
X108700000Y-114649999I0J-249999D01*
G01*
X108700000Y-115300001D01*
G75*
G02*
X108450001Y-115550000I-249999J0D01*
G01*
X107549999Y-115550000D01*
G75*
G02*
X107300000Y-115300001I0J249999D01*
G01*
X107300000Y-114649999D01*
G75*
G02*
X107549999Y-114400000I249999J0D01*
G01*
G37*
G36*
G01*
X127549999Y-116450000D02*
X128450001Y-116450000D01*
G75*
G02*
X128700000Y-116699999I0J-249999D01*
G01*
X128700000Y-117350001D01*
G75*
G02*
X128450001Y-117600000I-249999J0D01*
G01*
X127549999Y-117600000D01*
G75*
G02*
X127300000Y-117350001I0J249999D01*
G01*
X127300000Y-116699999D01*
G75*
G02*
X127549999Y-116450000I249999J0D01*
G01*
G37*
G36*
G01*
X127549999Y-114400000D02*
X128450001Y-114400000D01*
G75*
G02*
X128700000Y-114649999I0J-249999D01*
G01*
X128700000Y-115300001D01*
G75*
G02*
X128450001Y-115550000I-249999J0D01*
G01*
X127549999Y-115550000D01*
G75*
G02*
X127300000Y-115300001I0J249999D01*
G01*
X127300000Y-114649999D01*
G75*
G02*
X127549999Y-114400000I249999J0D01*
G01*
G37*
G36*
G01*
X147549999Y-116450000D02*
X148450001Y-116450000D01*
G75*
G02*
X148700000Y-116699999I0J-249999D01*
G01*
X148700000Y-117350001D01*
G75*
G02*
X148450001Y-117600000I-249999J0D01*
G01*
X147549999Y-117600000D01*
G75*
G02*
X147300000Y-117350001I0J249999D01*
G01*
X147300000Y-116699999D01*
G75*
G02*
X147549999Y-116450000I249999J0D01*
G01*
G37*
G36*
G01*
X147549999Y-114400000D02*
X148450001Y-114400000D01*
G75*
G02*
X148700000Y-114649999I0J-249999D01*
G01*
X148700000Y-115300001D01*
G75*
G02*
X148450001Y-115550000I-249999J0D01*
G01*
X147549999Y-115550000D01*
G75*
G02*
X147300000Y-115300001I0J249999D01*
G01*
X147300000Y-114649999D01*
G75*
G02*
X147549999Y-114400000I249999J0D01*
G01*
G37*
G36*
G01*
X167549999Y-116450000D02*
X168450001Y-116450000D01*
G75*
G02*
X168700000Y-116699999I0J-249999D01*
G01*
X168700000Y-117350001D01*
G75*
G02*
X168450001Y-117600000I-249999J0D01*
G01*
X167549999Y-117600000D01*
G75*
G02*
X167300000Y-117350001I0J249999D01*
G01*
X167300000Y-116699999D01*
G75*
G02*
X167549999Y-116450000I249999J0D01*
G01*
G37*
G36*
G01*
X167549999Y-114400000D02*
X168450001Y-114400000D01*
G75*
G02*
X168700000Y-114649999I0J-249999D01*
G01*
X168700000Y-115300001D01*
G75*
G02*
X168450001Y-115550000I-249999J0D01*
G01*
X167549999Y-115550000D01*
G75*
G02*
X167300000Y-115300001I0J249999D01*
G01*
X167300000Y-114649999D01*
G75*
G02*
X167549999Y-114400000I249999J0D01*
G01*
G37*
G36*
G01*
X187549999Y-116450000D02*
X188450001Y-116450000D01*
G75*
G02*
X188700000Y-116699999I0J-249999D01*
G01*
X188700000Y-117350001D01*
G75*
G02*
X188450001Y-117600000I-249999J0D01*
G01*
X187549999Y-117600000D01*
G75*
G02*
X187300000Y-117350001I0J249999D01*
G01*
X187300000Y-116699999D01*
G75*
G02*
X187549999Y-116450000I249999J0D01*
G01*
G37*
G36*
G01*
X187549999Y-114400000D02*
X188450001Y-114400000D01*
G75*
G02*
X188700000Y-114649999I0J-249999D01*
G01*
X188700000Y-115300001D01*
G75*
G02*
X188450001Y-115550000I-249999J0D01*
G01*
X187549999Y-115550000D01*
G75*
G02*
X187300000Y-115300001I0J249999D01*
G01*
X187300000Y-114649999D01*
G75*
G02*
X187549999Y-114400000I249999J0D01*
G01*
G37*
G36*
G01*
X222549999Y-116450000D02*
X223450001Y-116450000D01*
G75*
G02*
X223700000Y-116699999I0J-249999D01*
G01*
X223700000Y-117350001D01*
G75*
G02*
X223450001Y-117600000I-249999J0D01*
G01*
X222549999Y-117600000D01*
G75*
G02*
X222300000Y-117350001I0J249999D01*
G01*
X222300000Y-116699999D01*
G75*
G02*
X222549999Y-116450000I249999J0D01*
G01*
G37*
G36*
G01*
X222549999Y-114400000D02*
X223450001Y-114400000D01*
G75*
G02*
X223700000Y-114649999I0J-249999D01*
G01*
X223700000Y-115300001D01*
G75*
G02*
X223450001Y-115550000I-249999J0D01*
G01*
X222549999Y-115550000D01*
G75*
G02*
X222300000Y-115300001I0J249999D01*
G01*
X222300000Y-114649999D01*
G75*
G02*
X222549999Y-114400000I249999J0D01*
G01*
G37*
G36*
G01*
X242549999Y-116450000D02*
X243450001Y-116450000D01*
G75*
G02*
X243700000Y-116699999I0J-249999D01*
G01*
X243700000Y-117350001D01*
G75*
G02*
X243450001Y-117600000I-249999J0D01*
G01*
X242549999Y-117600000D01*
G75*
G02*
X242300000Y-117350001I0J249999D01*
G01*
X242300000Y-116699999D01*
G75*
G02*
X242549999Y-116450000I249999J0D01*
G01*
G37*
G36*
G01*
X242549999Y-114400000D02*
X243450001Y-114400000D01*
G75*
G02*
X243700000Y-114649999I0J-249999D01*
G01*
X243700000Y-115300001D01*
G75*
G02*
X243450001Y-115550000I-249999J0D01*
G01*
X242549999Y-115550000D01*
G75*
G02*
X242300000Y-115300001I0J249999D01*
G01*
X242300000Y-114649999D01*
G75*
G02*
X242549999Y-114400000I249999J0D01*
G01*
G37*
G36*
G01*
X262549999Y-116450000D02*
X263450001Y-116450000D01*
G75*
G02*
X263700000Y-116699999I0J-249999D01*
G01*
X263700000Y-117350001D01*
G75*
G02*
X263450001Y-117600000I-249999J0D01*
G01*
X262549999Y-117600000D01*
G75*
G02*
X262300000Y-117350001I0J249999D01*
G01*
X262300000Y-116699999D01*
G75*
G02*
X262549999Y-116450000I249999J0D01*
G01*
G37*
G36*
G01*
X262549999Y-114400000D02*
X263450001Y-114400000D01*
G75*
G02*
X263700000Y-114649999I0J-249999D01*
G01*
X263700000Y-115300001D01*
G75*
G02*
X263450001Y-115550000I-249999J0D01*
G01*
X262549999Y-115550000D01*
G75*
G02*
X262300000Y-115300001I0J249999D01*
G01*
X262300000Y-114649999D01*
G75*
G02*
X262549999Y-114400000I249999J0D01*
G01*
G37*
G36*
G01*
X282549999Y-116450000D02*
X283450001Y-116450000D01*
G75*
G02*
X283700000Y-116699999I0J-249999D01*
G01*
X283700000Y-117350001D01*
G75*
G02*
X283450001Y-117600000I-249999J0D01*
G01*
X282549999Y-117600000D01*
G75*
G02*
X282300000Y-117350001I0J249999D01*
G01*
X282300000Y-116699999D01*
G75*
G02*
X282549999Y-116450000I249999J0D01*
G01*
G37*
G36*
G01*
X282549999Y-114400000D02*
X283450001Y-114400000D01*
G75*
G02*
X283700000Y-114649999I0J-249999D01*
G01*
X283700000Y-115300001D01*
G75*
G02*
X283450001Y-115550000I-249999J0D01*
G01*
X282549999Y-115550000D01*
G75*
G02*
X282300000Y-115300001I0J249999D01*
G01*
X282300000Y-114649999D01*
G75*
G02*
X282549999Y-114400000I249999J0D01*
G01*
G37*
G36*
G01*
X302549999Y-116450000D02*
X303450001Y-116450000D01*
G75*
G02*
X303700000Y-116699999I0J-249999D01*
G01*
X303700000Y-117350001D01*
G75*
G02*
X303450001Y-117600000I-249999J0D01*
G01*
X302549999Y-117600000D01*
G75*
G02*
X302300000Y-117350001I0J249999D01*
G01*
X302300000Y-116699999D01*
G75*
G02*
X302549999Y-116450000I249999J0D01*
G01*
G37*
G36*
G01*
X302549999Y-114400000D02*
X303450001Y-114400000D01*
G75*
G02*
X303700000Y-114649999I0J-249999D01*
G01*
X303700000Y-115300001D01*
G75*
G02*
X303450001Y-115550000I-249999J0D01*
G01*
X302549999Y-115550000D01*
G75*
G02*
X302300000Y-115300001I0J249999D01*
G01*
X302300000Y-114649999D01*
G75*
G02*
X302549999Y-114400000I249999J0D01*
G01*
G37*
G36*
G01*
X322549999Y-116450000D02*
X323450001Y-116450000D01*
G75*
G02*
X323700000Y-116699999I0J-249999D01*
G01*
X323700000Y-117350001D01*
G75*
G02*
X323450001Y-117600000I-249999J0D01*
G01*
X322549999Y-117600000D01*
G75*
G02*
X322300000Y-117350001I0J249999D01*
G01*
X322300000Y-116699999D01*
G75*
G02*
X322549999Y-116450000I249999J0D01*
G01*
G37*
G36*
G01*
X322549999Y-114400000D02*
X323450001Y-114400000D01*
G75*
G02*
X323700000Y-114649999I0J-249999D01*
G01*
X323700000Y-115300001D01*
G75*
G02*
X323450001Y-115550000I-249999J0D01*
G01*
X322549999Y-115550000D01*
G75*
G02*
X322300000Y-115300001I0J249999D01*
G01*
X322300000Y-114649999D01*
G75*
G02*
X322549999Y-114400000I249999J0D01*
G01*
G37*
G36*
G01*
X342549999Y-116450000D02*
X343450001Y-116450000D01*
G75*
G02*
X343700000Y-116699999I0J-249999D01*
G01*
X343700000Y-117350001D01*
G75*
G02*
X343450001Y-117600000I-249999J0D01*
G01*
X342549999Y-117600000D01*
G75*
G02*
X342300000Y-117350001I0J249999D01*
G01*
X342300000Y-116699999D01*
G75*
G02*
X342549999Y-116450000I249999J0D01*
G01*
G37*
G36*
G01*
X342549999Y-114400000D02*
X343450001Y-114400000D01*
G75*
G02*
X343700000Y-114649999I0J-249999D01*
G01*
X343700000Y-115300001D01*
G75*
G02*
X343450001Y-115550000I-249999J0D01*
G01*
X342549999Y-115550000D01*
G75*
G02*
X342300000Y-115300001I0J249999D01*
G01*
X342300000Y-114649999D01*
G75*
G02*
X342549999Y-114400000I249999J0D01*
G01*
G37*
G36*
G01*
X362549999Y-116450000D02*
X363450001Y-116450000D01*
G75*
G02*
X363700000Y-116699999I0J-249999D01*
G01*
X363700000Y-117350001D01*
G75*
G02*
X363450001Y-117600000I-249999J0D01*
G01*
X362549999Y-117600000D01*
G75*
G02*
X362300000Y-117350001I0J249999D01*
G01*
X362300000Y-116699999D01*
G75*
G02*
X362549999Y-116450000I249999J0D01*
G01*
G37*
G36*
G01*
X362549999Y-114400000D02*
X363450001Y-114400000D01*
G75*
G02*
X363700000Y-114649999I0J-249999D01*
G01*
X363700000Y-115300001D01*
G75*
G02*
X363450001Y-115550000I-249999J0D01*
G01*
X362549999Y-115550000D01*
G75*
G02*
X362300000Y-115300001I0J249999D01*
G01*
X362300000Y-114649999D01*
G75*
G02*
X362549999Y-114400000I249999J0D01*
G01*
G37*
G36*
G01*
X217549999Y-116450000D02*
X218450001Y-116450000D01*
G75*
G02*
X218700000Y-116699999I0J-249999D01*
G01*
X218700000Y-117350001D01*
G75*
G02*
X218450001Y-117600000I-249999J0D01*
G01*
X217549999Y-117600000D01*
G75*
G02*
X217300000Y-117350001I0J249999D01*
G01*
X217300000Y-116699999D01*
G75*
G02*
X217549999Y-116450000I249999J0D01*
G01*
G37*
G36*
G01*
X217549999Y-114400000D02*
X218450001Y-114400000D01*
G75*
G02*
X218700000Y-114649999I0J-249999D01*
G01*
X218700000Y-115300001D01*
G75*
G02*
X218450001Y-115550000I-249999J0D01*
G01*
X217549999Y-115550000D01*
G75*
G02*
X217300000Y-115300001I0J249999D01*
G01*
X217300000Y-114649999D01*
G75*
G02*
X217549999Y-114400000I249999J0D01*
G01*
G37*
G36*
G01*
X237549999Y-116450000D02*
X238450001Y-116450000D01*
G75*
G02*
X238700000Y-116699999I0J-249999D01*
G01*
X238700000Y-117350001D01*
G75*
G02*
X238450001Y-117600000I-249999J0D01*
G01*
X237549999Y-117600000D01*
G75*
G02*
X237300000Y-117350001I0J249999D01*
G01*
X237300000Y-116699999D01*
G75*
G02*
X237549999Y-116450000I249999J0D01*
G01*
G37*
G36*
G01*
X237549999Y-114400000D02*
X238450001Y-114400000D01*
G75*
G02*
X238700000Y-114649999I0J-249999D01*
G01*
X238700000Y-115300001D01*
G75*
G02*
X238450001Y-115550000I-249999J0D01*
G01*
X237549999Y-115550000D01*
G75*
G02*
X237300000Y-115300001I0J249999D01*
G01*
X237300000Y-114649999D01*
G75*
G02*
X237549999Y-114400000I249999J0D01*
G01*
G37*
G36*
G01*
X257549999Y-116450000D02*
X258450001Y-116450000D01*
G75*
G02*
X258700000Y-116699999I0J-249999D01*
G01*
X258700000Y-117350001D01*
G75*
G02*
X258450001Y-117600000I-249999J0D01*
G01*
X257549999Y-117600000D01*
G75*
G02*
X257300000Y-117350001I0J249999D01*
G01*
X257300000Y-116699999D01*
G75*
G02*
X257549999Y-116450000I249999J0D01*
G01*
G37*
G36*
G01*
X257549999Y-114400000D02*
X258450001Y-114400000D01*
G75*
G02*
X258700000Y-114649999I0J-249999D01*
G01*
X258700000Y-115300001D01*
G75*
G02*
X258450001Y-115550000I-249999J0D01*
G01*
X257549999Y-115550000D01*
G75*
G02*
X257300000Y-115300001I0J249999D01*
G01*
X257300000Y-114649999D01*
G75*
G02*
X257549999Y-114400000I249999J0D01*
G01*
G37*
G36*
G01*
X277549999Y-116450000D02*
X278450001Y-116450000D01*
G75*
G02*
X278700000Y-116699999I0J-249999D01*
G01*
X278700000Y-117350001D01*
G75*
G02*
X278450001Y-117600000I-249999J0D01*
G01*
X277549999Y-117600000D01*
G75*
G02*
X277300000Y-117350001I0J249999D01*
G01*
X277300000Y-116699999D01*
G75*
G02*
X277549999Y-116450000I249999J0D01*
G01*
G37*
G36*
G01*
X277549999Y-114400000D02*
X278450001Y-114400000D01*
G75*
G02*
X278700000Y-114649999I0J-249999D01*
G01*
X278700000Y-115300001D01*
G75*
G02*
X278450001Y-115550000I-249999J0D01*
G01*
X277549999Y-115550000D01*
G75*
G02*
X277300000Y-115300001I0J249999D01*
G01*
X277300000Y-114649999D01*
G75*
G02*
X277549999Y-114400000I249999J0D01*
G01*
G37*
G36*
G01*
X297549999Y-116450000D02*
X298450001Y-116450000D01*
G75*
G02*
X298700000Y-116699999I0J-249999D01*
G01*
X298700000Y-117350001D01*
G75*
G02*
X298450001Y-117600000I-249999J0D01*
G01*
X297549999Y-117600000D01*
G75*
G02*
X297300000Y-117350001I0J249999D01*
G01*
X297300000Y-116699999D01*
G75*
G02*
X297549999Y-116450000I249999J0D01*
G01*
G37*
G36*
G01*
X297549999Y-114400000D02*
X298450001Y-114400000D01*
G75*
G02*
X298700000Y-114649999I0J-249999D01*
G01*
X298700000Y-115300001D01*
G75*
G02*
X298450001Y-115550000I-249999J0D01*
G01*
X297549999Y-115550000D01*
G75*
G02*
X297300000Y-115300001I0J249999D01*
G01*
X297300000Y-114649999D01*
G75*
G02*
X297549999Y-114400000I249999J0D01*
G01*
G37*
G36*
G01*
X317549999Y-116450000D02*
X318450001Y-116450000D01*
G75*
G02*
X318700000Y-116699999I0J-249999D01*
G01*
X318700000Y-117350001D01*
G75*
G02*
X318450001Y-117600000I-249999J0D01*
G01*
X317549999Y-117600000D01*
G75*
G02*
X317300000Y-117350001I0J249999D01*
G01*
X317300000Y-116699999D01*
G75*
G02*
X317549999Y-116450000I249999J0D01*
G01*
G37*
G36*
G01*
X317549999Y-114400000D02*
X318450001Y-114400000D01*
G75*
G02*
X318700000Y-114649999I0J-249999D01*
G01*
X318700000Y-115300001D01*
G75*
G02*
X318450001Y-115550000I-249999J0D01*
G01*
X317549999Y-115550000D01*
G75*
G02*
X317300000Y-115300001I0J249999D01*
G01*
X317300000Y-114649999D01*
G75*
G02*
X317549999Y-114400000I249999J0D01*
G01*
G37*
G36*
G01*
X337549999Y-116450000D02*
X338450001Y-116450000D01*
G75*
G02*
X338700000Y-116699999I0J-249999D01*
G01*
X338700000Y-117350001D01*
G75*
G02*
X338450001Y-117600000I-249999J0D01*
G01*
X337549999Y-117600000D01*
G75*
G02*
X337300000Y-117350001I0J249999D01*
G01*
X337300000Y-116699999D01*
G75*
G02*
X337549999Y-116450000I249999J0D01*
G01*
G37*
G36*
G01*
X337549999Y-114400000D02*
X338450001Y-114400000D01*
G75*
G02*
X338700000Y-114649999I0J-249999D01*
G01*
X338700000Y-115300001D01*
G75*
G02*
X338450001Y-115550000I-249999J0D01*
G01*
X337549999Y-115550000D01*
G75*
G02*
X337300000Y-115300001I0J249999D01*
G01*
X337300000Y-114649999D01*
G75*
G02*
X337549999Y-114400000I249999J0D01*
G01*
G37*
G36*
G01*
X357549999Y-116450000D02*
X358450001Y-116450000D01*
G75*
G02*
X358700000Y-116699999I0J-249999D01*
G01*
X358700000Y-117350001D01*
G75*
G02*
X358450001Y-117600000I-249999J0D01*
G01*
X357549999Y-117600000D01*
G75*
G02*
X357300000Y-117350001I0J249999D01*
G01*
X357300000Y-116699999D01*
G75*
G02*
X357549999Y-116450000I249999J0D01*
G01*
G37*
G36*
G01*
X357549999Y-114400000D02*
X358450001Y-114400000D01*
G75*
G02*
X358700000Y-114649999I0J-249999D01*
G01*
X358700000Y-115300001D01*
G75*
G02*
X358450001Y-115550000I-249999J0D01*
G01*
X357549999Y-115550000D01*
G75*
G02*
X357300000Y-115300001I0J249999D01*
G01*
X357300000Y-114649999D01*
G75*
G02*
X357549999Y-114400000I249999J0D01*
G01*
G37*
G36*
G01*
X212549999Y-116450000D02*
X213450001Y-116450000D01*
G75*
G02*
X213700000Y-116699999I0J-249999D01*
G01*
X213700000Y-117350001D01*
G75*
G02*
X213450001Y-117600000I-249999J0D01*
G01*
X212549999Y-117600000D01*
G75*
G02*
X212300000Y-117350001I0J249999D01*
G01*
X212300000Y-116699999D01*
G75*
G02*
X212549999Y-116450000I249999J0D01*
G01*
G37*
G36*
G01*
X212549999Y-114400000D02*
X213450001Y-114400000D01*
G75*
G02*
X213700000Y-114649999I0J-249999D01*
G01*
X213700000Y-115300001D01*
G75*
G02*
X213450001Y-115550000I-249999J0D01*
G01*
X212549999Y-115550000D01*
G75*
G02*
X212300000Y-115300001I0J249999D01*
G01*
X212300000Y-114649999D01*
G75*
G02*
X212549999Y-114400000I249999J0D01*
G01*
G37*
G36*
G01*
X232549999Y-116450000D02*
X233450001Y-116450000D01*
G75*
G02*
X233700000Y-116699999I0J-249999D01*
G01*
X233700000Y-117350001D01*
G75*
G02*
X233450001Y-117600000I-249999J0D01*
G01*
X232549999Y-117600000D01*
G75*
G02*
X232300000Y-117350001I0J249999D01*
G01*
X232300000Y-116699999D01*
G75*
G02*
X232549999Y-116450000I249999J0D01*
G01*
G37*
G36*
G01*
X232549999Y-114400000D02*
X233450001Y-114400000D01*
G75*
G02*
X233700000Y-114649999I0J-249999D01*
G01*
X233700000Y-115300001D01*
G75*
G02*
X233450001Y-115550000I-249999J0D01*
G01*
X232549999Y-115550000D01*
G75*
G02*
X232300000Y-115300001I0J249999D01*
G01*
X232300000Y-114649999D01*
G75*
G02*
X232549999Y-114400000I249999J0D01*
G01*
G37*
G36*
G01*
X252549999Y-116450000D02*
X253450001Y-116450000D01*
G75*
G02*
X253700000Y-116699999I0J-249999D01*
G01*
X253700000Y-117350001D01*
G75*
G02*
X253450001Y-117600000I-249999J0D01*
G01*
X252549999Y-117600000D01*
G75*
G02*
X252300000Y-117350001I0J249999D01*
G01*
X252300000Y-116699999D01*
G75*
G02*
X252549999Y-116450000I249999J0D01*
G01*
G37*
G36*
G01*
X252549999Y-114400000D02*
X253450001Y-114400000D01*
G75*
G02*
X253700000Y-114649999I0J-249999D01*
G01*
X253700000Y-115300001D01*
G75*
G02*
X253450001Y-115550000I-249999J0D01*
G01*
X252549999Y-115550000D01*
G75*
G02*
X252300000Y-115300001I0J249999D01*
G01*
X252300000Y-114649999D01*
G75*
G02*
X252549999Y-114400000I249999J0D01*
G01*
G37*
G36*
G01*
X272549999Y-116450000D02*
X273450001Y-116450000D01*
G75*
G02*
X273700000Y-116699999I0J-249999D01*
G01*
X273700000Y-117350001D01*
G75*
G02*
X273450001Y-117600000I-249999J0D01*
G01*
X272549999Y-117600000D01*
G75*
G02*
X272300000Y-117350001I0J249999D01*
G01*
X272300000Y-116699999D01*
G75*
G02*
X272549999Y-116450000I249999J0D01*
G01*
G37*
G36*
G01*
X272549999Y-114400000D02*
X273450001Y-114400000D01*
G75*
G02*
X273700000Y-114649999I0J-249999D01*
G01*
X273700000Y-115300001D01*
G75*
G02*
X273450001Y-115550000I-249999J0D01*
G01*
X272549999Y-115550000D01*
G75*
G02*
X272300000Y-115300001I0J249999D01*
G01*
X272300000Y-114649999D01*
G75*
G02*
X272549999Y-114400000I249999J0D01*
G01*
G37*
G36*
G01*
X292549999Y-116450000D02*
X293450001Y-116450000D01*
G75*
G02*
X293700000Y-116699999I0J-249999D01*
G01*
X293700000Y-117350001D01*
G75*
G02*
X293450001Y-117600000I-249999J0D01*
G01*
X292549999Y-117600000D01*
G75*
G02*
X292300000Y-117350001I0J249999D01*
G01*
X292300000Y-116699999D01*
G75*
G02*
X292549999Y-116450000I249999J0D01*
G01*
G37*
G36*
G01*
X292549999Y-114400000D02*
X293450001Y-114400000D01*
G75*
G02*
X293700000Y-114649999I0J-249999D01*
G01*
X293700000Y-115300001D01*
G75*
G02*
X293450001Y-115550000I-249999J0D01*
G01*
X292549999Y-115550000D01*
G75*
G02*
X292300000Y-115300001I0J249999D01*
G01*
X292300000Y-114649999D01*
G75*
G02*
X292549999Y-114400000I249999J0D01*
G01*
G37*
G36*
G01*
X312549999Y-116450000D02*
X313450001Y-116450000D01*
G75*
G02*
X313700000Y-116699999I0J-249999D01*
G01*
X313700000Y-117350001D01*
G75*
G02*
X313450001Y-117600000I-249999J0D01*
G01*
X312549999Y-117600000D01*
G75*
G02*
X312300000Y-117350001I0J249999D01*
G01*
X312300000Y-116699999D01*
G75*
G02*
X312549999Y-116450000I249999J0D01*
G01*
G37*
G36*
G01*
X312549999Y-114400000D02*
X313450001Y-114400000D01*
G75*
G02*
X313700000Y-114649999I0J-249999D01*
G01*
X313700000Y-115300001D01*
G75*
G02*
X313450001Y-115550000I-249999J0D01*
G01*
X312549999Y-115550000D01*
G75*
G02*
X312300000Y-115300001I0J249999D01*
G01*
X312300000Y-114649999D01*
G75*
G02*
X312549999Y-114400000I249999J0D01*
G01*
G37*
G36*
G01*
X332549999Y-116450000D02*
X333450001Y-116450000D01*
G75*
G02*
X333700000Y-116699999I0J-249999D01*
G01*
X333700000Y-117350001D01*
G75*
G02*
X333450001Y-117600000I-249999J0D01*
G01*
X332549999Y-117600000D01*
G75*
G02*
X332300000Y-117350001I0J249999D01*
G01*
X332300000Y-116699999D01*
G75*
G02*
X332549999Y-116450000I249999J0D01*
G01*
G37*
G36*
G01*
X332549999Y-114400000D02*
X333450001Y-114400000D01*
G75*
G02*
X333700000Y-114649999I0J-249999D01*
G01*
X333700000Y-115300001D01*
G75*
G02*
X333450001Y-115550000I-249999J0D01*
G01*
X332549999Y-115550000D01*
G75*
G02*
X332300000Y-115300001I0J249999D01*
G01*
X332300000Y-114649999D01*
G75*
G02*
X332549999Y-114400000I249999J0D01*
G01*
G37*
G36*
G01*
X352549999Y-116450000D02*
X353450001Y-116450000D01*
G75*
G02*
X353700000Y-116699999I0J-249999D01*
G01*
X353700000Y-117350001D01*
G75*
G02*
X353450001Y-117600000I-249999J0D01*
G01*
X352549999Y-117600000D01*
G75*
G02*
X352300000Y-117350001I0J249999D01*
G01*
X352300000Y-116699999D01*
G75*
G02*
X352549999Y-116450000I249999J0D01*
G01*
G37*
G36*
G01*
X352549999Y-114400000D02*
X353450001Y-114400000D01*
G75*
G02*
X353700000Y-114649999I0J-249999D01*
G01*
X353700000Y-115300001D01*
G75*
G02*
X353450001Y-115550000I-249999J0D01*
G01*
X352549999Y-115550000D01*
G75*
G02*
X352300000Y-115300001I0J249999D01*
G01*
X352300000Y-114649999D01*
G75*
G02*
X352549999Y-114400000I249999J0D01*
G01*
G37*
G36*
G01*
X207549999Y-116450000D02*
X208450001Y-116450000D01*
G75*
G02*
X208700000Y-116699999I0J-249999D01*
G01*
X208700000Y-117350001D01*
G75*
G02*
X208450001Y-117600000I-249999J0D01*
G01*
X207549999Y-117600000D01*
G75*
G02*
X207300000Y-117350001I0J249999D01*
G01*
X207300000Y-116699999D01*
G75*
G02*
X207549999Y-116450000I249999J0D01*
G01*
G37*
G36*
G01*
X207549999Y-114400000D02*
X208450001Y-114400000D01*
G75*
G02*
X208700000Y-114649999I0J-249999D01*
G01*
X208700000Y-115300001D01*
G75*
G02*
X208450001Y-115550000I-249999J0D01*
G01*
X207549999Y-115550000D01*
G75*
G02*
X207300000Y-115300001I0J249999D01*
G01*
X207300000Y-114649999D01*
G75*
G02*
X207549999Y-114400000I249999J0D01*
G01*
G37*
G36*
G01*
X227549999Y-116450000D02*
X228450001Y-116450000D01*
G75*
G02*
X228700000Y-116699999I0J-249999D01*
G01*
X228700000Y-117350001D01*
G75*
G02*
X228450001Y-117600000I-249999J0D01*
G01*
X227549999Y-117600000D01*
G75*
G02*
X227300000Y-117350001I0J249999D01*
G01*
X227300000Y-116699999D01*
G75*
G02*
X227549999Y-116450000I249999J0D01*
G01*
G37*
G36*
G01*
X227549999Y-114400000D02*
X228450001Y-114400000D01*
G75*
G02*
X228700000Y-114649999I0J-249999D01*
G01*
X228700000Y-115300001D01*
G75*
G02*
X228450001Y-115550000I-249999J0D01*
G01*
X227549999Y-115550000D01*
G75*
G02*
X227300000Y-115300001I0J249999D01*
G01*
X227300000Y-114649999D01*
G75*
G02*
X227549999Y-114400000I249999J0D01*
G01*
G37*
G36*
G01*
X247549999Y-116450000D02*
X248450001Y-116450000D01*
G75*
G02*
X248700000Y-116699999I0J-249999D01*
G01*
X248700000Y-117350001D01*
G75*
G02*
X248450001Y-117600000I-249999J0D01*
G01*
X247549999Y-117600000D01*
G75*
G02*
X247300000Y-117350001I0J249999D01*
G01*
X247300000Y-116699999D01*
G75*
G02*
X247549999Y-116450000I249999J0D01*
G01*
G37*
G36*
G01*
X247549999Y-114400000D02*
X248450001Y-114400000D01*
G75*
G02*
X248700000Y-114649999I0J-249999D01*
G01*
X248700000Y-115300001D01*
G75*
G02*
X248450001Y-115550000I-249999J0D01*
G01*
X247549999Y-115550000D01*
G75*
G02*
X247300000Y-115300001I0J249999D01*
G01*
X247300000Y-114649999D01*
G75*
G02*
X247549999Y-114400000I249999J0D01*
G01*
G37*
G36*
G01*
X267549999Y-116450000D02*
X268450001Y-116450000D01*
G75*
G02*
X268700000Y-116699999I0J-249999D01*
G01*
X268700000Y-117350001D01*
G75*
G02*
X268450001Y-117600000I-249999J0D01*
G01*
X267549999Y-117600000D01*
G75*
G02*
X267300000Y-117350001I0J249999D01*
G01*
X267300000Y-116699999D01*
G75*
G02*
X267549999Y-116450000I249999J0D01*
G01*
G37*
G36*
G01*
X267549999Y-114400000D02*
X268450001Y-114400000D01*
G75*
G02*
X268700000Y-114649999I0J-249999D01*
G01*
X268700000Y-115300001D01*
G75*
G02*
X268450001Y-115550000I-249999J0D01*
G01*
X267549999Y-115550000D01*
G75*
G02*
X267300000Y-115300001I0J249999D01*
G01*
X267300000Y-114649999D01*
G75*
G02*
X267549999Y-114400000I249999J0D01*
G01*
G37*
G36*
G01*
X287549999Y-116450000D02*
X288450001Y-116450000D01*
G75*
G02*
X288700000Y-116699999I0J-249999D01*
G01*
X288700000Y-117350001D01*
G75*
G02*
X288450001Y-117600000I-249999J0D01*
G01*
X287549999Y-117600000D01*
G75*
G02*
X287300000Y-117350001I0J249999D01*
G01*
X287300000Y-116699999D01*
G75*
G02*
X287549999Y-116450000I249999J0D01*
G01*
G37*
G36*
G01*
X287549999Y-114400000D02*
X288450001Y-114400000D01*
G75*
G02*
X288700000Y-114649999I0J-249999D01*
G01*
X288700000Y-115300001D01*
G75*
G02*
X288450001Y-115550000I-249999J0D01*
G01*
X287549999Y-115550000D01*
G75*
G02*
X287300000Y-115300001I0J249999D01*
G01*
X287300000Y-114649999D01*
G75*
G02*
X287549999Y-114400000I249999J0D01*
G01*
G37*
G36*
G01*
X307549999Y-116450000D02*
X308450001Y-116450000D01*
G75*
G02*
X308700000Y-116699999I0J-249999D01*
G01*
X308700000Y-117350001D01*
G75*
G02*
X308450001Y-117600000I-249999J0D01*
G01*
X307549999Y-117600000D01*
G75*
G02*
X307300000Y-117350001I0J249999D01*
G01*
X307300000Y-116699999D01*
G75*
G02*
X307549999Y-116450000I249999J0D01*
G01*
G37*
G36*
G01*
X307549999Y-114400000D02*
X308450001Y-114400000D01*
G75*
G02*
X308700000Y-114649999I0J-249999D01*
G01*
X308700000Y-115300001D01*
G75*
G02*
X308450001Y-115550000I-249999J0D01*
G01*
X307549999Y-115550000D01*
G75*
G02*
X307300000Y-115300001I0J249999D01*
G01*
X307300000Y-114649999D01*
G75*
G02*
X307549999Y-114400000I249999J0D01*
G01*
G37*
G36*
G01*
X327549999Y-116450000D02*
X328450001Y-116450000D01*
G75*
G02*
X328700000Y-116699999I0J-249999D01*
G01*
X328700000Y-117350001D01*
G75*
G02*
X328450001Y-117600000I-249999J0D01*
G01*
X327549999Y-117600000D01*
G75*
G02*
X327300000Y-117350001I0J249999D01*
G01*
X327300000Y-116699999D01*
G75*
G02*
X327549999Y-116450000I249999J0D01*
G01*
G37*
G36*
G01*
X327549999Y-114400000D02*
X328450001Y-114400000D01*
G75*
G02*
X328700000Y-114649999I0J-249999D01*
G01*
X328700000Y-115300001D01*
G75*
G02*
X328450001Y-115550000I-249999J0D01*
G01*
X327549999Y-115550000D01*
G75*
G02*
X327300000Y-115300001I0J249999D01*
G01*
X327300000Y-114649999D01*
G75*
G02*
X327549999Y-114400000I249999J0D01*
G01*
G37*
G36*
G01*
X347549999Y-116450000D02*
X348450001Y-116450000D01*
G75*
G02*
X348700000Y-116699999I0J-249999D01*
G01*
X348700000Y-117350001D01*
G75*
G02*
X348450001Y-117600000I-249999J0D01*
G01*
X347549999Y-117600000D01*
G75*
G02*
X347300000Y-117350001I0J249999D01*
G01*
X347300000Y-116699999D01*
G75*
G02*
X347549999Y-116450000I249999J0D01*
G01*
G37*
G36*
G01*
X347549999Y-114400000D02*
X348450001Y-114400000D01*
G75*
G02*
X348700000Y-114649999I0J-249999D01*
G01*
X348700000Y-115300001D01*
G75*
G02*
X348450001Y-115550000I-249999J0D01*
G01*
X347549999Y-115550000D01*
G75*
G02*
X347300000Y-115300001I0J249999D01*
G01*
X347300000Y-114649999D01*
G75*
G02*
X347549999Y-114400000I249999J0D01*
G01*
G37*
G36*
G01*
X62549999Y-156450000D02*
X63450001Y-156450000D01*
G75*
G02*
X63700000Y-156699999I0J-249999D01*
G01*
X63700000Y-157350001D01*
G75*
G02*
X63450001Y-157600000I-249999J0D01*
G01*
X62549999Y-157600000D01*
G75*
G02*
X62300000Y-157350001I0J249999D01*
G01*
X62300000Y-156699999D01*
G75*
G02*
X62549999Y-156450000I249999J0D01*
G01*
G37*
G36*
G01*
X62549999Y-154400000D02*
X63450001Y-154400000D01*
G75*
G02*
X63700000Y-154649999I0J-249999D01*
G01*
X63700000Y-155300001D01*
G75*
G02*
X63450001Y-155550000I-249999J0D01*
G01*
X62549999Y-155550000D01*
G75*
G02*
X62300000Y-155300001I0J249999D01*
G01*
X62300000Y-154649999D01*
G75*
G02*
X62549999Y-154400000I249999J0D01*
G01*
G37*
G36*
G01*
X82549999Y-156450000D02*
X83450001Y-156450000D01*
G75*
G02*
X83700000Y-156699999I0J-249999D01*
G01*
X83700000Y-157350001D01*
G75*
G02*
X83450001Y-157600000I-249999J0D01*
G01*
X82549999Y-157600000D01*
G75*
G02*
X82300000Y-157350001I0J249999D01*
G01*
X82300000Y-156699999D01*
G75*
G02*
X82549999Y-156450000I249999J0D01*
G01*
G37*
G36*
G01*
X82549999Y-154400000D02*
X83450001Y-154400000D01*
G75*
G02*
X83700000Y-154649999I0J-249999D01*
G01*
X83700000Y-155300001D01*
G75*
G02*
X83450001Y-155550000I-249999J0D01*
G01*
X82549999Y-155550000D01*
G75*
G02*
X82300000Y-155300001I0J249999D01*
G01*
X82300000Y-154649999D01*
G75*
G02*
X82549999Y-154400000I249999J0D01*
G01*
G37*
G36*
G01*
X102549999Y-156450000D02*
X103450001Y-156450000D01*
G75*
G02*
X103700000Y-156699999I0J-249999D01*
G01*
X103700000Y-157350001D01*
G75*
G02*
X103450001Y-157600000I-249999J0D01*
G01*
X102549999Y-157600000D01*
G75*
G02*
X102300000Y-157350001I0J249999D01*
G01*
X102300000Y-156699999D01*
G75*
G02*
X102549999Y-156450000I249999J0D01*
G01*
G37*
G36*
G01*
X102549999Y-154400000D02*
X103450001Y-154400000D01*
G75*
G02*
X103700000Y-154649999I0J-249999D01*
G01*
X103700000Y-155300001D01*
G75*
G02*
X103450001Y-155550000I-249999J0D01*
G01*
X102549999Y-155550000D01*
G75*
G02*
X102300000Y-155300001I0J249999D01*
G01*
X102300000Y-154649999D01*
G75*
G02*
X102549999Y-154400000I249999J0D01*
G01*
G37*
G36*
G01*
X122549999Y-156450000D02*
X123450001Y-156450000D01*
G75*
G02*
X123700000Y-156699999I0J-249999D01*
G01*
X123700000Y-157350001D01*
G75*
G02*
X123450001Y-157600000I-249999J0D01*
G01*
X122549999Y-157600000D01*
G75*
G02*
X122300000Y-157350001I0J249999D01*
G01*
X122300000Y-156699999D01*
G75*
G02*
X122549999Y-156450000I249999J0D01*
G01*
G37*
G36*
G01*
X122549999Y-154400000D02*
X123450001Y-154400000D01*
G75*
G02*
X123700000Y-154649999I0J-249999D01*
G01*
X123700000Y-155300001D01*
G75*
G02*
X123450001Y-155550000I-249999J0D01*
G01*
X122549999Y-155550000D01*
G75*
G02*
X122300000Y-155300001I0J249999D01*
G01*
X122300000Y-154649999D01*
G75*
G02*
X122549999Y-154400000I249999J0D01*
G01*
G37*
G36*
G01*
X142549999Y-156450000D02*
X143450001Y-156450000D01*
G75*
G02*
X143700000Y-156699999I0J-249999D01*
G01*
X143700000Y-157350001D01*
G75*
G02*
X143450001Y-157600000I-249999J0D01*
G01*
X142549999Y-157600000D01*
G75*
G02*
X142300000Y-157350001I0J249999D01*
G01*
X142300000Y-156699999D01*
G75*
G02*
X142549999Y-156450000I249999J0D01*
G01*
G37*
G36*
G01*
X142549999Y-154400000D02*
X143450001Y-154400000D01*
G75*
G02*
X143700000Y-154649999I0J-249999D01*
G01*
X143700000Y-155300001D01*
G75*
G02*
X143450001Y-155550000I-249999J0D01*
G01*
X142549999Y-155550000D01*
G75*
G02*
X142300000Y-155300001I0J249999D01*
G01*
X142300000Y-154649999D01*
G75*
G02*
X142549999Y-154400000I249999J0D01*
G01*
G37*
G36*
G01*
X162549999Y-156450000D02*
X163450001Y-156450000D01*
G75*
G02*
X163700000Y-156699999I0J-249999D01*
G01*
X163700000Y-157350001D01*
G75*
G02*
X163450001Y-157600000I-249999J0D01*
G01*
X162549999Y-157600000D01*
G75*
G02*
X162300000Y-157350001I0J249999D01*
G01*
X162300000Y-156699999D01*
G75*
G02*
X162549999Y-156450000I249999J0D01*
G01*
G37*
G36*
G01*
X162549999Y-154400000D02*
X163450001Y-154400000D01*
G75*
G02*
X163700000Y-154649999I0J-249999D01*
G01*
X163700000Y-155300001D01*
G75*
G02*
X163450001Y-155550000I-249999J0D01*
G01*
X162549999Y-155550000D01*
G75*
G02*
X162300000Y-155300001I0J249999D01*
G01*
X162300000Y-154649999D01*
G75*
G02*
X162549999Y-154400000I249999J0D01*
G01*
G37*
G36*
G01*
X182549999Y-156450000D02*
X183450001Y-156450000D01*
G75*
G02*
X183700000Y-156699999I0J-249999D01*
G01*
X183700000Y-157350001D01*
G75*
G02*
X183450001Y-157600000I-249999J0D01*
G01*
X182549999Y-157600000D01*
G75*
G02*
X182300000Y-157350001I0J249999D01*
G01*
X182300000Y-156699999D01*
G75*
G02*
X182549999Y-156450000I249999J0D01*
G01*
G37*
G36*
G01*
X182549999Y-154400000D02*
X183450001Y-154400000D01*
G75*
G02*
X183700000Y-154649999I0J-249999D01*
G01*
X183700000Y-155300001D01*
G75*
G02*
X183450001Y-155550000I-249999J0D01*
G01*
X182549999Y-155550000D01*
G75*
G02*
X182300000Y-155300001I0J249999D01*
G01*
X182300000Y-154649999D01*
G75*
G02*
X182549999Y-154400000I249999J0D01*
G01*
G37*
G36*
G01*
X202549999Y-156450000D02*
X203450001Y-156450000D01*
G75*
G02*
X203700000Y-156699999I0J-249999D01*
G01*
X203700000Y-157350001D01*
G75*
G02*
X203450001Y-157600000I-249999J0D01*
G01*
X202549999Y-157600000D01*
G75*
G02*
X202300000Y-157350001I0J249999D01*
G01*
X202300000Y-156699999D01*
G75*
G02*
X202549999Y-156450000I249999J0D01*
G01*
G37*
G36*
G01*
X202549999Y-154400000D02*
X203450001Y-154400000D01*
G75*
G02*
X203700000Y-154649999I0J-249999D01*
G01*
X203700000Y-155300001D01*
G75*
G02*
X203450001Y-155550000I-249999J0D01*
G01*
X202549999Y-155550000D01*
G75*
G02*
X202300000Y-155300001I0J249999D01*
G01*
X202300000Y-154649999D01*
G75*
G02*
X202549999Y-154400000I249999J0D01*
G01*
G37*
G36*
G01*
X57549999Y-156450000D02*
X58450001Y-156450000D01*
G75*
G02*
X58700000Y-156699999I0J-249999D01*
G01*
X58700000Y-157350001D01*
G75*
G02*
X58450001Y-157600000I-249999J0D01*
G01*
X57549999Y-157600000D01*
G75*
G02*
X57300000Y-157350001I0J249999D01*
G01*
X57300000Y-156699999D01*
G75*
G02*
X57549999Y-156450000I249999J0D01*
G01*
G37*
G36*
G01*
X57549999Y-154400000D02*
X58450001Y-154400000D01*
G75*
G02*
X58700000Y-154649999I0J-249999D01*
G01*
X58700000Y-155300001D01*
G75*
G02*
X58450001Y-155550000I-249999J0D01*
G01*
X57549999Y-155550000D01*
G75*
G02*
X57300000Y-155300001I0J249999D01*
G01*
X57300000Y-154649999D01*
G75*
G02*
X57549999Y-154400000I249999J0D01*
G01*
G37*
G36*
G01*
X77549999Y-156450000D02*
X78450001Y-156450000D01*
G75*
G02*
X78700000Y-156699999I0J-249999D01*
G01*
X78700000Y-157350001D01*
G75*
G02*
X78450001Y-157600000I-249999J0D01*
G01*
X77549999Y-157600000D01*
G75*
G02*
X77300000Y-157350001I0J249999D01*
G01*
X77300000Y-156699999D01*
G75*
G02*
X77549999Y-156450000I249999J0D01*
G01*
G37*
G36*
G01*
X77549999Y-154400000D02*
X78450001Y-154400000D01*
G75*
G02*
X78700000Y-154649999I0J-249999D01*
G01*
X78700000Y-155300001D01*
G75*
G02*
X78450001Y-155550000I-249999J0D01*
G01*
X77549999Y-155550000D01*
G75*
G02*
X77300000Y-155300001I0J249999D01*
G01*
X77300000Y-154649999D01*
G75*
G02*
X77549999Y-154400000I249999J0D01*
G01*
G37*
G36*
G01*
X97549999Y-156450000D02*
X98450001Y-156450000D01*
G75*
G02*
X98700000Y-156699999I0J-249999D01*
G01*
X98700000Y-157350001D01*
G75*
G02*
X98450001Y-157600000I-249999J0D01*
G01*
X97549999Y-157600000D01*
G75*
G02*
X97300000Y-157350001I0J249999D01*
G01*
X97300000Y-156699999D01*
G75*
G02*
X97549999Y-156450000I249999J0D01*
G01*
G37*
G36*
G01*
X97549999Y-154400000D02*
X98450001Y-154400000D01*
G75*
G02*
X98700000Y-154649999I0J-249999D01*
G01*
X98700000Y-155300001D01*
G75*
G02*
X98450001Y-155550000I-249999J0D01*
G01*
X97549999Y-155550000D01*
G75*
G02*
X97300000Y-155300001I0J249999D01*
G01*
X97300000Y-154649999D01*
G75*
G02*
X97549999Y-154400000I249999J0D01*
G01*
G37*
G36*
G01*
X117549999Y-156450000D02*
X118450001Y-156450000D01*
G75*
G02*
X118700000Y-156699999I0J-249999D01*
G01*
X118700000Y-157350001D01*
G75*
G02*
X118450001Y-157600000I-249999J0D01*
G01*
X117549999Y-157600000D01*
G75*
G02*
X117300000Y-157350001I0J249999D01*
G01*
X117300000Y-156699999D01*
G75*
G02*
X117549999Y-156450000I249999J0D01*
G01*
G37*
G36*
G01*
X117549999Y-154400000D02*
X118450001Y-154400000D01*
G75*
G02*
X118700000Y-154649999I0J-249999D01*
G01*
X118700000Y-155300001D01*
G75*
G02*
X118450001Y-155550000I-249999J0D01*
G01*
X117549999Y-155550000D01*
G75*
G02*
X117300000Y-155300001I0J249999D01*
G01*
X117300000Y-154649999D01*
G75*
G02*
X117549999Y-154400000I249999J0D01*
G01*
G37*
G36*
G01*
X137549999Y-156450000D02*
X138450001Y-156450000D01*
G75*
G02*
X138700000Y-156699999I0J-249999D01*
G01*
X138700000Y-157350001D01*
G75*
G02*
X138450001Y-157600000I-249999J0D01*
G01*
X137549999Y-157600000D01*
G75*
G02*
X137300000Y-157350001I0J249999D01*
G01*
X137300000Y-156699999D01*
G75*
G02*
X137549999Y-156450000I249999J0D01*
G01*
G37*
G36*
G01*
X137549999Y-154400000D02*
X138450001Y-154400000D01*
G75*
G02*
X138700000Y-154649999I0J-249999D01*
G01*
X138700000Y-155300001D01*
G75*
G02*
X138450001Y-155550000I-249999J0D01*
G01*
X137549999Y-155550000D01*
G75*
G02*
X137300000Y-155300001I0J249999D01*
G01*
X137300000Y-154649999D01*
G75*
G02*
X137549999Y-154400000I249999J0D01*
G01*
G37*
G36*
G01*
X157549999Y-156450000D02*
X158450001Y-156450000D01*
G75*
G02*
X158700000Y-156699999I0J-249999D01*
G01*
X158700000Y-157350001D01*
G75*
G02*
X158450001Y-157600000I-249999J0D01*
G01*
X157549999Y-157600000D01*
G75*
G02*
X157300000Y-157350001I0J249999D01*
G01*
X157300000Y-156699999D01*
G75*
G02*
X157549999Y-156450000I249999J0D01*
G01*
G37*
G36*
G01*
X157549999Y-154400000D02*
X158450001Y-154400000D01*
G75*
G02*
X158700000Y-154649999I0J-249999D01*
G01*
X158700000Y-155300001D01*
G75*
G02*
X158450001Y-155550000I-249999J0D01*
G01*
X157549999Y-155550000D01*
G75*
G02*
X157300000Y-155300001I0J249999D01*
G01*
X157300000Y-154649999D01*
G75*
G02*
X157549999Y-154400000I249999J0D01*
G01*
G37*
G36*
G01*
X177549999Y-156450000D02*
X178450001Y-156450000D01*
G75*
G02*
X178700000Y-156699999I0J-249999D01*
G01*
X178700000Y-157350001D01*
G75*
G02*
X178450001Y-157600000I-249999J0D01*
G01*
X177549999Y-157600000D01*
G75*
G02*
X177300000Y-157350001I0J249999D01*
G01*
X177300000Y-156699999D01*
G75*
G02*
X177549999Y-156450000I249999J0D01*
G01*
G37*
G36*
G01*
X177549999Y-154400000D02*
X178450001Y-154400000D01*
G75*
G02*
X178700000Y-154649999I0J-249999D01*
G01*
X178700000Y-155300001D01*
G75*
G02*
X178450001Y-155550000I-249999J0D01*
G01*
X177549999Y-155550000D01*
G75*
G02*
X177300000Y-155300001I0J249999D01*
G01*
X177300000Y-154649999D01*
G75*
G02*
X177549999Y-154400000I249999J0D01*
G01*
G37*
G36*
G01*
X197549999Y-156450000D02*
X198450001Y-156450000D01*
G75*
G02*
X198700000Y-156699999I0J-249999D01*
G01*
X198700000Y-157350001D01*
G75*
G02*
X198450001Y-157600000I-249999J0D01*
G01*
X197549999Y-157600000D01*
G75*
G02*
X197300000Y-157350001I0J249999D01*
G01*
X197300000Y-156699999D01*
G75*
G02*
X197549999Y-156450000I249999J0D01*
G01*
G37*
G36*
G01*
X197549999Y-154400000D02*
X198450001Y-154400000D01*
G75*
G02*
X198700000Y-154649999I0J-249999D01*
G01*
X198700000Y-155300001D01*
G75*
G02*
X198450001Y-155550000I-249999J0D01*
G01*
X197549999Y-155550000D01*
G75*
G02*
X197300000Y-155300001I0J249999D01*
G01*
X197300000Y-154649999D01*
G75*
G02*
X197549999Y-154400000I249999J0D01*
G01*
G37*
G36*
G01*
X52549999Y-156450000D02*
X53450001Y-156450000D01*
G75*
G02*
X53700000Y-156699999I0J-249999D01*
G01*
X53700000Y-157350001D01*
G75*
G02*
X53450001Y-157600000I-249999J0D01*
G01*
X52549999Y-157600000D01*
G75*
G02*
X52300000Y-157350001I0J249999D01*
G01*
X52300000Y-156699999D01*
G75*
G02*
X52549999Y-156450000I249999J0D01*
G01*
G37*
G36*
G01*
X52549999Y-154400000D02*
X53450001Y-154400000D01*
G75*
G02*
X53700000Y-154649999I0J-249999D01*
G01*
X53700000Y-155300001D01*
G75*
G02*
X53450001Y-155550000I-249999J0D01*
G01*
X52549999Y-155550000D01*
G75*
G02*
X52300000Y-155300001I0J249999D01*
G01*
X52300000Y-154649999D01*
G75*
G02*
X52549999Y-154400000I249999J0D01*
G01*
G37*
G36*
G01*
X72549999Y-156450000D02*
X73450001Y-156450000D01*
G75*
G02*
X73700000Y-156699999I0J-249999D01*
G01*
X73700000Y-157350001D01*
G75*
G02*
X73450001Y-157600000I-249999J0D01*
G01*
X72549999Y-157600000D01*
G75*
G02*
X72300000Y-157350001I0J249999D01*
G01*
X72300000Y-156699999D01*
G75*
G02*
X72549999Y-156450000I249999J0D01*
G01*
G37*
G36*
G01*
X72549999Y-154400000D02*
X73450001Y-154400000D01*
G75*
G02*
X73700000Y-154649999I0J-249999D01*
G01*
X73700000Y-155300001D01*
G75*
G02*
X73450001Y-155550000I-249999J0D01*
G01*
X72549999Y-155550000D01*
G75*
G02*
X72300000Y-155300001I0J249999D01*
G01*
X72300000Y-154649999D01*
G75*
G02*
X72549999Y-154400000I249999J0D01*
G01*
G37*
G36*
G01*
X92549999Y-156450000D02*
X93450001Y-156450000D01*
G75*
G02*
X93700000Y-156699999I0J-249999D01*
G01*
X93700000Y-157350001D01*
G75*
G02*
X93450001Y-157600000I-249999J0D01*
G01*
X92549999Y-157600000D01*
G75*
G02*
X92300000Y-157350001I0J249999D01*
G01*
X92300000Y-156699999D01*
G75*
G02*
X92549999Y-156450000I249999J0D01*
G01*
G37*
G36*
G01*
X92549999Y-154400000D02*
X93450001Y-154400000D01*
G75*
G02*
X93700000Y-154649999I0J-249999D01*
G01*
X93700000Y-155300001D01*
G75*
G02*
X93450001Y-155550000I-249999J0D01*
G01*
X92549999Y-155550000D01*
G75*
G02*
X92300000Y-155300001I0J249999D01*
G01*
X92300000Y-154649999D01*
G75*
G02*
X92549999Y-154400000I249999J0D01*
G01*
G37*
G36*
G01*
X112549999Y-156450000D02*
X113450001Y-156450000D01*
G75*
G02*
X113700000Y-156699999I0J-249999D01*
G01*
X113700000Y-157350001D01*
G75*
G02*
X113450001Y-157600000I-249999J0D01*
G01*
X112549999Y-157600000D01*
G75*
G02*
X112300000Y-157350001I0J249999D01*
G01*
X112300000Y-156699999D01*
G75*
G02*
X112549999Y-156450000I249999J0D01*
G01*
G37*
G36*
G01*
X112549999Y-154400000D02*
X113450001Y-154400000D01*
G75*
G02*
X113700000Y-154649999I0J-249999D01*
G01*
X113700000Y-155300001D01*
G75*
G02*
X113450001Y-155550000I-249999J0D01*
G01*
X112549999Y-155550000D01*
G75*
G02*
X112300000Y-155300001I0J249999D01*
G01*
X112300000Y-154649999D01*
G75*
G02*
X112549999Y-154400000I249999J0D01*
G01*
G37*
G36*
G01*
X132549999Y-156450000D02*
X133450001Y-156450000D01*
G75*
G02*
X133700000Y-156699999I0J-249999D01*
G01*
X133700000Y-157350001D01*
G75*
G02*
X133450001Y-157600000I-249999J0D01*
G01*
X132549999Y-157600000D01*
G75*
G02*
X132300000Y-157350001I0J249999D01*
G01*
X132300000Y-156699999D01*
G75*
G02*
X132549999Y-156450000I249999J0D01*
G01*
G37*
G36*
G01*
X132549999Y-154400000D02*
X133450001Y-154400000D01*
G75*
G02*
X133700000Y-154649999I0J-249999D01*
G01*
X133700000Y-155300001D01*
G75*
G02*
X133450001Y-155550000I-249999J0D01*
G01*
X132549999Y-155550000D01*
G75*
G02*
X132300000Y-155300001I0J249999D01*
G01*
X132300000Y-154649999D01*
G75*
G02*
X132549999Y-154400000I249999J0D01*
G01*
G37*
G36*
G01*
X152549999Y-156450000D02*
X153450001Y-156450000D01*
G75*
G02*
X153700000Y-156699999I0J-249999D01*
G01*
X153700000Y-157350001D01*
G75*
G02*
X153450001Y-157600000I-249999J0D01*
G01*
X152549999Y-157600000D01*
G75*
G02*
X152300000Y-157350001I0J249999D01*
G01*
X152300000Y-156699999D01*
G75*
G02*
X152549999Y-156450000I249999J0D01*
G01*
G37*
G36*
G01*
X152549999Y-154400000D02*
X153450001Y-154400000D01*
G75*
G02*
X153700000Y-154649999I0J-249999D01*
G01*
X153700000Y-155300001D01*
G75*
G02*
X153450001Y-155550000I-249999J0D01*
G01*
X152549999Y-155550000D01*
G75*
G02*
X152300000Y-155300001I0J249999D01*
G01*
X152300000Y-154649999D01*
G75*
G02*
X152549999Y-154400000I249999J0D01*
G01*
G37*
G36*
G01*
X172549999Y-156450000D02*
X173450001Y-156450000D01*
G75*
G02*
X173700000Y-156699999I0J-249999D01*
G01*
X173700000Y-157350001D01*
G75*
G02*
X173450001Y-157600000I-249999J0D01*
G01*
X172549999Y-157600000D01*
G75*
G02*
X172300000Y-157350001I0J249999D01*
G01*
X172300000Y-156699999D01*
G75*
G02*
X172549999Y-156450000I249999J0D01*
G01*
G37*
G36*
G01*
X172549999Y-154400000D02*
X173450001Y-154400000D01*
G75*
G02*
X173700000Y-154649999I0J-249999D01*
G01*
X173700000Y-155300001D01*
G75*
G02*
X173450001Y-155550000I-249999J0D01*
G01*
X172549999Y-155550000D01*
G75*
G02*
X172300000Y-155300001I0J249999D01*
G01*
X172300000Y-154649999D01*
G75*
G02*
X172549999Y-154400000I249999J0D01*
G01*
G37*
G36*
G01*
X192549999Y-156450000D02*
X193450001Y-156450000D01*
G75*
G02*
X193700000Y-156699999I0J-249999D01*
G01*
X193700000Y-157350001D01*
G75*
G02*
X193450001Y-157600000I-249999J0D01*
G01*
X192549999Y-157600000D01*
G75*
G02*
X192300000Y-157350001I0J249999D01*
G01*
X192300000Y-156699999D01*
G75*
G02*
X192549999Y-156450000I249999J0D01*
G01*
G37*
G36*
G01*
X192549999Y-154400000D02*
X193450001Y-154400000D01*
G75*
G02*
X193700000Y-154649999I0J-249999D01*
G01*
X193700000Y-155300001D01*
G75*
G02*
X193450001Y-155550000I-249999J0D01*
G01*
X192549999Y-155550000D01*
G75*
G02*
X192300000Y-155300001I0J249999D01*
G01*
X192300000Y-154649999D01*
G75*
G02*
X192549999Y-154400000I249999J0D01*
G01*
G37*
G36*
G01*
X47549999Y-156450000D02*
X48450001Y-156450000D01*
G75*
G02*
X48700000Y-156699999I0J-249999D01*
G01*
X48700000Y-157350001D01*
G75*
G02*
X48450001Y-157600000I-249999J0D01*
G01*
X47549999Y-157600000D01*
G75*
G02*
X47300000Y-157350001I0J249999D01*
G01*
X47300000Y-156699999D01*
G75*
G02*
X47549999Y-156450000I249999J0D01*
G01*
G37*
G36*
G01*
X47549999Y-154400000D02*
X48450001Y-154400000D01*
G75*
G02*
X48700000Y-154649999I0J-249999D01*
G01*
X48700000Y-155300001D01*
G75*
G02*
X48450001Y-155550000I-249999J0D01*
G01*
X47549999Y-155550000D01*
G75*
G02*
X47300000Y-155300001I0J249999D01*
G01*
X47300000Y-154649999D01*
G75*
G02*
X47549999Y-154400000I249999J0D01*
G01*
G37*
G36*
G01*
X67549999Y-156450000D02*
X68450001Y-156450000D01*
G75*
G02*
X68700000Y-156699999I0J-249999D01*
G01*
X68700000Y-157350001D01*
G75*
G02*
X68450001Y-157600000I-249999J0D01*
G01*
X67549999Y-157600000D01*
G75*
G02*
X67300000Y-157350001I0J249999D01*
G01*
X67300000Y-156699999D01*
G75*
G02*
X67549999Y-156450000I249999J0D01*
G01*
G37*
G36*
G01*
X67549999Y-154400000D02*
X68450001Y-154400000D01*
G75*
G02*
X68700000Y-154649999I0J-249999D01*
G01*
X68700000Y-155300001D01*
G75*
G02*
X68450001Y-155550000I-249999J0D01*
G01*
X67549999Y-155550000D01*
G75*
G02*
X67300000Y-155300001I0J249999D01*
G01*
X67300000Y-154649999D01*
G75*
G02*
X67549999Y-154400000I249999J0D01*
G01*
G37*
G36*
G01*
X87549999Y-156450000D02*
X88450001Y-156450000D01*
G75*
G02*
X88700000Y-156699999I0J-249999D01*
G01*
X88700000Y-157350001D01*
G75*
G02*
X88450001Y-157600000I-249999J0D01*
G01*
X87549999Y-157600000D01*
G75*
G02*
X87300000Y-157350001I0J249999D01*
G01*
X87300000Y-156699999D01*
G75*
G02*
X87549999Y-156450000I249999J0D01*
G01*
G37*
G36*
G01*
X87549999Y-154400000D02*
X88450001Y-154400000D01*
G75*
G02*
X88700000Y-154649999I0J-249999D01*
G01*
X88700000Y-155300001D01*
G75*
G02*
X88450001Y-155550000I-249999J0D01*
G01*
X87549999Y-155550000D01*
G75*
G02*
X87300000Y-155300001I0J249999D01*
G01*
X87300000Y-154649999D01*
G75*
G02*
X87549999Y-154400000I249999J0D01*
G01*
G37*
G36*
G01*
X107549999Y-156450000D02*
X108450001Y-156450000D01*
G75*
G02*
X108700000Y-156699999I0J-249999D01*
G01*
X108700000Y-157350001D01*
G75*
G02*
X108450001Y-157600000I-249999J0D01*
G01*
X107549999Y-157600000D01*
G75*
G02*
X107300000Y-157350001I0J249999D01*
G01*
X107300000Y-156699999D01*
G75*
G02*
X107549999Y-156450000I249999J0D01*
G01*
G37*
G36*
G01*
X107549999Y-154400000D02*
X108450001Y-154400000D01*
G75*
G02*
X108700000Y-154649999I0J-249999D01*
G01*
X108700000Y-155300001D01*
G75*
G02*
X108450001Y-155550000I-249999J0D01*
G01*
X107549999Y-155550000D01*
G75*
G02*
X107300000Y-155300001I0J249999D01*
G01*
X107300000Y-154649999D01*
G75*
G02*
X107549999Y-154400000I249999J0D01*
G01*
G37*
G36*
G01*
X127549999Y-156450000D02*
X128450001Y-156450000D01*
G75*
G02*
X128700000Y-156699999I0J-249999D01*
G01*
X128700000Y-157350001D01*
G75*
G02*
X128450001Y-157600000I-249999J0D01*
G01*
X127549999Y-157600000D01*
G75*
G02*
X127300000Y-157350001I0J249999D01*
G01*
X127300000Y-156699999D01*
G75*
G02*
X127549999Y-156450000I249999J0D01*
G01*
G37*
G36*
G01*
X127549999Y-154400000D02*
X128450001Y-154400000D01*
G75*
G02*
X128700000Y-154649999I0J-249999D01*
G01*
X128700000Y-155300001D01*
G75*
G02*
X128450001Y-155550000I-249999J0D01*
G01*
X127549999Y-155550000D01*
G75*
G02*
X127300000Y-155300001I0J249999D01*
G01*
X127300000Y-154649999D01*
G75*
G02*
X127549999Y-154400000I249999J0D01*
G01*
G37*
G36*
G01*
X147549999Y-156450000D02*
X148450001Y-156450000D01*
G75*
G02*
X148700000Y-156699999I0J-249999D01*
G01*
X148700000Y-157350001D01*
G75*
G02*
X148450001Y-157600000I-249999J0D01*
G01*
X147549999Y-157600000D01*
G75*
G02*
X147300000Y-157350001I0J249999D01*
G01*
X147300000Y-156699999D01*
G75*
G02*
X147549999Y-156450000I249999J0D01*
G01*
G37*
G36*
G01*
X147549999Y-154400000D02*
X148450001Y-154400000D01*
G75*
G02*
X148700000Y-154649999I0J-249999D01*
G01*
X148700000Y-155300001D01*
G75*
G02*
X148450001Y-155550000I-249999J0D01*
G01*
X147549999Y-155550000D01*
G75*
G02*
X147300000Y-155300001I0J249999D01*
G01*
X147300000Y-154649999D01*
G75*
G02*
X147549999Y-154400000I249999J0D01*
G01*
G37*
G36*
G01*
X167549999Y-156450000D02*
X168450001Y-156450000D01*
G75*
G02*
X168700000Y-156699999I0J-249999D01*
G01*
X168700000Y-157350001D01*
G75*
G02*
X168450001Y-157600000I-249999J0D01*
G01*
X167549999Y-157600000D01*
G75*
G02*
X167300000Y-157350001I0J249999D01*
G01*
X167300000Y-156699999D01*
G75*
G02*
X167549999Y-156450000I249999J0D01*
G01*
G37*
G36*
G01*
X167549999Y-154400000D02*
X168450001Y-154400000D01*
G75*
G02*
X168700000Y-154649999I0J-249999D01*
G01*
X168700000Y-155300001D01*
G75*
G02*
X168450001Y-155550000I-249999J0D01*
G01*
X167549999Y-155550000D01*
G75*
G02*
X167300000Y-155300001I0J249999D01*
G01*
X167300000Y-154649999D01*
G75*
G02*
X167549999Y-154400000I249999J0D01*
G01*
G37*
G36*
G01*
X187549999Y-156450000D02*
X188450001Y-156450000D01*
G75*
G02*
X188700000Y-156699999I0J-249999D01*
G01*
X188700000Y-157350001D01*
G75*
G02*
X188450001Y-157600000I-249999J0D01*
G01*
X187549999Y-157600000D01*
G75*
G02*
X187300000Y-157350001I0J249999D01*
G01*
X187300000Y-156699999D01*
G75*
G02*
X187549999Y-156450000I249999J0D01*
G01*
G37*
G36*
G01*
X187549999Y-154400000D02*
X188450001Y-154400000D01*
G75*
G02*
X188700000Y-154649999I0J-249999D01*
G01*
X188700000Y-155300001D01*
G75*
G02*
X188450001Y-155550000I-249999J0D01*
G01*
X187549999Y-155550000D01*
G75*
G02*
X187300000Y-155300001I0J249999D01*
G01*
X187300000Y-154649999D01*
G75*
G02*
X187549999Y-154400000I249999J0D01*
G01*
G37*
G36*
G01*
X222549999Y-156450000D02*
X223450001Y-156450000D01*
G75*
G02*
X223700000Y-156699999I0J-249999D01*
G01*
X223700000Y-157350001D01*
G75*
G02*
X223450001Y-157600000I-249999J0D01*
G01*
X222549999Y-157600000D01*
G75*
G02*
X222300000Y-157350001I0J249999D01*
G01*
X222300000Y-156699999D01*
G75*
G02*
X222549999Y-156450000I249999J0D01*
G01*
G37*
G36*
G01*
X222549999Y-154400000D02*
X223450001Y-154400000D01*
G75*
G02*
X223700000Y-154649999I0J-249999D01*
G01*
X223700000Y-155300001D01*
G75*
G02*
X223450001Y-155550000I-249999J0D01*
G01*
X222549999Y-155550000D01*
G75*
G02*
X222300000Y-155300001I0J249999D01*
G01*
X222300000Y-154649999D01*
G75*
G02*
X222549999Y-154400000I249999J0D01*
G01*
G37*
G36*
G01*
X242549999Y-156450000D02*
X243450001Y-156450000D01*
G75*
G02*
X243700000Y-156699999I0J-249999D01*
G01*
X243700000Y-157350001D01*
G75*
G02*
X243450001Y-157600000I-249999J0D01*
G01*
X242549999Y-157600000D01*
G75*
G02*
X242300000Y-157350001I0J249999D01*
G01*
X242300000Y-156699999D01*
G75*
G02*
X242549999Y-156450000I249999J0D01*
G01*
G37*
G36*
G01*
X242549999Y-154400000D02*
X243450001Y-154400000D01*
G75*
G02*
X243700000Y-154649999I0J-249999D01*
G01*
X243700000Y-155300001D01*
G75*
G02*
X243450001Y-155550000I-249999J0D01*
G01*
X242549999Y-155550000D01*
G75*
G02*
X242300000Y-155300001I0J249999D01*
G01*
X242300000Y-154649999D01*
G75*
G02*
X242549999Y-154400000I249999J0D01*
G01*
G37*
G36*
G01*
X262549999Y-156450000D02*
X263450001Y-156450000D01*
G75*
G02*
X263700000Y-156699999I0J-249999D01*
G01*
X263700000Y-157350001D01*
G75*
G02*
X263450001Y-157600000I-249999J0D01*
G01*
X262549999Y-157600000D01*
G75*
G02*
X262300000Y-157350001I0J249999D01*
G01*
X262300000Y-156699999D01*
G75*
G02*
X262549999Y-156450000I249999J0D01*
G01*
G37*
G36*
G01*
X262549999Y-154400000D02*
X263450001Y-154400000D01*
G75*
G02*
X263700000Y-154649999I0J-249999D01*
G01*
X263700000Y-155300001D01*
G75*
G02*
X263450001Y-155550000I-249999J0D01*
G01*
X262549999Y-155550000D01*
G75*
G02*
X262300000Y-155300001I0J249999D01*
G01*
X262300000Y-154649999D01*
G75*
G02*
X262549999Y-154400000I249999J0D01*
G01*
G37*
G36*
G01*
X282549999Y-156450000D02*
X283450001Y-156450000D01*
G75*
G02*
X283700000Y-156699999I0J-249999D01*
G01*
X283700000Y-157350001D01*
G75*
G02*
X283450001Y-157600000I-249999J0D01*
G01*
X282549999Y-157600000D01*
G75*
G02*
X282300000Y-157350001I0J249999D01*
G01*
X282300000Y-156699999D01*
G75*
G02*
X282549999Y-156450000I249999J0D01*
G01*
G37*
G36*
G01*
X282549999Y-154400000D02*
X283450001Y-154400000D01*
G75*
G02*
X283700000Y-154649999I0J-249999D01*
G01*
X283700000Y-155300001D01*
G75*
G02*
X283450001Y-155550000I-249999J0D01*
G01*
X282549999Y-155550000D01*
G75*
G02*
X282300000Y-155300001I0J249999D01*
G01*
X282300000Y-154649999D01*
G75*
G02*
X282549999Y-154400000I249999J0D01*
G01*
G37*
G36*
G01*
X302549999Y-156450000D02*
X303450001Y-156450000D01*
G75*
G02*
X303700000Y-156699999I0J-249999D01*
G01*
X303700000Y-157350001D01*
G75*
G02*
X303450001Y-157600000I-249999J0D01*
G01*
X302549999Y-157600000D01*
G75*
G02*
X302300000Y-157350001I0J249999D01*
G01*
X302300000Y-156699999D01*
G75*
G02*
X302549999Y-156450000I249999J0D01*
G01*
G37*
G36*
G01*
X302549999Y-154400000D02*
X303450001Y-154400000D01*
G75*
G02*
X303700000Y-154649999I0J-249999D01*
G01*
X303700000Y-155300001D01*
G75*
G02*
X303450001Y-155550000I-249999J0D01*
G01*
X302549999Y-155550000D01*
G75*
G02*
X302300000Y-155300001I0J249999D01*
G01*
X302300000Y-154649999D01*
G75*
G02*
X302549999Y-154400000I249999J0D01*
G01*
G37*
G36*
G01*
X322549999Y-156450000D02*
X323450001Y-156450000D01*
G75*
G02*
X323700000Y-156699999I0J-249999D01*
G01*
X323700000Y-157350001D01*
G75*
G02*
X323450001Y-157600000I-249999J0D01*
G01*
X322549999Y-157600000D01*
G75*
G02*
X322300000Y-157350001I0J249999D01*
G01*
X322300000Y-156699999D01*
G75*
G02*
X322549999Y-156450000I249999J0D01*
G01*
G37*
G36*
G01*
X322549999Y-154400000D02*
X323450001Y-154400000D01*
G75*
G02*
X323700000Y-154649999I0J-249999D01*
G01*
X323700000Y-155300001D01*
G75*
G02*
X323450001Y-155550000I-249999J0D01*
G01*
X322549999Y-155550000D01*
G75*
G02*
X322300000Y-155300001I0J249999D01*
G01*
X322300000Y-154649999D01*
G75*
G02*
X322549999Y-154400000I249999J0D01*
G01*
G37*
G36*
G01*
X342549999Y-156450000D02*
X343450001Y-156450000D01*
G75*
G02*
X343700000Y-156699999I0J-249999D01*
G01*
X343700000Y-157350001D01*
G75*
G02*
X343450001Y-157600000I-249999J0D01*
G01*
X342549999Y-157600000D01*
G75*
G02*
X342300000Y-157350001I0J249999D01*
G01*
X342300000Y-156699999D01*
G75*
G02*
X342549999Y-156450000I249999J0D01*
G01*
G37*
G36*
G01*
X342549999Y-154400000D02*
X343450001Y-154400000D01*
G75*
G02*
X343700000Y-154649999I0J-249999D01*
G01*
X343700000Y-155300001D01*
G75*
G02*
X343450001Y-155550000I-249999J0D01*
G01*
X342549999Y-155550000D01*
G75*
G02*
X342300000Y-155300001I0J249999D01*
G01*
X342300000Y-154649999D01*
G75*
G02*
X342549999Y-154400000I249999J0D01*
G01*
G37*
G36*
G01*
X362549999Y-156450000D02*
X363450001Y-156450000D01*
G75*
G02*
X363700000Y-156699999I0J-249999D01*
G01*
X363700000Y-157350001D01*
G75*
G02*
X363450001Y-157600000I-249999J0D01*
G01*
X362549999Y-157600000D01*
G75*
G02*
X362300000Y-157350001I0J249999D01*
G01*
X362300000Y-156699999D01*
G75*
G02*
X362549999Y-156450000I249999J0D01*
G01*
G37*
G36*
G01*
X362549999Y-154400000D02*
X363450001Y-154400000D01*
G75*
G02*
X363700000Y-154649999I0J-249999D01*
G01*
X363700000Y-155300001D01*
G75*
G02*
X363450001Y-155550000I-249999J0D01*
G01*
X362549999Y-155550000D01*
G75*
G02*
X362300000Y-155300001I0J249999D01*
G01*
X362300000Y-154649999D01*
G75*
G02*
X362549999Y-154400000I249999J0D01*
G01*
G37*
G36*
G01*
X217549999Y-156450000D02*
X218450001Y-156450000D01*
G75*
G02*
X218700000Y-156699999I0J-249999D01*
G01*
X218700000Y-157350001D01*
G75*
G02*
X218450001Y-157600000I-249999J0D01*
G01*
X217549999Y-157600000D01*
G75*
G02*
X217300000Y-157350001I0J249999D01*
G01*
X217300000Y-156699999D01*
G75*
G02*
X217549999Y-156450000I249999J0D01*
G01*
G37*
G36*
G01*
X217549999Y-154400000D02*
X218450001Y-154400000D01*
G75*
G02*
X218700000Y-154649999I0J-249999D01*
G01*
X218700000Y-155300001D01*
G75*
G02*
X218450001Y-155550000I-249999J0D01*
G01*
X217549999Y-155550000D01*
G75*
G02*
X217300000Y-155300001I0J249999D01*
G01*
X217300000Y-154649999D01*
G75*
G02*
X217549999Y-154400000I249999J0D01*
G01*
G37*
G36*
G01*
X237549999Y-156450000D02*
X238450001Y-156450000D01*
G75*
G02*
X238700000Y-156699999I0J-249999D01*
G01*
X238700000Y-157350001D01*
G75*
G02*
X238450001Y-157600000I-249999J0D01*
G01*
X237549999Y-157600000D01*
G75*
G02*
X237300000Y-157350001I0J249999D01*
G01*
X237300000Y-156699999D01*
G75*
G02*
X237549999Y-156450000I249999J0D01*
G01*
G37*
G36*
G01*
X237549999Y-154400000D02*
X238450001Y-154400000D01*
G75*
G02*
X238700000Y-154649999I0J-249999D01*
G01*
X238700000Y-155300001D01*
G75*
G02*
X238450001Y-155550000I-249999J0D01*
G01*
X237549999Y-155550000D01*
G75*
G02*
X237300000Y-155300001I0J249999D01*
G01*
X237300000Y-154649999D01*
G75*
G02*
X237549999Y-154400000I249999J0D01*
G01*
G37*
G36*
G01*
X257549999Y-156450000D02*
X258450001Y-156450000D01*
G75*
G02*
X258700000Y-156699999I0J-249999D01*
G01*
X258700000Y-157350001D01*
G75*
G02*
X258450001Y-157600000I-249999J0D01*
G01*
X257549999Y-157600000D01*
G75*
G02*
X257300000Y-157350001I0J249999D01*
G01*
X257300000Y-156699999D01*
G75*
G02*
X257549999Y-156450000I249999J0D01*
G01*
G37*
G36*
G01*
X257549999Y-154400000D02*
X258450001Y-154400000D01*
G75*
G02*
X258700000Y-154649999I0J-249999D01*
G01*
X258700000Y-155300001D01*
G75*
G02*
X258450001Y-155550000I-249999J0D01*
G01*
X257549999Y-155550000D01*
G75*
G02*
X257300000Y-155300001I0J249999D01*
G01*
X257300000Y-154649999D01*
G75*
G02*
X257549999Y-154400000I249999J0D01*
G01*
G37*
G36*
G01*
X277549999Y-156450000D02*
X278450001Y-156450000D01*
G75*
G02*
X278700000Y-156699999I0J-249999D01*
G01*
X278700000Y-157350001D01*
G75*
G02*
X278450001Y-157600000I-249999J0D01*
G01*
X277549999Y-157600000D01*
G75*
G02*
X277300000Y-157350001I0J249999D01*
G01*
X277300000Y-156699999D01*
G75*
G02*
X277549999Y-156450000I249999J0D01*
G01*
G37*
G36*
G01*
X277549999Y-154400000D02*
X278450001Y-154400000D01*
G75*
G02*
X278700000Y-154649999I0J-249999D01*
G01*
X278700000Y-155300001D01*
G75*
G02*
X278450001Y-155550000I-249999J0D01*
G01*
X277549999Y-155550000D01*
G75*
G02*
X277300000Y-155300001I0J249999D01*
G01*
X277300000Y-154649999D01*
G75*
G02*
X277549999Y-154400000I249999J0D01*
G01*
G37*
G36*
G01*
X297549999Y-156450000D02*
X298450001Y-156450000D01*
G75*
G02*
X298700000Y-156699999I0J-249999D01*
G01*
X298700000Y-157350001D01*
G75*
G02*
X298450001Y-157600000I-249999J0D01*
G01*
X297549999Y-157600000D01*
G75*
G02*
X297300000Y-157350001I0J249999D01*
G01*
X297300000Y-156699999D01*
G75*
G02*
X297549999Y-156450000I249999J0D01*
G01*
G37*
G36*
G01*
X297549999Y-154400000D02*
X298450001Y-154400000D01*
G75*
G02*
X298700000Y-154649999I0J-249999D01*
G01*
X298700000Y-155300001D01*
G75*
G02*
X298450001Y-155550000I-249999J0D01*
G01*
X297549999Y-155550000D01*
G75*
G02*
X297300000Y-155300001I0J249999D01*
G01*
X297300000Y-154649999D01*
G75*
G02*
X297549999Y-154400000I249999J0D01*
G01*
G37*
G36*
G01*
X317549999Y-156450000D02*
X318450001Y-156450000D01*
G75*
G02*
X318700000Y-156699999I0J-249999D01*
G01*
X318700000Y-157350001D01*
G75*
G02*
X318450001Y-157600000I-249999J0D01*
G01*
X317549999Y-157600000D01*
G75*
G02*
X317300000Y-157350001I0J249999D01*
G01*
X317300000Y-156699999D01*
G75*
G02*
X317549999Y-156450000I249999J0D01*
G01*
G37*
G36*
G01*
X317549999Y-154400000D02*
X318450001Y-154400000D01*
G75*
G02*
X318700000Y-154649999I0J-249999D01*
G01*
X318700000Y-155300001D01*
G75*
G02*
X318450001Y-155550000I-249999J0D01*
G01*
X317549999Y-155550000D01*
G75*
G02*
X317300000Y-155300001I0J249999D01*
G01*
X317300000Y-154649999D01*
G75*
G02*
X317549999Y-154400000I249999J0D01*
G01*
G37*
G36*
G01*
X337549999Y-156450000D02*
X338450001Y-156450000D01*
G75*
G02*
X338700000Y-156699999I0J-249999D01*
G01*
X338700000Y-157350001D01*
G75*
G02*
X338450001Y-157600000I-249999J0D01*
G01*
X337549999Y-157600000D01*
G75*
G02*
X337300000Y-157350001I0J249999D01*
G01*
X337300000Y-156699999D01*
G75*
G02*
X337549999Y-156450000I249999J0D01*
G01*
G37*
G36*
G01*
X337549999Y-154400000D02*
X338450001Y-154400000D01*
G75*
G02*
X338700000Y-154649999I0J-249999D01*
G01*
X338700000Y-155300001D01*
G75*
G02*
X338450001Y-155550000I-249999J0D01*
G01*
X337549999Y-155550000D01*
G75*
G02*
X337300000Y-155300001I0J249999D01*
G01*
X337300000Y-154649999D01*
G75*
G02*
X337549999Y-154400000I249999J0D01*
G01*
G37*
G36*
G01*
X357549999Y-156450000D02*
X358450001Y-156450000D01*
G75*
G02*
X358700000Y-156699999I0J-249999D01*
G01*
X358700000Y-157350001D01*
G75*
G02*
X358450001Y-157600000I-249999J0D01*
G01*
X357549999Y-157600000D01*
G75*
G02*
X357300000Y-157350001I0J249999D01*
G01*
X357300000Y-156699999D01*
G75*
G02*
X357549999Y-156450000I249999J0D01*
G01*
G37*
G36*
G01*
X357549999Y-154400000D02*
X358450001Y-154400000D01*
G75*
G02*
X358700000Y-154649999I0J-249999D01*
G01*
X358700000Y-155300001D01*
G75*
G02*
X358450001Y-155550000I-249999J0D01*
G01*
X357549999Y-155550000D01*
G75*
G02*
X357300000Y-155300001I0J249999D01*
G01*
X357300000Y-154649999D01*
G75*
G02*
X357549999Y-154400000I249999J0D01*
G01*
G37*
G36*
G01*
X212549999Y-156450000D02*
X213450001Y-156450000D01*
G75*
G02*
X213700000Y-156699999I0J-249999D01*
G01*
X213700000Y-157350001D01*
G75*
G02*
X213450001Y-157600000I-249999J0D01*
G01*
X212549999Y-157600000D01*
G75*
G02*
X212300000Y-157350001I0J249999D01*
G01*
X212300000Y-156699999D01*
G75*
G02*
X212549999Y-156450000I249999J0D01*
G01*
G37*
G36*
G01*
X212549999Y-154400000D02*
X213450001Y-154400000D01*
G75*
G02*
X213700000Y-154649999I0J-249999D01*
G01*
X213700000Y-155300001D01*
G75*
G02*
X213450001Y-155550000I-249999J0D01*
G01*
X212549999Y-155550000D01*
G75*
G02*
X212300000Y-155300001I0J249999D01*
G01*
X212300000Y-154649999D01*
G75*
G02*
X212549999Y-154400000I249999J0D01*
G01*
G37*
G36*
G01*
X232549999Y-156450000D02*
X233450001Y-156450000D01*
G75*
G02*
X233700000Y-156699999I0J-249999D01*
G01*
X233700000Y-157350001D01*
G75*
G02*
X233450001Y-157600000I-249999J0D01*
G01*
X232549999Y-157600000D01*
G75*
G02*
X232300000Y-157350001I0J249999D01*
G01*
X232300000Y-156699999D01*
G75*
G02*
X232549999Y-156450000I249999J0D01*
G01*
G37*
G36*
G01*
X232549999Y-154400000D02*
X233450001Y-154400000D01*
G75*
G02*
X233700000Y-154649999I0J-249999D01*
G01*
X233700000Y-155300001D01*
G75*
G02*
X233450001Y-155550000I-249999J0D01*
G01*
X232549999Y-155550000D01*
G75*
G02*
X232300000Y-155300001I0J249999D01*
G01*
X232300000Y-154649999D01*
G75*
G02*
X232549999Y-154400000I249999J0D01*
G01*
G37*
G36*
G01*
X252549999Y-156450000D02*
X253450001Y-156450000D01*
G75*
G02*
X253700000Y-156699999I0J-249999D01*
G01*
X253700000Y-157350001D01*
G75*
G02*
X253450001Y-157600000I-249999J0D01*
G01*
X252549999Y-157600000D01*
G75*
G02*
X252300000Y-157350001I0J249999D01*
G01*
X252300000Y-156699999D01*
G75*
G02*
X252549999Y-156450000I249999J0D01*
G01*
G37*
G36*
G01*
X252549999Y-154400000D02*
X253450001Y-154400000D01*
G75*
G02*
X253700000Y-154649999I0J-249999D01*
G01*
X253700000Y-155300001D01*
G75*
G02*
X253450001Y-155550000I-249999J0D01*
G01*
X252549999Y-155550000D01*
G75*
G02*
X252300000Y-155300001I0J249999D01*
G01*
X252300000Y-154649999D01*
G75*
G02*
X252549999Y-154400000I249999J0D01*
G01*
G37*
G36*
G01*
X272549999Y-156450000D02*
X273450001Y-156450000D01*
G75*
G02*
X273700000Y-156699999I0J-249999D01*
G01*
X273700000Y-157350001D01*
G75*
G02*
X273450001Y-157600000I-249999J0D01*
G01*
X272549999Y-157600000D01*
G75*
G02*
X272300000Y-157350001I0J249999D01*
G01*
X272300000Y-156699999D01*
G75*
G02*
X272549999Y-156450000I249999J0D01*
G01*
G37*
G36*
G01*
X272549999Y-154400000D02*
X273450001Y-154400000D01*
G75*
G02*
X273700000Y-154649999I0J-249999D01*
G01*
X273700000Y-155300001D01*
G75*
G02*
X273450001Y-155550000I-249999J0D01*
G01*
X272549999Y-155550000D01*
G75*
G02*
X272300000Y-155300001I0J249999D01*
G01*
X272300000Y-154649999D01*
G75*
G02*
X272549999Y-154400000I249999J0D01*
G01*
G37*
G36*
G01*
X292549999Y-156450000D02*
X293450001Y-156450000D01*
G75*
G02*
X293700000Y-156699999I0J-249999D01*
G01*
X293700000Y-157350001D01*
G75*
G02*
X293450001Y-157600000I-249999J0D01*
G01*
X292549999Y-157600000D01*
G75*
G02*
X292300000Y-157350001I0J249999D01*
G01*
X292300000Y-156699999D01*
G75*
G02*
X292549999Y-156450000I249999J0D01*
G01*
G37*
G36*
G01*
X292549999Y-154400000D02*
X293450001Y-154400000D01*
G75*
G02*
X293700000Y-154649999I0J-249999D01*
G01*
X293700000Y-155300001D01*
G75*
G02*
X293450001Y-155550000I-249999J0D01*
G01*
X292549999Y-155550000D01*
G75*
G02*
X292300000Y-155300001I0J249999D01*
G01*
X292300000Y-154649999D01*
G75*
G02*
X292549999Y-154400000I249999J0D01*
G01*
G37*
G36*
G01*
X312549999Y-156450000D02*
X313450001Y-156450000D01*
G75*
G02*
X313700000Y-156699999I0J-249999D01*
G01*
X313700000Y-157350001D01*
G75*
G02*
X313450001Y-157600000I-249999J0D01*
G01*
X312549999Y-157600000D01*
G75*
G02*
X312300000Y-157350001I0J249999D01*
G01*
X312300000Y-156699999D01*
G75*
G02*
X312549999Y-156450000I249999J0D01*
G01*
G37*
G36*
G01*
X312549999Y-154400000D02*
X313450001Y-154400000D01*
G75*
G02*
X313700000Y-154649999I0J-249999D01*
G01*
X313700000Y-155300001D01*
G75*
G02*
X313450001Y-155550000I-249999J0D01*
G01*
X312549999Y-155550000D01*
G75*
G02*
X312300000Y-155300001I0J249999D01*
G01*
X312300000Y-154649999D01*
G75*
G02*
X312549999Y-154400000I249999J0D01*
G01*
G37*
G36*
G01*
X332549999Y-156450000D02*
X333450001Y-156450000D01*
G75*
G02*
X333700000Y-156699999I0J-249999D01*
G01*
X333700000Y-157350001D01*
G75*
G02*
X333450001Y-157600000I-249999J0D01*
G01*
X332549999Y-157600000D01*
G75*
G02*
X332300000Y-157350001I0J249999D01*
G01*
X332300000Y-156699999D01*
G75*
G02*
X332549999Y-156450000I249999J0D01*
G01*
G37*
G36*
G01*
X332549999Y-154400000D02*
X333450001Y-154400000D01*
G75*
G02*
X333700000Y-154649999I0J-249999D01*
G01*
X333700000Y-155300001D01*
G75*
G02*
X333450001Y-155550000I-249999J0D01*
G01*
X332549999Y-155550000D01*
G75*
G02*
X332300000Y-155300001I0J249999D01*
G01*
X332300000Y-154649999D01*
G75*
G02*
X332549999Y-154400000I249999J0D01*
G01*
G37*
G36*
G01*
X352549999Y-156450000D02*
X353450001Y-156450000D01*
G75*
G02*
X353700000Y-156699999I0J-249999D01*
G01*
X353700000Y-157350001D01*
G75*
G02*
X353450001Y-157600000I-249999J0D01*
G01*
X352549999Y-157600000D01*
G75*
G02*
X352300000Y-157350001I0J249999D01*
G01*
X352300000Y-156699999D01*
G75*
G02*
X352549999Y-156450000I249999J0D01*
G01*
G37*
G36*
G01*
X352549999Y-154400000D02*
X353450001Y-154400000D01*
G75*
G02*
X353700000Y-154649999I0J-249999D01*
G01*
X353700000Y-155300001D01*
G75*
G02*
X353450001Y-155550000I-249999J0D01*
G01*
X352549999Y-155550000D01*
G75*
G02*
X352300000Y-155300001I0J249999D01*
G01*
X352300000Y-154649999D01*
G75*
G02*
X352549999Y-154400000I249999J0D01*
G01*
G37*
G36*
G01*
X207549999Y-156450000D02*
X208450001Y-156450000D01*
G75*
G02*
X208700000Y-156699999I0J-249999D01*
G01*
X208700000Y-157350001D01*
G75*
G02*
X208450001Y-157600000I-249999J0D01*
G01*
X207549999Y-157600000D01*
G75*
G02*
X207300000Y-157350001I0J249999D01*
G01*
X207300000Y-156699999D01*
G75*
G02*
X207549999Y-156450000I249999J0D01*
G01*
G37*
G36*
G01*
X207549999Y-154400000D02*
X208450001Y-154400000D01*
G75*
G02*
X208700000Y-154649999I0J-249999D01*
G01*
X208700000Y-155300001D01*
G75*
G02*
X208450001Y-155550000I-249999J0D01*
G01*
X207549999Y-155550000D01*
G75*
G02*
X207300000Y-155300001I0J249999D01*
G01*
X207300000Y-154649999D01*
G75*
G02*
X207549999Y-154400000I249999J0D01*
G01*
G37*
G36*
G01*
X227549999Y-156450000D02*
X228450001Y-156450000D01*
G75*
G02*
X228700000Y-156699999I0J-249999D01*
G01*
X228700000Y-157350001D01*
G75*
G02*
X228450001Y-157600000I-249999J0D01*
G01*
X227549999Y-157600000D01*
G75*
G02*
X227300000Y-157350001I0J249999D01*
G01*
X227300000Y-156699999D01*
G75*
G02*
X227549999Y-156450000I249999J0D01*
G01*
G37*
G36*
G01*
X227549999Y-154400000D02*
X228450001Y-154400000D01*
G75*
G02*
X228700000Y-154649999I0J-249999D01*
G01*
X228700000Y-155300001D01*
G75*
G02*
X228450001Y-155550000I-249999J0D01*
G01*
X227549999Y-155550000D01*
G75*
G02*
X227300000Y-155300001I0J249999D01*
G01*
X227300000Y-154649999D01*
G75*
G02*
X227549999Y-154400000I249999J0D01*
G01*
G37*
G36*
G01*
X247549999Y-156450000D02*
X248450001Y-156450000D01*
G75*
G02*
X248700000Y-156699999I0J-249999D01*
G01*
X248700000Y-157350001D01*
G75*
G02*
X248450001Y-157600000I-249999J0D01*
G01*
X247549999Y-157600000D01*
G75*
G02*
X247300000Y-157350001I0J249999D01*
G01*
X247300000Y-156699999D01*
G75*
G02*
X247549999Y-156450000I249999J0D01*
G01*
G37*
G36*
G01*
X247549999Y-154400000D02*
X248450001Y-154400000D01*
G75*
G02*
X248700000Y-154649999I0J-249999D01*
G01*
X248700000Y-155300001D01*
G75*
G02*
X248450001Y-155550000I-249999J0D01*
G01*
X247549999Y-155550000D01*
G75*
G02*
X247300000Y-155300001I0J249999D01*
G01*
X247300000Y-154649999D01*
G75*
G02*
X247549999Y-154400000I249999J0D01*
G01*
G37*
G36*
G01*
X267549999Y-156450000D02*
X268450001Y-156450000D01*
G75*
G02*
X268700000Y-156699999I0J-249999D01*
G01*
X268700000Y-157350001D01*
G75*
G02*
X268450001Y-157600000I-249999J0D01*
G01*
X267549999Y-157600000D01*
G75*
G02*
X267300000Y-157350001I0J249999D01*
G01*
X267300000Y-156699999D01*
G75*
G02*
X267549999Y-156450000I249999J0D01*
G01*
G37*
G36*
G01*
X267549999Y-154400000D02*
X268450001Y-154400000D01*
G75*
G02*
X268700000Y-154649999I0J-249999D01*
G01*
X268700000Y-155300001D01*
G75*
G02*
X268450001Y-155550000I-249999J0D01*
G01*
X267549999Y-155550000D01*
G75*
G02*
X267300000Y-155300001I0J249999D01*
G01*
X267300000Y-154649999D01*
G75*
G02*
X267549999Y-154400000I249999J0D01*
G01*
G37*
G36*
G01*
X287549999Y-156450000D02*
X288450001Y-156450000D01*
G75*
G02*
X288700000Y-156699999I0J-249999D01*
G01*
X288700000Y-157350001D01*
G75*
G02*
X288450001Y-157600000I-249999J0D01*
G01*
X287549999Y-157600000D01*
G75*
G02*
X287300000Y-157350001I0J249999D01*
G01*
X287300000Y-156699999D01*
G75*
G02*
X287549999Y-156450000I249999J0D01*
G01*
G37*
G36*
G01*
X287549999Y-154400000D02*
X288450001Y-154400000D01*
G75*
G02*
X288700000Y-154649999I0J-249999D01*
G01*
X288700000Y-155300001D01*
G75*
G02*
X288450001Y-155550000I-249999J0D01*
G01*
X287549999Y-155550000D01*
G75*
G02*
X287300000Y-155300001I0J249999D01*
G01*
X287300000Y-154649999D01*
G75*
G02*
X287549999Y-154400000I249999J0D01*
G01*
G37*
G36*
G01*
X307549999Y-156450000D02*
X308450001Y-156450000D01*
G75*
G02*
X308700000Y-156699999I0J-249999D01*
G01*
X308700000Y-157350001D01*
G75*
G02*
X308450001Y-157600000I-249999J0D01*
G01*
X307549999Y-157600000D01*
G75*
G02*
X307300000Y-157350001I0J249999D01*
G01*
X307300000Y-156699999D01*
G75*
G02*
X307549999Y-156450000I249999J0D01*
G01*
G37*
G36*
G01*
X307549999Y-154400000D02*
X308450001Y-154400000D01*
G75*
G02*
X308700000Y-154649999I0J-249999D01*
G01*
X308700000Y-155300001D01*
G75*
G02*
X308450001Y-155550000I-249999J0D01*
G01*
X307549999Y-155550000D01*
G75*
G02*
X307300000Y-155300001I0J249999D01*
G01*
X307300000Y-154649999D01*
G75*
G02*
X307549999Y-154400000I249999J0D01*
G01*
G37*
G36*
G01*
X327549999Y-156450000D02*
X328450001Y-156450000D01*
G75*
G02*
X328700000Y-156699999I0J-249999D01*
G01*
X328700000Y-157350001D01*
G75*
G02*
X328450001Y-157600000I-249999J0D01*
G01*
X327549999Y-157600000D01*
G75*
G02*
X327300000Y-157350001I0J249999D01*
G01*
X327300000Y-156699999D01*
G75*
G02*
X327549999Y-156450000I249999J0D01*
G01*
G37*
G36*
G01*
X327549999Y-154400000D02*
X328450001Y-154400000D01*
G75*
G02*
X328700000Y-154649999I0J-249999D01*
G01*
X328700000Y-155300001D01*
G75*
G02*
X328450001Y-155550000I-249999J0D01*
G01*
X327549999Y-155550000D01*
G75*
G02*
X327300000Y-155300001I0J249999D01*
G01*
X327300000Y-154649999D01*
G75*
G02*
X327549999Y-154400000I249999J0D01*
G01*
G37*
G36*
G01*
X347549999Y-156450000D02*
X348450001Y-156450000D01*
G75*
G02*
X348700000Y-156699999I0J-249999D01*
G01*
X348700000Y-157350001D01*
G75*
G02*
X348450001Y-157600000I-249999J0D01*
G01*
X347549999Y-157600000D01*
G75*
G02*
X347300000Y-157350001I0J249999D01*
G01*
X347300000Y-156699999D01*
G75*
G02*
X347549999Y-156450000I249999J0D01*
G01*
G37*
G36*
G01*
X347549999Y-154400000D02*
X348450001Y-154400000D01*
G75*
G02*
X348700000Y-154649999I0J-249999D01*
G01*
X348700000Y-155300001D01*
G75*
G02*
X348450001Y-155550000I-249999J0D01*
G01*
X347549999Y-155550000D01*
G75*
G02*
X347300000Y-155300001I0J249999D01*
G01*
X347300000Y-154649999D01*
G75*
G02*
X347549999Y-154400000I249999J0D01*
G01*
G37*
G36*
G01*
X62549999Y-136450000D02*
X63450001Y-136450000D01*
G75*
G02*
X63700000Y-136699999I0J-249999D01*
G01*
X63700000Y-137350001D01*
G75*
G02*
X63450001Y-137600000I-249999J0D01*
G01*
X62549999Y-137600000D01*
G75*
G02*
X62300000Y-137350001I0J249999D01*
G01*
X62300000Y-136699999D01*
G75*
G02*
X62549999Y-136450000I249999J0D01*
G01*
G37*
G36*
G01*
X62549999Y-134400000D02*
X63450001Y-134400000D01*
G75*
G02*
X63700000Y-134649999I0J-249999D01*
G01*
X63700000Y-135300001D01*
G75*
G02*
X63450001Y-135550000I-249999J0D01*
G01*
X62549999Y-135550000D01*
G75*
G02*
X62300000Y-135300001I0J249999D01*
G01*
X62300000Y-134649999D01*
G75*
G02*
X62549999Y-134400000I249999J0D01*
G01*
G37*
G36*
G01*
X82549999Y-136450000D02*
X83450001Y-136450000D01*
G75*
G02*
X83700000Y-136699999I0J-249999D01*
G01*
X83700000Y-137350001D01*
G75*
G02*
X83450001Y-137600000I-249999J0D01*
G01*
X82549999Y-137600000D01*
G75*
G02*
X82300000Y-137350001I0J249999D01*
G01*
X82300000Y-136699999D01*
G75*
G02*
X82549999Y-136450000I249999J0D01*
G01*
G37*
G36*
G01*
X82549999Y-134400000D02*
X83450001Y-134400000D01*
G75*
G02*
X83700000Y-134649999I0J-249999D01*
G01*
X83700000Y-135300001D01*
G75*
G02*
X83450001Y-135550000I-249999J0D01*
G01*
X82549999Y-135550000D01*
G75*
G02*
X82300000Y-135300001I0J249999D01*
G01*
X82300000Y-134649999D01*
G75*
G02*
X82549999Y-134400000I249999J0D01*
G01*
G37*
G36*
G01*
X102549999Y-136450000D02*
X103450001Y-136450000D01*
G75*
G02*
X103700000Y-136699999I0J-249999D01*
G01*
X103700000Y-137350001D01*
G75*
G02*
X103450001Y-137600000I-249999J0D01*
G01*
X102549999Y-137600000D01*
G75*
G02*
X102300000Y-137350001I0J249999D01*
G01*
X102300000Y-136699999D01*
G75*
G02*
X102549999Y-136450000I249999J0D01*
G01*
G37*
G36*
G01*
X102549999Y-134400000D02*
X103450001Y-134400000D01*
G75*
G02*
X103700000Y-134649999I0J-249999D01*
G01*
X103700000Y-135300001D01*
G75*
G02*
X103450001Y-135550000I-249999J0D01*
G01*
X102549999Y-135550000D01*
G75*
G02*
X102300000Y-135300001I0J249999D01*
G01*
X102300000Y-134649999D01*
G75*
G02*
X102549999Y-134400000I249999J0D01*
G01*
G37*
G36*
G01*
X122549999Y-136450000D02*
X123450001Y-136450000D01*
G75*
G02*
X123700000Y-136699999I0J-249999D01*
G01*
X123700000Y-137350001D01*
G75*
G02*
X123450001Y-137600000I-249999J0D01*
G01*
X122549999Y-137600000D01*
G75*
G02*
X122300000Y-137350001I0J249999D01*
G01*
X122300000Y-136699999D01*
G75*
G02*
X122549999Y-136450000I249999J0D01*
G01*
G37*
G36*
G01*
X122549999Y-134400000D02*
X123450001Y-134400000D01*
G75*
G02*
X123700000Y-134649999I0J-249999D01*
G01*
X123700000Y-135300001D01*
G75*
G02*
X123450001Y-135550000I-249999J0D01*
G01*
X122549999Y-135550000D01*
G75*
G02*
X122300000Y-135300001I0J249999D01*
G01*
X122300000Y-134649999D01*
G75*
G02*
X122549999Y-134400000I249999J0D01*
G01*
G37*
G36*
G01*
X142549999Y-136450000D02*
X143450001Y-136450000D01*
G75*
G02*
X143700000Y-136699999I0J-249999D01*
G01*
X143700000Y-137350001D01*
G75*
G02*
X143450001Y-137600000I-249999J0D01*
G01*
X142549999Y-137600000D01*
G75*
G02*
X142300000Y-137350001I0J249999D01*
G01*
X142300000Y-136699999D01*
G75*
G02*
X142549999Y-136450000I249999J0D01*
G01*
G37*
G36*
G01*
X142549999Y-134400000D02*
X143450001Y-134400000D01*
G75*
G02*
X143700000Y-134649999I0J-249999D01*
G01*
X143700000Y-135300001D01*
G75*
G02*
X143450001Y-135550000I-249999J0D01*
G01*
X142549999Y-135550000D01*
G75*
G02*
X142300000Y-135300001I0J249999D01*
G01*
X142300000Y-134649999D01*
G75*
G02*
X142549999Y-134400000I249999J0D01*
G01*
G37*
G36*
G01*
X162549999Y-136450000D02*
X163450001Y-136450000D01*
G75*
G02*
X163700000Y-136699999I0J-249999D01*
G01*
X163700000Y-137350001D01*
G75*
G02*
X163450001Y-137600000I-249999J0D01*
G01*
X162549999Y-137600000D01*
G75*
G02*
X162300000Y-137350001I0J249999D01*
G01*
X162300000Y-136699999D01*
G75*
G02*
X162549999Y-136450000I249999J0D01*
G01*
G37*
G36*
G01*
X162549999Y-134400000D02*
X163450001Y-134400000D01*
G75*
G02*
X163700000Y-134649999I0J-249999D01*
G01*
X163700000Y-135300001D01*
G75*
G02*
X163450001Y-135550000I-249999J0D01*
G01*
X162549999Y-135550000D01*
G75*
G02*
X162300000Y-135300001I0J249999D01*
G01*
X162300000Y-134649999D01*
G75*
G02*
X162549999Y-134400000I249999J0D01*
G01*
G37*
G36*
G01*
X182549999Y-136450000D02*
X183450001Y-136450000D01*
G75*
G02*
X183700000Y-136699999I0J-249999D01*
G01*
X183700000Y-137350001D01*
G75*
G02*
X183450001Y-137600000I-249999J0D01*
G01*
X182549999Y-137600000D01*
G75*
G02*
X182300000Y-137350001I0J249999D01*
G01*
X182300000Y-136699999D01*
G75*
G02*
X182549999Y-136450000I249999J0D01*
G01*
G37*
G36*
G01*
X182549999Y-134400000D02*
X183450001Y-134400000D01*
G75*
G02*
X183700000Y-134649999I0J-249999D01*
G01*
X183700000Y-135300001D01*
G75*
G02*
X183450001Y-135550000I-249999J0D01*
G01*
X182549999Y-135550000D01*
G75*
G02*
X182300000Y-135300001I0J249999D01*
G01*
X182300000Y-134649999D01*
G75*
G02*
X182549999Y-134400000I249999J0D01*
G01*
G37*
G36*
G01*
X202549999Y-136450000D02*
X203450001Y-136450000D01*
G75*
G02*
X203700000Y-136699999I0J-249999D01*
G01*
X203700000Y-137350001D01*
G75*
G02*
X203450001Y-137600000I-249999J0D01*
G01*
X202549999Y-137600000D01*
G75*
G02*
X202300000Y-137350001I0J249999D01*
G01*
X202300000Y-136699999D01*
G75*
G02*
X202549999Y-136450000I249999J0D01*
G01*
G37*
G36*
G01*
X202549999Y-134400000D02*
X203450001Y-134400000D01*
G75*
G02*
X203700000Y-134649999I0J-249999D01*
G01*
X203700000Y-135300001D01*
G75*
G02*
X203450001Y-135550000I-249999J0D01*
G01*
X202549999Y-135550000D01*
G75*
G02*
X202300000Y-135300001I0J249999D01*
G01*
X202300000Y-134649999D01*
G75*
G02*
X202549999Y-134400000I249999J0D01*
G01*
G37*
G36*
G01*
X57549999Y-136450000D02*
X58450001Y-136450000D01*
G75*
G02*
X58700000Y-136699999I0J-249999D01*
G01*
X58700000Y-137350001D01*
G75*
G02*
X58450001Y-137600000I-249999J0D01*
G01*
X57549999Y-137600000D01*
G75*
G02*
X57300000Y-137350001I0J249999D01*
G01*
X57300000Y-136699999D01*
G75*
G02*
X57549999Y-136450000I249999J0D01*
G01*
G37*
G36*
G01*
X57549999Y-134400000D02*
X58450001Y-134400000D01*
G75*
G02*
X58700000Y-134649999I0J-249999D01*
G01*
X58700000Y-135300001D01*
G75*
G02*
X58450001Y-135550000I-249999J0D01*
G01*
X57549999Y-135550000D01*
G75*
G02*
X57300000Y-135300001I0J249999D01*
G01*
X57300000Y-134649999D01*
G75*
G02*
X57549999Y-134400000I249999J0D01*
G01*
G37*
G36*
G01*
X77549999Y-136450000D02*
X78450001Y-136450000D01*
G75*
G02*
X78700000Y-136699999I0J-249999D01*
G01*
X78700000Y-137350001D01*
G75*
G02*
X78450001Y-137600000I-249999J0D01*
G01*
X77549999Y-137600000D01*
G75*
G02*
X77300000Y-137350001I0J249999D01*
G01*
X77300000Y-136699999D01*
G75*
G02*
X77549999Y-136450000I249999J0D01*
G01*
G37*
G36*
G01*
X77549999Y-134400000D02*
X78450001Y-134400000D01*
G75*
G02*
X78700000Y-134649999I0J-249999D01*
G01*
X78700000Y-135300001D01*
G75*
G02*
X78450001Y-135550000I-249999J0D01*
G01*
X77549999Y-135550000D01*
G75*
G02*
X77300000Y-135300001I0J249999D01*
G01*
X77300000Y-134649999D01*
G75*
G02*
X77549999Y-134400000I249999J0D01*
G01*
G37*
G36*
G01*
X97549999Y-136450000D02*
X98450001Y-136450000D01*
G75*
G02*
X98700000Y-136699999I0J-249999D01*
G01*
X98700000Y-137350001D01*
G75*
G02*
X98450001Y-137600000I-249999J0D01*
G01*
X97549999Y-137600000D01*
G75*
G02*
X97300000Y-137350001I0J249999D01*
G01*
X97300000Y-136699999D01*
G75*
G02*
X97549999Y-136450000I249999J0D01*
G01*
G37*
G36*
G01*
X97549999Y-134400000D02*
X98450001Y-134400000D01*
G75*
G02*
X98700000Y-134649999I0J-249999D01*
G01*
X98700000Y-135300001D01*
G75*
G02*
X98450001Y-135550000I-249999J0D01*
G01*
X97549999Y-135550000D01*
G75*
G02*
X97300000Y-135300001I0J249999D01*
G01*
X97300000Y-134649999D01*
G75*
G02*
X97549999Y-134400000I249999J0D01*
G01*
G37*
G36*
G01*
X117549999Y-136450000D02*
X118450001Y-136450000D01*
G75*
G02*
X118700000Y-136699999I0J-249999D01*
G01*
X118700000Y-137350001D01*
G75*
G02*
X118450001Y-137600000I-249999J0D01*
G01*
X117549999Y-137600000D01*
G75*
G02*
X117300000Y-137350001I0J249999D01*
G01*
X117300000Y-136699999D01*
G75*
G02*
X117549999Y-136450000I249999J0D01*
G01*
G37*
G36*
G01*
X117549999Y-134400000D02*
X118450001Y-134400000D01*
G75*
G02*
X118700000Y-134649999I0J-249999D01*
G01*
X118700000Y-135300001D01*
G75*
G02*
X118450001Y-135550000I-249999J0D01*
G01*
X117549999Y-135550000D01*
G75*
G02*
X117300000Y-135300001I0J249999D01*
G01*
X117300000Y-134649999D01*
G75*
G02*
X117549999Y-134400000I249999J0D01*
G01*
G37*
G36*
G01*
X137549999Y-136450000D02*
X138450001Y-136450000D01*
G75*
G02*
X138700000Y-136699999I0J-249999D01*
G01*
X138700000Y-137350001D01*
G75*
G02*
X138450001Y-137600000I-249999J0D01*
G01*
X137549999Y-137600000D01*
G75*
G02*
X137300000Y-137350001I0J249999D01*
G01*
X137300000Y-136699999D01*
G75*
G02*
X137549999Y-136450000I249999J0D01*
G01*
G37*
G36*
G01*
X137549999Y-134400000D02*
X138450001Y-134400000D01*
G75*
G02*
X138700000Y-134649999I0J-249999D01*
G01*
X138700000Y-135300001D01*
G75*
G02*
X138450001Y-135550000I-249999J0D01*
G01*
X137549999Y-135550000D01*
G75*
G02*
X137300000Y-135300001I0J249999D01*
G01*
X137300000Y-134649999D01*
G75*
G02*
X137549999Y-134400000I249999J0D01*
G01*
G37*
G36*
G01*
X157549999Y-136450000D02*
X158450001Y-136450000D01*
G75*
G02*
X158700000Y-136699999I0J-249999D01*
G01*
X158700000Y-137350001D01*
G75*
G02*
X158450001Y-137600000I-249999J0D01*
G01*
X157549999Y-137600000D01*
G75*
G02*
X157300000Y-137350001I0J249999D01*
G01*
X157300000Y-136699999D01*
G75*
G02*
X157549999Y-136450000I249999J0D01*
G01*
G37*
G36*
G01*
X157549999Y-134400000D02*
X158450001Y-134400000D01*
G75*
G02*
X158700000Y-134649999I0J-249999D01*
G01*
X158700000Y-135300001D01*
G75*
G02*
X158450001Y-135550000I-249999J0D01*
G01*
X157549999Y-135550000D01*
G75*
G02*
X157300000Y-135300001I0J249999D01*
G01*
X157300000Y-134649999D01*
G75*
G02*
X157549999Y-134400000I249999J0D01*
G01*
G37*
G36*
G01*
X177549999Y-136450000D02*
X178450001Y-136450000D01*
G75*
G02*
X178700000Y-136699999I0J-249999D01*
G01*
X178700000Y-137350001D01*
G75*
G02*
X178450001Y-137600000I-249999J0D01*
G01*
X177549999Y-137600000D01*
G75*
G02*
X177300000Y-137350001I0J249999D01*
G01*
X177300000Y-136699999D01*
G75*
G02*
X177549999Y-136450000I249999J0D01*
G01*
G37*
G36*
G01*
X177549999Y-134400000D02*
X178450001Y-134400000D01*
G75*
G02*
X178700000Y-134649999I0J-249999D01*
G01*
X178700000Y-135300001D01*
G75*
G02*
X178450001Y-135550000I-249999J0D01*
G01*
X177549999Y-135550000D01*
G75*
G02*
X177300000Y-135300001I0J249999D01*
G01*
X177300000Y-134649999D01*
G75*
G02*
X177549999Y-134400000I249999J0D01*
G01*
G37*
G36*
G01*
X197549999Y-136450000D02*
X198450001Y-136450000D01*
G75*
G02*
X198700000Y-136699999I0J-249999D01*
G01*
X198700000Y-137350001D01*
G75*
G02*
X198450001Y-137600000I-249999J0D01*
G01*
X197549999Y-137600000D01*
G75*
G02*
X197300000Y-137350001I0J249999D01*
G01*
X197300000Y-136699999D01*
G75*
G02*
X197549999Y-136450000I249999J0D01*
G01*
G37*
G36*
G01*
X197549999Y-134400000D02*
X198450001Y-134400000D01*
G75*
G02*
X198700000Y-134649999I0J-249999D01*
G01*
X198700000Y-135300001D01*
G75*
G02*
X198450001Y-135550000I-249999J0D01*
G01*
X197549999Y-135550000D01*
G75*
G02*
X197300000Y-135300001I0J249999D01*
G01*
X197300000Y-134649999D01*
G75*
G02*
X197549999Y-134400000I249999J0D01*
G01*
G37*
G36*
G01*
X52549999Y-136450000D02*
X53450001Y-136450000D01*
G75*
G02*
X53700000Y-136699999I0J-249999D01*
G01*
X53700000Y-137350001D01*
G75*
G02*
X53450001Y-137600000I-249999J0D01*
G01*
X52549999Y-137600000D01*
G75*
G02*
X52300000Y-137350001I0J249999D01*
G01*
X52300000Y-136699999D01*
G75*
G02*
X52549999Y-136450000I249999J0D01*
G01*
G37*
G36*
G01*
X52549999Y-134400000D02*
X53450001Y-134400000D01*
G75*
G02*
X53700000Y-134649999I0J-249999D01*
G01*
X53700000Y-135300001D01*
G75*
G02*
X53450001Y-135550000I-249999J0D01*
G01*
X52549999Y-135550000D01*
G75*
G02*
X52300000Y-135300001I0J249999D01*
G01*
X52300000Y-134649999D01*
G75*
G02*
X52549999Y-134400000I249999J0D01*
G01*
G37*
G36*
G01*
X72549999Y-136450000D02*
X73450001Y-136450000D01*
G75*
G02*
X73700000Y-136699999I0J-249999D01*
G01*
X73700000Y-137350001D01*
G75*
G02*
X73450001Y-137600000I-249999J0D01*
G01*
X72549999Y-137600000D01*
G75*
G02*
X72300000Y-137350001I0J249999D01*
G01*
X72300000Y-136699999D01*
G75*
G02*
X72549999Y-136450000I249999J0D01*
G01*
G37*
G36*
G01*
X72549999Y-134400000D02*
X73450001Y-134400000D01*
G75*
G02*
X73700000Y-134649999I0J-249999D01*
G01*
X73700000Y-135300001D01*
G75*
G02*
X73450001Y-135550000I-249999J0D01*
G01*
X72549999Y-135550000D01*
G75*
G02*
X72300000Y-135300001I0J249999D01*
G01*
X72300000Y-134649999D01*
G75*
G02*
X72549999Y-134400000I249999J0D01*
G01*
G37*
G36*
G01*
X92549999Y-136450000D02*
X93450001Y-136450000D01*
G75*
G02*
X93700000Y-136699999I0J-249999D01*
G01*
X93700000Y-137350001D01*
G75*
G02*
X93450001Y-137600000I-249999J0D01*
G01*
X92549999Y-137600000D01*
G75*
G02*
X92300000Y-137350001I0J249999D01*
G01*
X92300000Y-136699999D01*
G75*
G02*
X92549999Y-136450000I249999J0D01*
G01*
G37*
G36*
G01*
X92549999Y-134400000D02*
X93450001Y-134400000D01*
G75*
G02*
X93700000Y-134649999I0J-249999D01*
G01*
X93700000Y-135300001D01*
G75*
G02*
X93450001Y-135550000I-249999J0D01*
G01*
X92549999Y-135550000D01*
G75*
G02*
X92300000Y-135300001I0J249999D01*
G01*
X92300000Y-134649999D01*
G75*
G02*
X92549999Y-134400000I249999J0D01*
G01*
G37*
G36*
G01*
X112549999Y-136450000D02*
X113450001Y-136450000D01*
G75*
G02*
X113700000Y-136699999I0J-249999D01*
G01*
X113700000Y-137350001D01*
G75*
G02*
X113450001Y-137600000I-249999J0D01*
G01*
X112549999Y-137600000D01*
G75*
G02*
X112300000Y-137350001I0J249999D01*
G01*
X112300000Y-136699999D01*
G75*
G02*
X112549999Y-136450000I249999J0D01*
G01*
G37*
G36*
G01*
X112549999Y-134400000D02*
X113450001Y-134400000D01*
G75*
G02*
X113700000Y-134649999I0J-249999D01*
G01*
X113700000Y-135300001D01*
G75*
G02*
X113450001Y-135550000I-249999J0D01*
G01*
X112549999Y-135550000D01*
G75*
G02*
X112300000Y-135300001I0J249999D01*
G01*
X112300000Y-134649999D01*
G75*
G02*
X112549999Y-134400000I249999J0D01*
G01*
G37*
G36*
G01*
X132549999Y-136450000D02*
X133450001Y-136450000D01*
G75*
G02*
X133700000Y-136699999I0J-249999D01*
G01*
X133700000Y-137350001D01*
G75*
G02*
X133450001Y-137600000I-249999J0D01*
G01*
X132549999Y-137600000D01*
G75*
G02*
X132300000Y-137350001I0J249999D01*
G01*
X132300000Y-136699999D01*
G75*
G02*
X132549999Y-136450000I249999J0D01*
G01*
G37*
G36*
G01*
X132549999Y-134400000D02*
X133450001Y-134400000D01*
G75*
G02*
X133700000Y-134649999I0J-249999D01*
G01*
X133700000Y-135300001D01*
G75*
G02*
X133450001Y-135550000I-249999J0D01*
G01*
X132549999Y-135550000D01*
G75*
G02*
X132300000Y-135300001I0J249999D01*
G01*
X132300000Y-134649999D01*
G75*
G02*
X132549999Y-134400000I249999J0D01*
G01*
G37*
G36*
G01*
X152549999Y-136450000D02*
X153450001Y-136450000D01*
G75*
G02*
X153700000Y-136699999I0J-249999D01*
G01*
X153700000Y-137350001D01*
G75*
G02*
X153450001Y-137600000I-249999J0D01*
G01*
X152549999Y-137600000D01*
G75*
G02*
X152300000Y-137350001I0J249999D01*
G01*
X152300000Y-136699999D01*
G75*
G02*
X152549999Y-136450000I249999J0D01*
G01*
G37*
G36*
G01*
X152549999Y-134400000D02*
X153450001Y-134400000D01*
G75*
G02*
X153700000Y-134649999I0J-249999D01*
G01*
X153700000Y-135300001D01*
G75*
G02*
X153450001Y-135550000I-249999J0D01*
G01*
X152549999Y-135550000D01*
G75*
G02*
X152300000Y-135300001I0J249999D01*
G01*
X152300000Y-134649999D01*
G75*
G02*
X152549999Y-134400000I249999J0D01*
G01*
G37*
G36*
G01*
X172549999Y-136450000D02*
X173450001Y-136450000D01*
G75*
G02*
X173700000Y-136699999I0J-249999D01*
G01*
X173700000Y-137350001D01*
G75*
G02*
X173450001Y-137600000I-249999J0D01*
G01*
X172549999Y-137600000D01*
G75*
G02*
X172300000Y-137350001I0J249999D01*
G01*
X172300000Y-136699999D01*
G75*
G02*
X172549999Y-136450000I249999J0D01*
G01*
G37*
G36*
G01*
X172549999Y-134400000D02*
X173450001Y-134400000D01*
G75*
G02*
X173700000Y-134649999I0J-249999D01*
G01*
X173700000Y-135300001D01*
G75*
G02*
X173450001Y-135550000I-249999J0D01*
G01*
X172549999Y-135550000D01*
G75*
G02*
X172300000Y-135300001I0J249999D01*
G01*
X172300000Y-134649999D01*
G75*
G02*
X172549999Y-134400000I249999J0D01*
G01*
G37*
G36*
G01*
X192549999Y-136450000D02*
X193450001Y-136450000D01*
G75*
G02*
X193700000Y-136699999I0J-249999D01*
G01*
X193700000Y-137350001D01*
G75*
G02*
X193450001Y-137600000I-249999J0D01*
G01*
X192549999Y-137600000D01*
G75*
G02*
X192300000Y-137350001I0J249999D01*
G01*
X192300000Y-136699999D01*
G75*
G02*
X192549999Y-136450000I249999J0D01*
G01*
G37*
G36*
G01*
X192549999Y-134400000D02*
X193450001Y-134400000D01*
G75*
G02*
X193700000Y-134649999I0J-249999D01*
G01*
X193700000Y-135300001D01*
G75*
G02*
X193450001Y-135550000I-249999J0D01*
G01*
X192549999Y-135550000D01*
G75*
G02*
X192300000Y-135300001I0J249999D01*
G01*
X192300000Y-134649999D01*
G75*
G02*
X192549999Y-134400000I249999J0D01*
G01*
G37*
G36*
G01*
X47549999Y-136450000D02*
X48450001Y-136450000D01*
G75*
G02*
X48700000Y-136699999I0J-249999D01*
G01*
X48700000Y-137350001D01*
G75*
G02*
X48450001Y-137600000I-249999J0D01*
G01*
X47549999Y-137600000D01*
G75*
G02*
X47300000Y-137350001I0J249999D01*
G01*
X47300000Y-136699999D01*
G75*
G02*
X47549999Y-136450000I249999J0D01*
G01*
G37*
G36*
G01*
X47549999Y-134400000D02*
X48450001Y-134400000D01*
G75*
G02*
X48700000Y-134649999I0J-249999D01*
G01*
X48700000Y-135300001D01*
G75*
G02*
X48450001Y-135550000I-249999J0D01*
G01*
X47549999Y-135550000D01*
G75*
G02*
X47300000Y-135300001I0J249999D01*
G01*
X47300000Y-134649999D01*
G75*
G02*
X47549999Y-134400000I249999J0D01*
G01*
G37*
G36*
G01*
X67549999Y-136450000D02*
X68450001Y-136450000D01*
G75*
G02*
X68700000Y-136699999I0J-249999D01*
G01*
X68700000Y-137350001D01*
G75*
G02*
X68450001Y-137600000I-249999J0D01*
G01*
X67549999Y-137600000D01*
G75*
G02*
X67300000Y-137350001I0J249999D01*
G01*
X67300000Y-136699999D01*
G75*
G02*
X67549999Y-136450000I249999J0D01*
G01*
G37*
G36*
G01*
X67549999Y-134400000D02*
X68450001Y-134400000D01*
G75*
G02*
X68700000Y-134649999I0J-249999D01*
G01*
X68700000Y-135300001D01*
G75*
G02*
X68450001Y-135550000I-249999J0D01*
G01*
X67549999Y-135550000D01*
G75*
G02*
X67300000Y-135300001I0J249999D01*
G01*
X67300000Y-134649999D01*
G75*
G02*
X67549999Y-134400000I249999J0D01*
G01*
G37*
G36*
G01*
X87549999Y-136450000D02*
X88450001Y-136450000D01*
G75*
G02*
X88700000Y-136699999I0J-249999D01*
G01*
X88700000Y-137350001D01*
G75*
G02*
X88450001Y-137600000I-249999J0D01*
G01*
X87549999Y-137600000D01*
G75*
G02*
X87300000Y-137350001I0J249999D01*
G01*
X87300000Y-136699999D01*
G75*
G02*
X87549999Y-136450000I249999J0D01*
G01*
G37*
G36*
G01*
X87549999Y-134400000D02*
X88450001Y-134400000D01*
G75*
G02*
X88700000Y-134649999I0J-249999D01*
G01*
X88700000Y-135300001D01*
G75*
G02*
X88450001Y-135550000I-249999J0D01*
G01*
X87549999Y-135550000D01*
G75*
G02*
X87300000Y-135300001I0J249999D01*
G01*
X87300000Y-134649999D01*
G75*
G02*
X87549999Y-134400000I249999J0D01*
G01*
G37*
G36*
G01*
X107549999Y-136450000D02*
X108450001Y-136450000D01*
G75*
G02*
X108700000Y-136699999I0J-249999D01*
G01*
X108700000Y-137350001D01*
G75*
G02*
X108450001Y-137600000I-249999J0D01*
G01*
X107549999Y-137600000D01*
G75*
G02*
X107300000Y-137350001I0J249999D01*
G01*
X107300000Y-136699999D01*
G75*
G02*
X107549999Y-136450000I249999J0D01*
G01*
G37*
G36*
G01*
X107549999Y-134400000D02*
X108450001Y-134400000D01*
G75*
G02*
X108700000Y-134649999I0J-249999D01*
G01*
X108700000Y-135300001D01*
G75*
G02*
X108450001Y-135550000I-249999J0D01*
G01*
X107549999Y-135550000D01*
G75*
G02*
X107300000Y-135300001I0J249999D01*
G01*
X107300000Y-134649999D01*
G75*
G02*
X107549999Y-134400000I249999J0D01*
G01*
G37*
G36*
G01*
X127549999Y-136450000D02*
X128450001Y-136450000D01*
G75*
G02*
X128700000Y-136699999I0J-249999D01*
G01*
X128700000Y-137350001D01*
G75*
G02*
X128450001Y-137600000I-249999J0D01*
G01*
X127549999Y-137600000D01*
G75*
G02*
X127300000Y-137350001I0J249999D01*
G01*
X127300000Y-136699999D01*
G75*
G02*
X127549999Y-136450000I249999J0D01*
G01*
G37*
G36*
G01*
X127549999Y-134400000D02*
X128450001Y-134400000D01*
G75*
G02*
X128700000Y-134649999I0J-249999D01*
G01*
X128700000Y-135300001D01*
G75*
G02*
X128450001Y-135550000I-249999J0D01*
G01*
X127549999Y-135550000D01*
G75*
G02*
X127300000Y-135300001I0J249999D01*
G01*
X127300000Y-134649999D01*
G75*
G02*
X127549999Y-134400000I249999J0D01*
G01*
G37*
G36*
G01*
X147549999Y-136450000D02*
X148450001Y-136450000D01*
G75*
G02*
X148700000Y-136699999I0J-249999D01*
G01*
X148700000Y-137350001D01*
G75*
G02*
X148450001Y-137600000I-249999J0D01*
G01*
X147549999Y-137600000D01*
G75*
G02*
X147300000Y-137350001I0J249999D01*
G01*
X147300000Y-136699999D01*
G75*
G02*
X147549999Y-136450000I249999J0D01*
G01*
G37*
G36*
G01*
X147549999Y-134400000D02*
X148450001Y-134400000D01*
G75*
G02*
X148700000Y-134649999I0J-249999D01*
G01*
X148700000Y-135300001D01*
G75*
G02*
X148450001Y-135550000I-249999J0D01*
G01*
X147549999Y-135550000D01*
G75*
G02*
X147300000Y-135300001I0J249999D01*
G01*
X147300000Y-134649999D01*
G75*
G02*
X147549999Y-134400000I249999J0D01*
G01*
G37*
G36*
G01*
X167549999Y-136450000D02*
X168450001Y-136450000D01*
G75*
G02*
X168700000Y-136699999I0J-249999D01*
G01*
X168700000Y-137350001D01*
G75*
G02*
X168450001Y-137600000I-249999J0D01*
G01*
X167549999Y-137600000D01*
G75*
G02*
X167300000Y-137350001I0J249999D01*
G01*
X167300000Y-136699999D01*
G75*
G02*
X167549999Y-136450000I249999J0D01*
G01*
G37*
G36*
G01*
X167549999Y-134400000D02*
X168450001Y-134400000D01*
G75*
G02*
X168700000Y-134649999I0J-249999D01*
G01*
X168700000Y-135300001D01*
G75*
G02*
X168450001Y-135550000I-249999J0D01*
G01*
X167549999Y-135550000D01*
G75*
G02*
X167300000Y-135300001I0J249999D01*
G01*
X167300000Y-134649999D01*
G75*
G02*
X167549999Y-134400000I249999J0D01*
G01*
G37*
G36*
G01*
X187549999Y-136450000D02*
X188450001Y-136450000D01*
G75*
G02*
X188700000Y-136699999I0J-249999D01*
G01*
X188700000Y-137350001D01*
G75*
G02*
X188450001Y-137600000I-249999J0D01*
G01*
X187549999Y-137600000D01*
G75*
G02*
X187300000Y-137350001I0J249999D01*
G01*
X187300000Y-136699999D01*
G75*
G02*
X187549999Y-136450000I249999J0D01*
G01*
G37*
G36*
G01*
X187549999Y-134400000D02*
X188450001Y-134400000D01*
G75*
G02*
X188700000Y-134649999I0J-249999D01*
G01*
X188700000Y-135300001D01*
G75*
G02*
X188450001Y-135550000I-249999J0D01*
G01*
X187549999Y-135550000D01*
G75*
G02*
X187300000Y-135300001I0J249999D01*
G01*
X187300000Y-134649999D01*
G75*
G02*
X187549999Y-134400000I249999J0D01*
G01*
G37*
G36*
G01*
X222549999Y-136450000D02*
X223450001Y-136450000D01*
G75*
G02*
X223700000Y-136699999I0J-249999D01*
G01*
X223700000Y-137350001D01*
G75*
G02*
X223450001Y-137600000I-249999J0D01*
G01*
X222549999Y-137600000D01*
G75*
G02*
X222300000Y-137350001I0J249999D01*
G01*
X222300000Y-136699999D01*
G75*
G02*
X222549999Y-136450000I249999J0D01*
G01*
G37*
G36*
G01*
X222549999Y-134400000D02*
X223450001Y-134400000D01*
G75*
G02*
X223700000Y-134649999I0J-249999D01*
G01*
X223700000Y-135300001D01*
G75*
G02*
X223450001Y-135550000I-249999J0D01*
G01*
X222549999Y-135550000D01*
G75*
G02*
X222300000Y-135300001I0J249999D01*
G01*
X222300000Y-134649999D01*
G75*
G02*
X222549999Y-134400000I249999J0D01*
G01*
G37*
G36*
G01*
X242549999Y-136450000D02*
X243450001Y-136450000D01*
G75*
G02*
X243700000Y-136699999I0J-249999D01*
G01*
X243700000Y-137350001D01*
G75*
G02*
X243450001Y-137600000I-249999J0D01*
G01*
X242549999Y-137600000D01*
G75*
G02*
X242300000Y-137350001I0J249999D01*
G01*
X242300000Y-136699999D01*
G75*
G02*
X242549999Y-136450000I249999J0D01*
G01*
G37*
G36*
G01*
X242549999Y-134400000D02*
X243450001Y-134400000D01*
G75*
G02*
X243700000Y-134649999I0J-249999D01*
G01*
X243700000Y-135300001D01*
G75*
G02*
X243450001Y-135550000I-249999J0D01*
G01*
X242549999Y-135550000D01*
G75*
G02*
X242300000Y-135300001I0J249999D01*
G01*
X242300000Y-134649999D01*
G75*
G02*
X242549999Y-134400000I249999J0D01*
G01*
G37*
G36*
G01*
X262549999Y-136450000D02*
X263450001Y-136450000D01*
G75*
G02*
X263700000Y-136699999I0J-249999D01*
G01*
X263700000Y-137350001D01*
G75*
G02*
X263450001Y-137600000I-249999J0D01*
G01*
X262549999Y-137600000D01*
G75*
G02*
X262300000Y-137350001I0J249999D01*
G01*
X262300000Y-136699999D01*
G75*
G02*
X262549999Y-136450000I249999J0D01*
G01*
G37*
G36*
G01*
X262549999Y-134400000D02*
X263450001Y-134400000D01*
G75*
G02*
X263700000Y-134649999I0J-249999D01*
G01*
X263700000Y-135300001D01*
G75*
G02*
X263450001Y-135550000I-249999J0D01*
G01*
X262549999Y-135550000D01*
G75*
G02*
X262300000Y-135300001I0J249999D01*
G01*
X262300000Y-134649999D01*
G75*
G02*
X262549999Y-134400000I249999J0D01*
G01*
G37*
G36*
G01*
X282549999Y-136450000D02*
X283450001Y-136450000D01*
G75*
G02*
X283700000Y-136699999I0J-249999D01*
G01*
X283700000Y-137350001D01*
G75*
G02*
X283450001Y-137600000I-249999J0D01*
G01*
X282549999Y-137600000D01*
G75*
G02*
X282300000Y-137350001I0J249999D01*
G01*
X282300000Y-136699999D01*
G75*
G02*
X282549999Y-136450000I249999J0D01*
G01*
G37*
G36*
G01*
X282549999Y-134400000D02*
X283450001Y-134400000D01*
G75*
G02*
X283700000Y-134649999I0J-249999D01*
G01*
X283700000Y-135300001D01*
G75*
G02*
X283450001Y-135550000I-249999J0D01*
G01*
X282549999Y-135550000D01*
G75*
G02*
X282300000Y-135300001I0J249999D01*
G01*
X282300000Y-134649999D01*
G75*
G02*
X282549999Y-134400000I249999J0D01*
G01*
G37*
G36*
G01*
X302549999Y-136450000D02*
X303450001Y-136450000D01*
G75*
G02*
X303700000Y-136699999I0J-249999D01*
G01*
X303700000Y-137350001D01*
G75*
G02*
X303450001Y-137600000I-249999J0D01*
G01*
X302549999Y-137600000D01*
G75*
G02*
X302300000Y-137350001I0J249999D01*
G01*
X302300000Y-136699999D01*
G75*
G02*
X302549999Y-136450000I249999J0D01*
G01*
G37*
G36*
G01*
X302549999Y-134400000D02*
X303450001Y-134400000D01*
G75*
G02*
X303700000Y-134649999I0J-249999D01*
G01*
X303700000Y-135300001D01*
G75*
G02*
X303450001Y-135550000I-249999J0D01*
G01*
X302549999Y-135550000D01*
G75*
G02*
X302300000Y-135300001I0J249999D01*
G01*
X302300000Y-134649999D01*
G75*
G02*
X302549999Y-134400000I249999J0D01*
G01*
G37*
G36*
G01*
X322549999Y-136450000D02*
X323450001Y-136450000D01*
G75*
G02*
X323700000Y-136699999I0J-249999D01*
G01*
X323700000Y-137350001D01*
G75*
G02*
X323450001Y-137600000I-249999J0D01*
G01*
X322549999Y-137600000D01*
G75*
G02*
X322300000Y-137350001I0J249999D01*
G01*
X322300000Y-136699999D01*
G75*
G02*
X322549999Y-136450000I249999J0D01*
G01*
G37*
G36*
G01*
X322549999Y-134400000D02*
X323450001Y-134400000D01*
G75*
G02*
X323700000Y-134649999I0J-249999D01*
G01*
X323700000Y-135300001D01*
G75*
G02*
X323450001Y-135550000I-249999J0D01*
G01*
X322549999Y-135550000D01*
G75*
G02*
X322300000Y-135300001I0J249999D01*
G01*
X322300000Y-134649999D01*
G75*
G02*
X322549999Y-134400000I249999J0D01*
G01*
G37*
G36*
G01*
X342549999Y-136450000D02*
X343450001Y-136450000D01*
G75*
G02*
X343700000Y-136699999I0J-249999D01*
G01*
X343700000Y-137350001D01*
G75*
G02*
X343450001Y-137600000I-249999J0D01*
G01*
X342549999Y-137600000D01*
G75*
G02*
X342300000Y-137350001I0J249999D01*
G01*
X342300000Y-136699999D01*
G75*
G02*
X342549999Y-136450000I249999J0D01*
G01*
G37*
G36*
G01*
X342549999Y-134400000D02*
X343450001Y-134400000D01*
G75*
G02*
X343700000Y-134649999I0J-249999D01*
G01*
X343700000Y-135300001D01*
G75*
G02*
X343450001Y-135550000I-249999J0D01*
G01*
X342549999Y-135550000D01*
G75*
G02*
X342300000Y-135300001I0J249999D01*
G01*
X342300000Y-134649999D01*
G75*
G02*
X342549999Y-134400000I249999J0D01*
G01*
G37*
G36*
G01*
X362549999Y-136450000D02*
X363450001Y-136450000D01*
G75*
G02*
X363700000Y-136699999I0J-249999D01*
G01*
X363700000Y-137350001D01*
G75*
G02*
X363450001Y-137600000I-249999J0D01*
G01*
X362549999Y-137600000D01*
G75*
G02*
X362300000Y-137350001I0J249999D01*
G01*
X362300000Y-136699999D01*
G75*
G02*
X362549999Y-136450000I249999J0D01*
G01*
G37*
G36*
G01*
X362549999Y-134400000D02*
X363450001Y-134400000D01*
G75*
G02*
X363700000Y-134649999I0J-249999D01*
G01*
X363700000Y-135300001D01*
G75*
G02*
X363450001Y-135550000I-249999J0D01*
G01*
X362549999Y-135550000D01*
G75*
G02*
X362300000Y-135300001I0J249999D01*
G01*
X362300000Y-134649999D01*
G75*
G02*
X362549999Y-134400000I249999J0D01*
G01*
G37*
G36*
G01*
X217549999Y-136450000D02*
X218450001Y-136450000D01*
G75*
G02*
X218700000Y-136699999I0J-249999D01*
G01*
X218700000Y-137350001D01*
G75*
G02*
X218450001Y-137600000I-249999J0D01*
G01*
X217549999Y-137600000D01*
G75*
G02*
X217300000Y-137350001I0J249999D01*
G01*
X217300000Y-136699999D01*
G75*
G02*
X217549999Y-136450000I249999J0D01*
G01*
G37*
G36*
G01*
X217549999Y-134400000D02*
X218450001Y-134400000D01*
G75*
G02*
X218700000Y-134649999I0J-249999D01*
G01*
X218700000Y-135300001D01*
G75*
G02*
X218450001Y-135550000I-249999J0D01*
G01*
X217549999Y-135550000D01*
G75*
G02*
X217300000Y-135300001I0J249999D01*
G01*
X217300000Y-134649999D01*
G75*
G02*
X217549999Y-134400000I249999J0D01*
G01*
G37*
G36*
G01*
X237549999Y-136450000D02*
X238450001Y-136450000D01*
G75*
G02*
X238700000Y-136699999I0J-249999D01*
G01*
X238700000Y-137350001D01*
G75*
G02*
X238450001Y-137600000I-249999J0D01*
G01*
X237549999Y-137600000D01*
G75*
G02*
X237300000Y-137350001I0J249999D01*
G01*
X237300000Y-136699999D01*
G75*
G02*
X237549999Y-136450000I249999J0D01*
G01*
G37*
G36*
G01*
X237549999Y-134400000D02*
X238450001Y-134400000D01*
G75*
G02*
X238700000Y-134649999I0J-249999D01*
G01*
X238700000Y-135300001D01*
G75*
G02*
X238450001Y-135550000I-249999J0D01*
G01*
X237549999Y-135550000D01*
G75*
G02*
X237300000Y-135300001I0J249999D01*
G01*
X237300000Y-134649999D01*
G75*
G02*
X237549999Y-134400000I249999J0D01*
G01*
G37*
G36*
G01*
X257549999Y-136450000D02*
X258450001Y-136450000D01*
G75*
G02*
X258700000Y-136699999I0J-249999D01*
G01*
X258700000Y-137350001D01*
G75*
G02*
X258450001Y-137600000I-249999J0D01*
G01*
X257549999Y-137600000D01*
G75*
G02*
X257300000Y-137350001I0J249999D01*
G01*
X257300000Y-136699999D01*
G75*
G02*
X257549999Y-136450000I249999J0D01*
G01*
G37*
G36*
G01*
X257549999Y-134400000D02*
X258450001Y-134400000D01*
G75*
G02*
X258700000Y-134649999I0J-249999D01*
G01*
X258700000Y-135300001D01*
G75*
G02*
X258450001Y-135550000I-249999J0D01*
G01*
X257549999Y-135550000D01*
G75*
G02*
X257300000Y-135300001I0J249999D01*
G01*
X257300000Y-134649999D01*
G75*
G02*
X257549999Y-134400000I249999J0D01*
G01*
G37*
G36*
G01*
X277549999Y-136450000D02*
X278450001Y-136450000D01*
G75*
G02*
X278700000Y-136699999I0J-249999D01*
G01*
X278700000Y-137350001D01*
G75*
G02*
X278450001Y-137600000I-249999J0D01*
G01*
X277549999Y-137600000D01*
G75*
G02*
X277300000Y-137350001I0J249999D01*
G01*
X277300000Y-136699999D01*
G75*
G02*
X277549999Y-136450000I249999J0D01*
G01*
G37*
G36*
G01*
X277549999Y-134400000D02*
X278450001Y-134400000D01*
G75*
G02*
X278700000Y-134649999I0J-249999D01*
G01*
X278700000Y-135300001D01*
G75*
G02*
X278450001Y-135550000I-249999J0D01*
G01*
X277549999Y-135550000D01*
G75*
G02*
X277300000Y-135300001I0J249999D01*
G01*
X277300000Y-134649999D01*
G75*
G02*
X277549999Y-134400000I249999J0D01*
G01*
G37*
G36*
G01*
X297549999Y-136450000D02*
X298450001Y-136450000D01*
G75*
G02*
X298700000Y-136699999I0J-249999D01*
G01*
X298700000Y-137350001D01*
G75*
G02*
X298450001Y-137600000I-249999J0D01*
G01*
X297549999Y-137600000D01*
G75*
G02*
X297300000Y-137350001I0J249999D01*
G01*
X297300000Y-136699999D01*
G75*
G02*
X297549999Y-136450000I249999J0D01*
G01*
G37*
G36*
G01*
X297549999Y-134400000D02*
X298450001Y-134400000D01*
G75*
G02*
X298700000Y-134649999I0J-249999D01*
G01*
X298700000Y-135300001D01*
G75*
G02*
X298450001Y-135550000I-249999J0D01*
G01*
X297549999Y-135550000D01*
G75*
G02*
X297300000Y-135300001I0J249999D01*
G01*
X297300000Y-134649999D01*
G75*
G02*
X297549999Y-134400000I249999J0D01*
G01*
G37*
G36*
G01*
X317549999Y-136450000D02*
X318450001Y-136450000D01*
G75*
G02*
X318700000Y-136699999I0J-249999D01*
G01*
X318700000Y-137350001D01*
G75*
G02*
X318450001Y-137600000I-249999J0D01*
G01*
X317549999Y-137600000D01*
G75*
G02*
X317300000Y-137350001I0J249999D01*
G01*
X317300000Y-136699999D01*
G75*
G02*
X317549999Y-136450000I249999J0D01*
G01*
G37*
G36*
G01*
X317549999Y-134400000D02*
X318450001Y-134400000D01*
G75*
G02*
X318700000Y-134649999I0J-249999D01*
G01*
X318700000Y-135300001D01*
G75*
G02*
X318450001Y-135550000I-249999J0D01*
G01*
X317549999Y-135550000D01*
G75*
G02*
X317300000Y-135300001I0J249999D01*
G01*
X317300000Y-134649999D01*
G75*
G02*
X317549999Y-134400000I249999J0D01*
G01*
G37*
G36*
G01*
X337549999Y-136450000D02*
X338450001Y-136450000D01*
G75*
G02*
X338700000Y-136699999I0J-249999D01*
G01*
X338700000Y-137350001D01*
G75*
G02*
X338450001Y-137600000I-249999J0D01*
G01*
X337549999Y-137600000D01*
G75*
G02*
X337300000Y-137350001I0J249999D01*
G01*
X337300000Y-136699999D01*
G75*
G02*
X337549999Y-136450000I249999J0D01*
G01*
G37*
G36*
G01*
X337549999Y-134400000D02*
X338450001Y-134400000D01*
G75*
G02*
X338700000Y-134649999I0J-249999D01*
G01*
X338700000Y-135300001D01*
G75*
G02*
X338450001Y-135550000I-249999J0D01*
G01*
X337549999Y-135550000D01*
G75*
G02*
X337300000Y-135300001I0J249999D01*
G01*
X337300000Y-134649999D01*
G75*
G02*
X337549999Y-134400000I249999J0D01*
G01*
G37*
G36*
G01*
X357549999Y-136450000D02*
X358450001Y-136450000D01*
G75*
G02*
X358700000Y-136699999I0J-249999D01*
G01*
X358700000Y-137350001D01*
G75*
G02*
X358450001Y-137600000I-249999J0D01*
G01*
X357549999Y-137600000D01*
G75*
G02*
X357300000Y-137350001I0J249999D01*
G01*
X357300000Y-136699999D01*
G75*
G02*
X357549999Y-136450000I249999J0D01*
G01*
G37*
G36*
G01*
X357549999Y-134400000D02*
X358450001Y-134400000D01*
G75*
G02*
X358700000Y-134649999I0J-249999D01*
G01*
X358700000Y-135300001D01*
G75*
G02*
X358450001Y-135550000I-249999J0D01*
G01*
X357549999Y-135550000D01*
G75*
G02*
X357300000Y-135300001I0J249999D01*
G01*
X357300000Y-134649999D01*
G75*
G02*
X357549999Y-134400000I249999J0D01*
G01*
G37*
G36*
G01*
X212549999Y-136450000D02*
X213450001Y-136450000D01*
G75*
G02*
X213700000Y-136699999I0J-249999D01*
G01*
X213700000Y-137350001D01*
G75*
G02*
X213450001Y-137600000I-249999J0D01*
G01*
X212549999Y-137600000D01*
G75*
G02*
X212300000Y-137350001I0J249999D01*
G01*
X212300000Y-136699999D01*
G75*
G02*
X212549999Y-136450000I249999J0D01*
G01*
G37*
G36*
G01*
X212549999Y-134400000D02*
X213450001Y-134400000D01*
G75*
G02*
X213700000Y-134649999I0J-249999D01*
G01*
X213700000Y-135300001D01*
G75*
G02*
X213450001Y-135550000I-249999J0D01*
G01*
X212549999Y-135550000D01*
G75*
G02*
X212300000Y-135300001I0J249999D01*
G01*
X212300000Y-134649999D01*
G75*
G02*
X212549999Y-134400000I249999J0D01*
G01*
G37*
G36*
G01*
X232549999Y-136450000D02*
X233450001Y-136450000D01*
G75*
G02*
X233700000Y-136699999I0J-249999D01*
G01*
X233700000Y-137350001D01*
G75*
G02*
X233450001Y-137600000I-249999J0D01*
G01*
X232549999Y-137600000D01*
G75*
G02*
X232300000Y-137350001I0J249999D01*
G01*
X232300000Y-136699999D01*
G75*
G02*
X232549999Y-136450000I249999J0D01*
G01*
G37*
G36*
G01*
X232549999Y-134400000D02*
X233450001Y-134400000D01*
G75*
G02*
X233700000Y-134649999I0J-249999D01*
G01*
X233700000Y-135300001D01*
G75*
G02*
X233450001Y-135550000I-249999J0D01*
G01*
X232549999Y-135550000D01*
G75*
G02*
X232300000Y-135300001I0J249999D01*
G01*
X232300000Y-134649999D01*
G75*
G02*
X232549999Y-134400000I249999J0D01*
G01*
G37*
G36*
G01*
X252549999Y-136450000D02*
X253450001Y-136450000D01*
G75*
G02*
X253700000Y-136699999I0J-249999D01*
G01*
X253700000Y-137350001D01*
G75*
G02*
X253450001Y-137600000I-249999J0D01*
G01*
X252549999Y-137600000D01*
G75*
G02*
X252300000Y-137350001I0J249999D01*
G01*
X252300000Y-136699999D01*
G75*
G02*
X252549999Y-136450000I249999J0D01*
G01*
G37*
G36*
G01*
X252549999Y-134400000D02*
X253450001Y-134400000D01*
G75*
G02*
X253700000Y-134649999I0J-249999D01*
G01*
X253700000Y-135300001D01*
G75*
G02*
X253450001Y-135550000I-249999J0D01*
G01*
X252549999Y-135550000D01*
G75*
G02*
X252300000Y-135300001I0J249999D01*
G01*
X252300000Y-134649999D01*
G75*
G02*
X252549999Y-134400000I249999J0D01*
G01*
G37*
G36*
G01*
X272549999Y-136450000D02*
X273450001Y-136450000D01*
G75*
G02*
X273700000Y-136699999I0J-249999D01*
G01*
X273700000Y-137350001D01*
G75*
G02*
X273450001Y-137600000I-249999J0D01*
G01*
X272549999Y-137600000D01*
G75*
G02*
X272300000Y-137350001I0J249999D01*
G01*
X272300000Y-136699999D01*
G75*
G02*
X272549999Y-136450000I249999J0D01*
G01*
G37*
G36*
G01*
X272549999Y-134400000D02*
X273450001Y-134400000D01*
G75*
G02*
X273700000Y-134649999I0J-249999D01*
G01*
X273700000Y-135300001D01*
G75*
G02*
X273450001Y-135550000I-249999J0D01*
G01*
X272549999Y-135550000D01*
G75*
G02*
X272300000Y-135300001I0J249999D01*
G01*
X272300000Y-134649999D01*
G75*
G02*
X272549999Y-134400000I249999J0D01*
G01*
G37*
G36*
G01*
X292549999Y-136450000D02*
X293450001Y-136450000D01*
G75*
G02*
X293700000Y-136699999I0J-249999D01*
G01*
X293700000Y-137350001D01*
G75*
G02*
X293450001Y-137600000I-249999J0D01*
G01*
X292549999Y-137600000D01*
G75*
G02*
X292300000Y-137350001I0J249999D01*
G01*
X292300000Y-136699999D01*
G75*
G02*
X292549999Y-136450000I249999J0D01*
G01*
G37*
G36*
G01*
X292549999Y-134400000D02*
X293450001Y-134400000D01*
G75*
G02*
X293700000Y-134649999I0J-249999D01*
G01*
X293700000Y-135300001D01*
G75*
G02*
X293450001Y-135550000I-249999J0D01*
G01*
X292549999Y-135550000D01*
G75*
G02*
X292300000Y-135300001I0J249999D01*
G01*
X292300000Y-134649999D01*
G75*
G02*
X292549999Y-134400000I249999J0D01*
G01*
G37*
G36*
G01*
X312549999Y-136450000D02*
X313450001Y-136450000D01*
G75*
G02*
X313700000Y-136699999I0J-249999D01*
G01*
X313700000Y-137350001D01*
G75*
G02*
X313450001Y-137600000I-249999J0D01*
G01*
X312549999Y-137600000D01*
G75*
G02*
X312300000Y-137350001I0J249999D01*
G01*
X312300000Y-136699999D01*
G75*
G02*
X312549999Y-136450000I249999J0D01*
G01*
G37*
G36*
G01*
X312549999Y-134400000D02*
X313450001Y-134400000D01*
G75*
G02*
X313700000Y-134649999I0J-249999D01*
G01*
X313700000Y-135300001D01*
G75*
G02*
X313450001Y-135550000I-249999J0D01*
G01*
X312549999Y-135550000D01*
G75*
G02*
X312300000Y-135300001I0J249999D01*
G01*
X312300000Y-134649999D01*
G75*
G02*
X312549999Y-134400000I249999J0D01*
G01*
G37*
G36*
G01*
X332549999Y-136450000D02*
X333450001Y-136450000D01*
G75*
G02*
X333700000Y-136699999I0J-249999D01*
G01*
X333700000Y-137350001D01*
G75*
G02*
X333450001Y-137600000I-249999J0D01*
G01*
X332549999Y-137600000D01*
G75*
G02*
X332300000Y-137350001I0J249999D01*
G01*
X332300000Y-136699999D01*
G75*
G02*
X332549999Y-136450000I249999J0D01*
G01*
G37*
G36*
G01*
X332549999Y-134400000D02*
X333450001Y-134400000D01*
G75*
G02*
X333700000Y-134649999I0J-249999D01*
G01*
X333700000Y-135300001D01*
G75*
G02*
X333450001Y-135550000I-249999J0D01*
G01*
X332549999Y-135550000D01*
G75*
G02*
X332300000Y-135300001I0J249999D01*
G01*
X332300000Y-134649999D01*
G75*
G02*
X332549999Y-134400000I249999J0D01*
G01*
G37*
G36*
G01*
X352549999Y-136450000D02*
X353450001Y-136450000D01*
G75*
G02*
X353700000Y-136699999I0J-249999D01*
G01*
X353700000Y-137350001D01*
G75*
G02*
X353450001Y-137600000I-249999J0D01*
G01*
X352549999Y-137600000D01*
G75*
G02*
X352300000Y-137350001I0J249999D01*
G01*
X352300000Y-136699999D01*
G75*
G02*
X352549999Y-136450000I249999J0D01*
G01*
G37*
G36*
G01*
X352549999Y-134400000D02*
X353450001Y-134400000D01*
G75*
G02*
X353700000Y-134649999I0J-249999D01*
G01*
X353700000Y-135300001D01*
G75*
G02*
X353450001Y-135550000I-249999J0D01*
G01*
X352549999Y-135550000D01*
G75*
G02*
X352300000Y-135300001I0J249999D01*
G01*
X352300000Y-134649999D01*
G75*
G02*
X352549999Y-134400000I249999J0D01*
G01*
G37*
G36*
G01*
X207549999Y-136450000D02*
X208450001Y-136450000D01*
G75*
G02*
X208700000Y-136699999I0J-249999D01*
G01*
X208700000Y-137350001D01*
G75*
G02*
X208450001Y-137600000I-249999J0D01*
G01*
X207549999Y-137600000D01*
G75*
G02*
X207300000Y-137350001I0J249999D01*
G01*
X207300000Y-136699999D01*
G75*
G02*
X207549999Y-136450000I249999J0D01*
G01*
G37*
G36*
G01*
X207549999Y-134400000D02*
X208450001Y-134400000D01*
G75*
G02*
X208700000Y-134649999I0J-249999D01*
G01*
X208700000Y-135300001D01*
G75*
G02*
X208450001Y-135550000I-249999J0D01*
G01*
X207549999Y-135550000D01*
G75*
G02*
X207300000Y-135300001I0J249999D01*
G01*
X207300000Y-134649999D01*
G75*
G02*
X207549999Y-134400000I249999J0D01*
G01*
G37*
G36*
G01*
X227549999Y-136450000D02*
X228450001Y-136450000D01*
G75*
G02*
X228700000Y-136699999I0J-249999D01*
G01*
X228700000Y-137350001D01*
G75*
G02*
X228450001Y-137600000I-249999J0D01*
G01*
X227549999Y-137600000D01*
G75*
G02*
X227300000Y-137350001I0J249999D01*
G01*
X227300000Y-136699999D01*
G75*
G02*
X227549999Y-136450000I249999J0D01*
G01*
G37*
G36*
G01*
X227549999Y-134400000D02*
X228450001Y-134400000D01*
G75*
G02*
X228700000Y-134649999I0J-249999D01*
G01*
X228700000Y-135300001D01*
G75*
G02*
X228450001Y-135550000I-249999J0D01*
G01*
X227549999Y-135550000D01*
G75*
G02*
X227300000Y-135300001I0J249999D01*
G01*
X227300000Y-134649999D01*
G75*
G02*
X227549999Y-134400000I249999J0D01*
G01*
G37*
G36*
G01*
X247549999Y-136450000D02*
X248450001Y-136450000D01*
G75*
G02*
X248700000Y-136699999I0J-249999D01*
G01*
X248700000Y-137350001D01*
G75*
G02*
X248450001Y-137600000I-249999J0D01*
G01*
X247549999Y-137600000D01*
G75*
G02*
X247300000Y-137350001I0J249999D01*
G01*
X247300000Y-136699999D01*
G75*
G02*
X247549999Y-136450000I249999J0D01*
G01*
G37*
G36*
G01*
X247549999Y-134400000D02*
X248450001Y-134400000D01*
G75*
G02*
X248700000Y-134649999I0J-249999D01*
G01*
X248700000Y-135300001D01*
G75*
G02*
X248450001Y-135550000I-249999J0D01*
G01*
X247549999Y-135550000D01*
G75*
G02*
X247300000Y-135300001I0J249999D01*
G01*
X247300000Y-134649999D01*
G75*
G02*
X247549999Y-134400000I249999J0D01*
G01*
G37*
G36*
G01*
X267549999Y-136450000D02*
X268450001Y-136450000D01*
G75*
G02*
X268700000Y-136699999I0J-249999D01*
G01*
X268700000Y-137350001D01*
G75*
G02*
X268450001Y-137600000I-249999J0D01*
G01*
X267549999Y-137600000D01*
G75*
G02*
X267300000Y-137350001I0J249999D01*
G01*
X267300000Y-136699999D01*
G75*
G02*
X267549999Y-136450000I249999J0D01*
G01*
G37*
G36*
G01*
X267549999Y-134400000D02*
X268450001Y-134400000D01*
G75*
G02*
X268700000Y-134649999I0J-249999D01*
G01*
X268700000Y-135300001D01*
G75*
G02*
X268450001Y-135550000I-249999J0D01*
G01*
X267549999Y-135550000D01*
G75*
G02*
X267300000Y-135300001I0J249999D01*
G01*
X267300000Y-134649999D01*
G75*
G02*
X267549999Y-134400000I249999J0D01*
G01*
G37*
G36*
G01*
X287549999Y-136450000D02*
X288450001Y-136450000D01*
G75*
G02*
X288700000Y-136699999I0J-249999D01*
G01*
X288700000Y-137350001D01*
G75*
G02*
X288450001Y-137600000I-249999J0D01*
G01*
X287549999Y-137600000D01*
G75*
G02*
X287300000Y-137350001I0J249999D01*
G01*
X287300000Y-136699999D01*
G75*
G02*
X287549999Y-136450000I249999J0D01*
G01*
G37*
G36*
G01*
X287549999Y-134400000D02*
X288450001Y-134400000D01*
G75*
G02*
X288700000Y-134649999I0J-249999D01*
G01*
X288700000Y-135300001D01*
G75*
G02*
X288450001Y-135550000I-249999J0D01*
G01*
X287549999Y-135550000D01*
G75*
G02*
X287300000Y-135300001I0J249999D01*
G01*
X287300000Y-134649999D01*
G75*
G02*
X287549999Y-134400000I249999J0D01*
G01*
G37*
G36*
G01*
X307549999Y-136450000D02*
X308450001Y-136450000D01*
G75*
G02*
X308700000Y-136699999I0J-249999D01*
G01*
X308700000Y-137350001D01*
G75*
G02*
X308450001Y-137600000I-249999J0D01*
G01*
X307549999Y-137600000D01*
G75*
G02*
X307300000Y-137350001I0J249999D01*
G01*
X307300000Y-136699999D01*
G75*
G02*
X307549999Y-136450000I249999J0D01*
G01*
G37*
G36*
G01*
X307549999Y-134400000D02*
X308450001Y-134400000D01*
G75*
G02*
X308700000Y-134649999I0J-249999D01*
G01*
X308700000Y-135300001D01*
G75*
G02*
X308450001Y-135550000I-249999J0D01*
G01*
X307549999Y-135550000D01*
G75*
G02*
X307300000Y-135300001I0J249999D01*
G01*
X307300000Y-134649999D01*
G75*
G02*
X307549999Y-134400000I249999J0D01*
G01*
G37*
G36*
G01*
X327549999Y-136450000D02*
X328450001Y-136450000D01*
G75*
G02*
X328700000Y-136699999I0J-249999D01*
G01*
X328700000Y-137350001D01*
G75*
G02*
X328450001Y-137600000I-249999J0D01*
G01*
X327549999Y-137600000D01*
G75*
G02*
X327300000Y-137350001I0J249999D01*
G01*
X327300000Y-136699999D01*
G75*
G02*
X327549999Y-136450000I249999J0D01*
G01*
G37*
G36*
G01*
X327549999Y-134400000D02*
X328450001Y-134400000D01*
G75*
G02*
X328700000Y-134649999I0J-249999D01*
G01*
X328700000Y-135300001D01*
G75*
G02*
X328450001Y-135550000I-249999J0D01*
G01*
X327549999Y-135550000D01*
G75*
G02*
X327300000Y-135300001I0J249999D01*
G01*
X327300000Y-134649999D01*
G75*
G02*
X327549999Y-134400000I249999J0D01*
G01*
G37*
G36*
G01*
X347549999Y-136450000D02*
X348450001Y-136450000D01*
G75*
G02*
X348700000Y-136699999I0J-249999D01*
G01*
X348700000Y-137350001D01*
G75*
G02*
X348450001Y-137600000I-249999J0D01*
G01*
X347549999Y-137600000D01*
G75*
G02*
X347300000Y-137350001I0J249999D01*
G01*
X347300000Y-136699999D01*
G75*
G02*
X347549999Y-136450000I249999J0D01*
G01*
G37*
G36*
G01*
X347549999Y-134400000D02*
X348450001Y-134400000D01*
G75*
G02*
X348700000Y-134649999I0J-249999D01*
G01*
X348700000Y-135300001D01*
G75*
G02*
X348450001Y-135550000I-249999J0D01*
G01*
X347549999Y-135550000D01*
G75*
G02*
X347300000Y-135300001I0J249999D01*
G01*
X347300000Y-134649999D01*
G75*
G02*
X347549999Y-134400000I249999J0D01*
G01*
G37*
G36*
G01*
X79312500Y-109262500D02*
X79312500Y-109737500D01*
G75*
G02*
X79075000Y-109975000I-237500J0D01*
G01*
X78475000Y-109975000D01*
G75*
G02*
X78237500Y-109737500I0J237500D01*
G01*
X78237500Y-109262500D01*
G75*
G02*
X78475000Y-109025000I237500J0D01*
G01*
X79075000Y-109025000D01*
G75*
G02*
X79312500Y-109262500I0J-237500D01*
G01*
G37*
G36*
G01*
X81037500Y-109262500D02*
X81037500Y-109737500D01*
G75*
G02*
X80800000Y-109975000I-237500J0D01*
G01*
X80200000Y-109975000D01*
G75*
G02*
X79962500Y-109737500I0J237500D01*
G01*
X79962500Y-109262500D01*
G75*
G02*
X80200000Y-109025000I237500J0D01*
G01*
X80800000Y-109025000D01*
G75*
G02*
X81037500Y-109262500I0J-237500D01*
G01*
G37*
G36*
G01*
X159037500Y-109262500D02*
X159037500Y-109737500D01*
G75*
G02*
X158800000Y-109975000I-237500J0D01*
G01*
X158200000Y-109975000D01*
G75*
G02*
X157962500Y-109737500I0J237500D01*
G01*
X157962500Y-109262500D01*
G75*
G02*
X158200000Y-109025000I237500J0D01*
G01*
X158800000Y-109025000D01*
G75*
G02*
X159037500Y-109262500I0J-237500D01*
G01*
G37*
G36*
G01*
X160762500Y-109262500D02*
X160762500Y-109737500D01*
G75*
G02*
X160525000Y-109975000I-237500J0D01*
G01*
X159925000Y-109975000D01*
G75*
G02*
X159687500Y-109737500I0J237500D01*
G01*
X159687500Y-109262500D01*
G75*
G02*
X159925000Y-109025000I237500J0D01*
G01*
X160525000Y-109025000D01*
G75*
G02*
X160762500Y-109262500I0J-237500D01*
G01*
G37*
G36*
G01*
X239037500Y-109262500D02*
X239037500Y-109737500D01*
G75*
G02*
X238800000Y-109975000I-237500J0D01*
G01*
X238200000Y-109975000D01*
G75*
G02*
X237962500Y-109737500I0J237500D01*
G01*
X237962500Y-109262500D01*
G75*
G02*
X238200000Y-109025000I237500J0D01*
G01*
X238800000Y-109025000D01*
G75*
G02*
X239037500Y-109262500I0J-237500D01*
G01*
G37*
G36*
G01*
X240762500Y-109262500D02*
X240762500Y-109737500D01*
G75*
G02*
X240525000Y-109975000I-237500J0D01*
G01*
X239925000Y-109975000D01*
G75*
G02*
X239687500Y-109737500I0J237500D01*
G01*
X239687500Y-109262500D01*
G75*
G02*
X239925000Y-109025000I237500J0D01*
G01*
X240525000Y-109025000D01*
G75*
G02*
X240762500Y-109262500I0J-237500D01*
G01*
G37*
G36*
G01*
X319037500Y-108762500D02*
X319037500Y-109237500D01*
G75*
G02*
X318800000Y-109475000I-237500J0D01*
G01*
X318200000Y-109475000D01*
G75*
G02*
X317962500Y-109237500I0J237500D01*
G01*
X317962500Y-108762500D01*
G75*
G02*
X318200000Y-108525000I237500J0D01*
G01*
X318800000Y-108525000D01*
G75*
G02*
X319037500Y-108762500I0J-237500D01*
G01*
G37*
G36*
G01*
X320762500Y-108762500D02*
X320762500Y-109237500D01*
G75*
G02*
X320525000Y-109475000I-237500J0D01*
G01*
X319925000Y-109475000D01*
G75*
G02*
X319687500Y-109237500I0J237500D01*
G01*
X319687500Y-108762500D01*
G75*
G02*
X319925000Y-108525000I237500J0D01*
G01*
X320525000Y-108525000D01*
G75*
G02*
X320762500Y-108762500I0J-237500D01*
G01*
G37*
G36*
G01*
X61462500Y-121237500D02*
X61462500Y-120762500D01*
G75*
G02*
X61700000Y-120525000I237500J0D01*
G01*
X62300000Y-120525000D01*
G75*
G02*
X62537500Y-120762500I0J-237500D01*
G01*
X62537500Y-121237500D01*
G75*
G02*
X62300000Y-121475000I-237500J0D01*
G01*
X61700000Y-121475000D01*
G75*
G02*
X61462500Y-121237500I0J237500D01*
G01*
G37*
G36*
G01*
X59737500Y-121237500D02*
X59737500Y-120762500D01*
G75*
G02*
X59975000Y-120525000I237500J0D01*
G01*
X60575000Y-120525000D01*
G75*
G02*
X60812500Y-120762500I0J-237500D01*
G01*
X60812500Y-121237500D01*
G75*
G02*
X60575000Y-121475000I-237500J0D01*
G01*
X59975000Y-121475000D01*
G75*
G02*
X59737500Y-121237500I0J237500D01*
G01*
G37*
G36*
G01*
X49237500Y-123537500D02*
X48762500Y-123537500D01*
G75*
G02*
X48525000Y-123300000I0J237500D01*
G01*
X48525000Y-122700000D01*
G75*
G02*
X48762500Y-122462500I237500J0D01*
G01*
X49237500Y-122462500D01*
G75*
G02*
X49475000Y-122700000I0J-237500D01*
G01*
X49475000Y-123300000D01*
G75*
G02*
X49237500Y-123537500I-237500J0D01*
G01*
G37*
G36*
G01*
X49237500Y-125262500D02*
X48762500Y-125262500D01*
G75*
G02*
X48525000Y-125025000I0J237500D01*
G01*
X48525000Y-124425000D01*
G75*
G02*
X48762500Y-124187500I237500J0D01*
G01*
X49237500Y-124187500D01*
G75*
G02*
X49475000Y-124425000I0J-237500D01*
G01*
X49475000Y-125025000D01*
G75*
G02*
X49237500Y-125262500I-237500J0D01*
G01*
G37*
G36*
G01*
X319037500Y-149262500D02*
X319037500Y-149737500D01*
G75*
G02*
X318800000Y-149975000I-237500J0D01*
G01*
X318200000Y-149975000D01*
G75*
G02*
X317962500Y-149737500I0J237500D01*
G01*
X317962500Y-149262500D01*
G75*
G02*
X318200000Y-149025000I237500J0D01*
G01*
X318800000Y-149025000D01*
G75*
G02*
X319037500Y-149262500I0J-237500D01*
G01*
G37*
G36*
G01*
X320762500Y-149262500D02*
X320762500Y-149737500D01*
G75*
G02*
X320525000Y-149975000I-237500J0D01*
G01*
X319925000Y-149975000D01*
G75*
G02*
X319687500Y-149737500I0J237500D01*
G01*
X319687500Y-149262500D01*
G75*
G02*
X319925000Y-149025000I237500J0D01*
G01*
X320525000Y-149025000D01*
G75*
G02*
X320762500Y-149262500I0J-237500D01*
G01*
G37*
G36*
G01*
X239037500Y-149262500D02*
X239037500Y-149737500D01*
G75*
G02*
X238800000Y-149975000I-237500J0D01*
G01*
X238200000Y-149975000D01*
G75*
G02*
X237962500Y-149737500I0J237500D01*
G01*
X237962500Y-149262500D01*
G75*
G02*
X238200000Y-149025000I237500J0D01*
G01*
X238800000Y-149025000D01*
G75*
G02*
X239037500Y-149262500I0J-237500D01*
G01*
G37*
G36*
G01*
X240762500Y-149262500D02*
X240762500Y-149737500D01*
G75*
G02*
X240525000Y-149975000I-237500J0D01*
G01*
X239925000Y-149975000D01*
G75*
G02*
X239687500Y-149737500I0J237500D01*
G01*
X239687500Y-149262500D01*
G75*
G02*
X239925000Y-149025000I237500J0D01*
G01*
X240525000Y-149025000D01*
G75*
G02*
X240762500Y-149262500I0J-237500D01*
G01*
G37*
G36*
G01*
X159037500Y-149262500D02*
X159037500Y-149737500D01*
G75*
G02*
X158800000Y-149975000I-237500J0D01*
G01*
X158200000Y-149975000D01*
G75*
G02*
X157962500Y-149737500I0J237500D01*
G01*
X157962500Y-149262500D01*
G75*
G02*
X158200000Y-149025000I237500J0D01*
G01*
X158800000Y-149025000D01*
G75*
G02*
X159037500Y-149262500I0J-237500D01*
G01*
G37*
G36*
G01*
X160762500Y-149262500D02*
X160762500Y-149737500D01*
G75*
G02*
X160525000Y-149975000I-237500J0D01*
G01*
X159925000Y-149975000D01*
G75*
G02*
X159687500Y-149737500I0J237500D01*
G01*
X159687500Y-149262500D01*
G75*
G02*
X159925000Y-149025000I237500J0D01*
G01*
X160525000Y-149025000D01*
G75*
G02*
X160762500Y-149262500I0J-237500D01*
G01*
G37*
G36*
G01*
X79312500Y-149262500D02*
X79312500Y-149737500D01*
G75*
G02*
X79075000Y-149975000I-237500J0D01*
G01*
X78475000Y-149975000D01*
G75*
G02*
X78237500Y-149737500I0J237500D01*
G01*
X78237500Y-149262500D01*
G75*
G02*
X78475000Y-149025000I237500J0D01*
G01*
X79075000Y-149025000D01*
G75*
G02*
X79312500Y-149262500I0J-237500D01*
G01*
G37*
G36*
G01*
X81037500Y-149262500D02*
X81037500Y-149737500D01*
G75*
G02*
X80800000Y-149975000I-237500J0D01*
G01*
X80200000Y-149975000D01*
G75*
G02*
X79962500Y-149737500I0J237500D01*
G01*
X79962500Y-149262500D01*
G75*
G02*
X80200000Y-149025000I237500J0D01*
G01*
X80800000Y-149025000D01*
G75*
G02*
X81037500Y-149262500I0J-237500D01*
G01*
G37*
G36*
G01*
X61462500Y-161237500D02*
X61462500Y-160762500D01*
G75*
G02*
X61700000Y-160525000I237500J0D01*
G01*
X62300000Y-160525000D01*
G75*
G02*
X62537500Y-160762500I0J-237500D01*
G01*
X62537500Y-161237500D01*
G75*
G02*
X62300000Y-161475000I-237500J0D01*
G01*
X61700000Y-161475000D01*
G75*
G02*
X61462500Y-161237500I0J237500D01*
G01*
G37*
G36*
G01*
X59737500Y-161237500D02*
X59737500Y-160762500D01*
G75*
G02*
X59975000Y-160525000I237500J0D01*
G01*
X60575000Y-160525000D01*
G75*
G02*
X60812500Y-160762500I0J-237500D01*
G01*
X60812500Y-161237500D01*
G75*
G02*
X60575000Y-161475000I-237500J0D01*
G01*
X59975000Y-161475000D01*
G75*
G02*
X59737500Y-161237500I0J237500D01*
G01*
G37*
G36*
G01*
X49237500Y-163537500D02*
X48762500Y-163537500D01*
G75*
G02*
X48525000Y-163300000I0J237500D01*
G01*
X48525000Y-162700000D01*
G75*
G02*
X48762500Y-162462500I237500J0D01*
G01*
X49237500Y-162462500D01*
G75*
G02*
X49475000Y-162700000I0J-237500D01*
G01*
X49475000Y-163300000D01*
G75*
G02*
X49237500Y-163537500I-237500J0D01*
G01*
G37*
G36*
G01*
X49237500Y-165262500D02*
X48762500Y-165262500D01*
G75*
G02*
X48525000Y-165025000I0J237500D01*
G01*
X48525000Y-164425000D01*
G75*
G02*
X48762500Y-164187500I237500J0D01*
G01*
X49237500Y-164187500D01*
G75*
G02*
X49475000Y-164425000I0J-237500D01*
G01*
X49475000Y-165025000D01*
G75*
G02*
X49237500Y-165262500I-237500J0D01*
G01*
G37*
G36*
G01*
X319037500Y-129262500D02*
X319037500Y-129737500D01*
G75*
G02*
X318800000Y-129975000I-237500J0D01*
G01*
X318200000Y-129975000D01*
G75*
G02*
X317962500Y-129737500I0J237500D01*
G01*
X317962500Y-129262500D01*
G75*
G02*
X318200000Y-129025000I237500J0D01*
G01*
X318800000Y-129025000D01*
G75*
G02*
X319037500Y-129262500I0J-237500D01*
G01*
G37*
G36*
G01*
X320762500Y-129262500D02*
X320762500Y-129737500D01*
G75*
G02*
X320525000Y-129975000I-237500J0D01*
G01*
X319925000Y-129975000D01*
G75*
G02*
X319687500Y-129737500I0J237500D01*
G01*
X319687500Y-129262500D01*
G75*
G02*
X319925000Y-129025000I237500J0D01*
G01*
X320525000Y-129025000D01*
G75*
G02*
X320762500Y-129262500I0J-237500D01*
G01*
G37*
G36*
G01*
X239037500Y-129262500D02*
X239037500Y-129737500D01*
G75*
G02*
X238800000Y-129975000I-237500J0D01*
G01*
X238200000Y-129975000D01*
G75*
G02*
X237962500Y-129737500I0J237500D01*
G01*
X237962500Y-129262500D01*
G75*
G02*
X238200000Y-129025000I237500J0D01*
G01*
X238800000Y-129025000D01*
G75*
G02*
X239037500Y-129262500I0J-237500D01*
G01*
G37*
G36*
G01*
X240762500Y-129262500D02*
X240762500Y-129737500D01*
G75*
G02*
X240525000Y-129975000I-237500J0D01*
G01*
X239925000Y-129975000D01*
G75*
G02*
X239687500Y-129737500I0J237500D01*
G01*
X239687500Y-129262500D01*
G75*
G02*
X239925000Y-129025000I237500J0D01*
G01*
X240525000Y-129025000D01*
G75*
G02*
X240762500Y-129262500I0J-237500D01*
G01*
G37*
G36*
G01*
X159037500Y-129262500D02*
X159037500Y-129737500D01*
G75*
G02*
X158800000Y-129975000I-237500J0D01*
G01*
X158200000Y-129975000D01*
G75*
G02*
X157962500Y-129737500I0J237500D01*
G01*
X157962500Y-129262500D01*
G75*
G02*
X158200000Y-129025000I237500J0D01*
G01*
X158800000Y-129025000D01*
G75*
G02*
X159037500Y-129262500I0J-237500D01*
G01*
G37*
G36*
G01*
X160762500Y-129262500D02*
X160762500Y-129737500D01*
G75*
G02*
X160525000Y-129975000I-237500J0D01*
G01*
X159925000Y-129975000D01*
G75*
G02*
X159687500Y-129737500I0J237500D01*
G01*
X159687500Y-129262500D01*
G75*
G02*
X159925000Y-129025000I237500J0D01*
G01*
X160525000Y-129025000D01*
G75*
G02*
X160762500Y-129262500I0J-237500D01*
G01*
G37*
G36*
G01*
X79312500Y-129262500D02*
X79312500Y-129737500D01*
G75*
G02*
X79075000Y-129975000I-237500J0D01*
G01*
X78475000Y-129975000D01*
G75*
G02*
X78237500Y-129737500I0J237500D01*
G01*
X78237500Y-129262500D01*
G75*
G02*
X78475000Y-129025000I237500J0D01*
G01*
X79075000Y-129025000D01*
G75*
G02*
X79312500Y-129262500I0J-237500D01*
G01*
G37*
G36*
G01*
X81037500Y-129262500D02*
X81037500Y-129737500D01*
G75*
G02*
X80800000Y-129975000I-237500J0D01*
G01*
X80200000Y-129975000D01*
G75*
G02*
X79962500Y-129737500I0J237500D01*
G01*
X79962500Y-129262500D01*
G75*
G02*
X80200000Y-129025000I237500J0D01*
G01*
X80800000Y-129025000D01*
G75*
G02*
X81037500Y-129262500I0J-237500D01*
G01*
G37*
G36*
G01*
X61462500Y-141237500D02*
X61462500Y-140762500D01*
G75*
G02*
X61700000Y-140525000I237500J0D01*
G01*
X62300000Y-140525000D01*
G75*
G02*
X62537500Y-140762500I0J-237500D01*
G01*
X62537500Y-141237500D01*
G75*
G02*
X62300000Y-141475000I-237500J0D01*
G01*
X61700000Y-141475000D01*
G75*
G02*
X61462500Y-141237500I0J237500D01*
G01*
G37*
G36*
G01*
X59737500Y-141237500D02*
X59737500Y-140762500D01*
G75*
G02*
X59975000Y-140525000I237500J0D01*
G01*
X60575000Y-140525000D01*
G75*
G02*
X60812500Y-140762500I0J-237500D01*
G01*
X60812500Y-141237500D01*
G75*
G02*
X60575000Y-141475000I-237500J0D01*
G01*
X59975000Y-141475000D01*
G75*
G02*
X59737500Y-141237500I0J237500D01*
G01*
G37*
G36*
G01*
X49237500Y-143537500D02*
X48762500Y-143537500D01*
G75*
G02*
X48525000Y-143300000I0J237500D01*
G01*
X48525000Y-142700000D01*
G75*
G02*
X48762500Y-142462500I237500J0D01*
G01*
X49237500Y-142462500D01*
G75*
G02*
X49475000Y-142700000I0J-237500D01*
G01*
X49475000Y-143300000D01*
G75*
G02*
X49237500Y-143537500I-237500J0D01*
G01*
G37*
G36*
G01*
X49237500Y-145262500D02*
X48762500Y-145262500D01*
G75*
G02*
X48525000Y-145025000I0J237500D01*
G01*
X48525000Y-144425000D01*
G75*
G02*
X48762500Y-144187500I237500J0D01*
G01*
X49237500Y-144187500D01*
G75*
G02*
X49475000Y-144425000I0J-237500D01*
G01*
X49475000Y-145025000D01*
G75*
G02*
X49237500Y-145262500I-237500J0D01*
G01*
G37*
M02*
