M48
INCH,TZ
T1C0.0157
T2C0.0256
%
G90
G05
T1
X19291Y-47835
X19291Y-55709
X19291Y-63583
X19488Y-46654
X19488Y-54528
X19488Y-62402
X20079Y-47835
X20079Y-55709
X20079Y-63583
X21457Y-46654
X21457Y-54528
X21457Y-62402
X21850Y-43898
X21850Y-51772
X21850Y-59646
X22835Y-46850
X22835Y-54724
X22835Y-62598
X25000Y-47638
X25000Y-55512
X25000Y-63386
X25394Y-46654
X25394Y-54528
X25394Y-62402
X27362Y-46654
X27362Y-54528
X27362Y-62402
X29331Y-42717
X29331Y-46654
X29331Y-50591
X29331Y-54528
X29331Y-58465
X29331Y-62402
X30512Y-42913
X30512Y-50787
X30512Y-58661
X31299Y-46654
X31299Y-54528
X31299Y-62402
X33071Y-42913
X33071Y-50797
X33071Y-58661
X33268Y-47047
X33268Y-54921
X33268Y-62598
X34055Y-47047
X34055Y-54921
X34055Y-62598
X34252Y-42913
X34252Y-50797
X34252Y-58661
X36024Y-46654
X36024Y-54528
X36024Y-62598
X37598Y-42913
X37795Y-50787
X37795Y-58661
X37992Y-46654
X37992Y-54528
X37992Y-62598
X39961Y-46654
X39961Y-54528
X39961Y-62598
X41929Y-46654
X41929Y-54528
X41929Y-62598
X43898Y-46654
X43898Y-54528
X43898Y-62598
X45866Y-46654
X45866Y-54528
X45866Y-62598
X47638Y-62598
X47835Y-46654
X47835Y-54528
X49408Y-43898
X49408Y-51955
X49409Y-60630
X49409Y-44291
X49409Y-45079
X49409Y-53150
X49409Y-59843
X49409Y-60236
X49412Y-61021
X49414Y-44685
X49414Y-52751
X49417Y-52350
X50984Y-46654
X50984Y-54528
X50984Y-62598
X52953Y-46654
X52953Y-54528
X52953Y-62598
X54921Y-46654
X54921Y-54528
X54921Y-62598
X56890Y-46654
X56890Y-54528
X56890Y-62598
X58858Y-46654
X58858Y-54528
X58858Y-62598
X60827Y-46654
X60827Y-54528
X60827Y-62598
X61811Y-42913
X61811Y-50787
X61811Y-58661
X62795Y-46654
X62795Y-54528
X62795Y-62598
X64567Y-42913
X64567Y-50797
X64567Y-58661
X64764Y-54921
X64764Y-62795
X64764Y-47047
X65551Y-47047
X65551Y-54921
X65551Y-62795
X65748Y-42913
X65748Y-50797
X65748Y-58661
X67520Y-46654
X67520Y-54528
X67520Y-62402
X69094Y-42913
X69094Y-50787
X69094Y-58661
X69488Y-46654
X69488Y-54528
X69488Y-62402
X71457Y-46654
X71457Y-54528
X71457Y-62402
X73425Y-46654
X73425Y-54528
X73425Y-62402
X75394Y-46654
X75394Y-54528
X75394Y-62402
X77362Y-46654
X77362Y-54528
X77362Y-62402
X79331Y-46654
X79331Y-54528
X79331Y-62402
X80904Y-43884
X80904Y-51955
X80906Y-45079
X80906Y-53150
X80906Y-61024
X80910Y-44680
X80910Y-52751
X80910Y-60625
X80911Y-59820
X80913Y-44279
X80913Y-52350
X80913Y-60224
X82480Y-46654
X82480Y-54528
X82480Y-62402
X84449Y-46654
X84449Y-54528
X84449Y-62402
X86417Y-46654
X86417Y-54528
X86417Y-62402
X88386Y-46654
X88386Y-54528
X88386Y-62402
X90354Y-46654
X90354Y-54528
X90354Y-62402
X92323Y-46654
X92323Y-54528
X92323Y-62402
X93307Y-42913
X93307Y-50797
X93307Y-58661
X94291Y-46654
X94291Y-54528
X94291Y-62402
X96063Y-42913
X96063Y-50797
X96063Y-58661
X96260Y-47047
X96260Y-54921
X96260Y-62795
X97047Y-47047
X97047Y-54921
X97047Y-62795
X97244Y-42913
X97244Y-50797
X97244Y-58661
X99016Y-46654
X99016Y-54528
X99016Y-62402
X100591Y-42913
X100591Y-50787
X100591Y-58661
X100984Y-46654
X100984Y-54528
X100984Y-62402
X102953Y-46654
X102953Y-54528
X102953Y-62402
X104921Y-46654
X104921Y-54528
X104921Y-62402
X106890Y-46654
X106890Y-54528
X106890Y-62402
X108858Y-46654
X108858Y-54528
X108858Y-62402
X110431Y-59828
X110433Y-61024
X110438Y-60625
X110440Y-60223
X110827Y-46654
X110827Y-54528
X110827Y-62402
X112400Y-43884
X112400Y-51955
X112402Y-45079
X112402Y-53150
X112407Y-44680
X112407Y-52751
X112409Y-44279
X112409Y-52350
X113976Y-46654
X113976Y-54528
X113976Y-62402
X115945Y-46654
X115945Y-54528
X115945Y-62402
X117913Y-46654
X117913Y-54528
X117913Y-62402
X119882Y-46654
X119882Y-54528
X119882Y-62402
X121850Y-46654
X121850Y-54528
X121850Y-62402
X123819Y-46654
X123819Y-54528
X123819Y-62402
X124803Y-42913
X124803Y-50797
X124803Y-58661
X125787Y-46654
X125787Y-54528
X125787Y-62402
X127559Y-42913
X127559Y-50797
X127559Y-58661
X127756Y-47047
X127756Y-54724
X127756Y-62598
X128543Y-47047
X128543Y-54724
X128543Y-62598
X128740Y-42913
X128740Y-50797
X128740Y-58661
X130512Y-46654
X130512Y-54528
X130512Y-62402
X132087Y-43110
X132087Y-50984
X132087Y-58858
X132480Y-46654
X132480Y-54528
X132480Y-62402
X132677Y-43307
X132677Y-51181
X132677Y-59055
X133268Y-43701
X133268Y-51575
X133268Y-59449
X133661Y-51772
X133661Y-59646
X133661Y-43898
X134449Y-46654
X134449Y-54528
X134449Y-62402
X136417Y-46654
X136417Y-54528
X136417Y-62402
X138386Y-46654
X138386Y-54528
X138386Y-62402
X140354Y-46654
X140354Y-54528
X140354Y-62402
X142323Y-46654
X142323Y-54528
X142323Y-62402
T2
X23425Y-43110
X23425Y-50984
X23425Y-58858
X23925Y-43110
X23925Y-50984
X23925Y-58858
X24425Y-43110
X24425Y-50984
X24425Y-58858
X24925Y-43110
X24925Y-50984
X24925Y-58858
X25425Y-43110
X25425Y-50984
X25425Y-58858
X25925Y-43110
X25925Y-50984
X25925Y-58858
X26425Y-43110
X26425Y-50984
X26425Y-58858
X26925Y-43110
X26925Y-50984
X26925Y-58858
T0
M30
