M48
METRIC,TZ
T1C0.400
T2C0.650
T3C1.000
%
G90
G05
T1
X49000Y-121500
X49000Y-141500
X49000Y-161500
X49500Y-118500
X49500Y-138500
X49500Y-158500
X51000Y-121500
X51000Y-141500
X51000Y-161500
X54500Y-118500
X54500Y-138500
X54500Y-158500
X55000Y-111750
X55000Y-131750
X55000Y-151750
X56000Y-111750
X56000Y-131750
X56000Y-151750
X58000Y-119000
X58000Y-139000
X58000Y-159000
X63500Y-121000
X63500Y-141000
X63500Y-161000
X64500Y-118500
X64500Y-138500
X64500Y-158500
X69500Y-118500
X69500Y-138500
X69500Y-158500
X74500Y-108500
X74500Y-118500
X74500Y-128500
X74500Y-138500
X74500Y-148500
X74500Y-158500
X77500Y-109000
X77500Y-129000
X77500Y-149000
X79500Y-118500
X79500Y-138500
X79500Y-158500
X84000Y-109000
X84000Y-129025
X84000Y-149000
X84500Y-119500
X84500Y-139500
X84500Y-159000
X86500Y-119500
X86500Y-139500
X86500Y-159000
X87000Y-109000
X87000Y-129025
X87000Y-149000
X91500Y-118500
X91500Y-138500
X91500Y-159000
X95500Y-109000
X96000Y-129000
X96000Y-149000
X96500Y-118500
X96500Y-138500
X96500Y-159000
X101500Y-118500
X101500Y-138500
X101500Y-159000
X106500Y-118500
X106500Y-138500
X106500Y-159000
X111500Y-118500
X111500Y-138500
X111500Y-159000
X116500Y-118500
X116500Y-138500
X116500Y-159000
X121000Y-159000
X121500Y-118500
X121500Y-138500
X125496Y-111500
X125496Y-131966
X125500Y-154000
X125500Y-112500
X125500Y-114500
X125500Y-135000
X125500Y-152000
X125500Y-153000
X125506Y-154994
X125513Y-113500
X125513Y-133987
X125519Y-132968
X129500Y-118500
X129500Y-138500
X129500Y-159000
X134500Y-118500
X134500Y-138500
X134500Y-159000
X139500Y-118500
X139500Y-138500
X139500Y-159000
X144500Y-118500
X144500Y-138500
X144500Y-159000
X149500Y-118500
X149500Y-138500
X149500Y-159000
X154500Y-118500
X154500Y-138500
X154500Y-159000
X157000Y-109000
X157000Y-129000
X157000Y-149000
X159500Y-118500
X159500Y-138500
X159500Y-159000
X164000Y-109000
X164000Y-129025
X164000Y-149000
X164500Y-139500
X164500Y-159500
X164500Y-119500
X166500Y-119500
X166500Y-139500
X166500Y-159500
X167000Y-109000
X167000Y-129025
X167000Y-149000
X171500Y-118500
X171500Y-138500
X171500Y-158500
X175500Y-109000
X175500Y-129000
X175500Y-149000
X176500Y-118500
X176500Y-138500
X176500Y-158500
X181500Y-118500
X181500Y-138500
X181500Y-158500
X186500Y-118500
X186500Y-138500
X186500Y-158500
X191500Y-118500
X191500Y-138500
X191500Y-158500
X196500Y-118500
X196500Y-138500
X196500Y-158500
X201500Y-118500
X201500Y-138500
X201500Y-158500
X205496Y-111466
X205496Y-131966
X205500Y-114500
X205500Y-135000
X205500Y-155000
X205513Y-113487
X205513Y-133987
X205513Y-153987
X205515Y-151943
X205519Y-112468
X205519Y-132968
X205519Y-152968
X209500Y-118500
X209500Y-138500
X209500Y-158500
X214500Y-118500
X214500Y-138500
X214500Y-158500
X219500Y-118500
X219500Y-138500
X219500Y-158500
X224500Y-118500
X224500Y-138500
X224500Y-158500
X229500Y-118500
X229500Y-138500
X229500Y-158500
X234500Y-118500
X234500Y-138500
X234500Y-158500
X237000Y-109000
X237000Y-129025
X237000Y-149000
X239500Y-118500
X239500Y-138500
X239500Y-158500
X244000Y-109000
X244000Y-129025
X244000Y-149000
X244500Y-119500
X244500Y-139500
X244500Y-159500
X246500Y-119500
X246500Y-139500
X246500Y-159500
X247000Y-109000
X247000Y-129025
X247000Y-149000
X251500Y-118500
X251500Y-138500
X251500Y-158500
X255500Y-109000
X255500Y-129000
X255500Y-149000
X256500Y-118500
X256500Y-138500
X256500Y-158500
X261500Y-118500
X261500Y-138500
X261500Y-158500
X266500Y-118500
X266500Y-138500
X266500Y-158500
X271500Y-118500
X271500Y-138500
X271500Y-158500
X276500Y-118500
X276500Y-138500
X276500Y-158500
X280496Y-151963
X280500Y-155000
X280513Y-153987
X280517Y-152967
X281500Y-118500
X281500Y-138500
X281500Y-158500
X285496Y-111466
X285496Y-131966
X285500Y-114500
X285500Y-135000
X285513Y-113487
X285513Y-133987
X285519Y-112468
X285519Y-132968
X289500Y-118500
X289500Y-138500
X289500Y-158500
X294500Y-118500
X294500Y-138500
X294500Y-158500
X299500Y-118500
X299500Y-138500
X299500Y-158500
X304500Y-118500
X304500Y-138500
X304500Y-158500
X309500Y-118500
X309500Y-138500
X309500Y-158500
X314500Y-118500
X314500Y-138500
X314500Y-158500
X317000Y-109000
X317000Y-129025
X317000Y-149000
X319500Y-118500
X319500Y-138500
X319500Y-158500
X324000Y-109000
X324000Y-129025
X324000Y-149000
X324500Y-119500
X324500Y-139000
X324500Y-159000
X326500Y-119500
X326500Y-139000
X326500Y-159000
X327000Y-109000
X327000Y-129025
X327000Y-149000
X331500Y-118500
X331500Y-138500
X331500Y-158500
X335500Y-109500
X335500Y-129500
X335500Y-149500
X336500Y-118500
X336500Y-138500
X336500Y-158500
X337000Y-110000
X337000Y-130000
X337000Y-150000
X338500Y-111000
X338500Y-131000
X338500Y-151000
X339500Y-131500
X339500Y-151500
X339500Y-111500
X341500Y-118500
X341500Y-138500
X341500Y-158500
X346500Y-118500
X346500Y-138500
X346500Y-158500
X351500Y-118500
X351500Y-138500
X351500Y-158500
X356500Y-118500
X356500Y-138500
X356500Y-158500
X361500Y-118500
X361500Y-138500
X361500Y-158500
T2
X59500Y-109500
X59500Y-129500
X59500Y-149500
X60770Y-109500
X60770Y-129500
X60770Y-149500
X62040Y-109500
X62040Y-129500
X62040Y-149500
X63310Y-109500
X63310Y-129500
X63310Y-149500
X64580Y-109500
X64580Y-129500
X64580Y-149500
X65850Y-109500
X65850Y-129500
X65850Y-149500
X67120Y-109500
X67120Y-129500
X67120Y-149500
X68390Y-109500
X68390Y-129500
X68390Y-149500
T3
X49000Y-120000
X49000Y-140000
X49000Y-160000
T0
M30
